SplineFontDB: 3.2
FontName: Inconsolata-ExtraCondensed
FullName: Inconsolata Extra Condensed
FamilyName: Inconsolata Extra Condensed
Weight: Book
Copyright: Copyright 2006 The Inconsolata Project Authors (https://github.com/cyrealtype/Inconsolata)
Version: 3.000; ttfautohint (v1.8.3)
ItalicAngle: 0
UnderlinePosition: -297
UnderlineWidth: 102
Ascent: 1802
Descent: 246
InvalidEm: 0
sfntRevision: 0x00030000
LayerCount: 2
Layer: 0 1 "Back" 1
Layer: 1 1 "Fore" 0
XUID: [1021 866 1185736127 22164]
StyleMap: 0x0040
FSType: 0
OS2Version: 4
OS2_WeightWidthSlopeOnly: 0
OS2_UseTypoMetrics: 1
CreationTime: 1576097233
ModificationTime: 1732392373
PfmFamily: 81
TTFWeight: 400
TTFWidth: 2
LineGap: 0
VLineGap: 0
Panose: 0 0 0 0 0 0 0 0 0 0
OS2TypoAscent: 1759
OS2TypoAOffset: 0
OS2TypoDescent: -389
OS2TypoDOffset: 0
OS2TypoLinegap: 0
OS2WinAscent: 2056
OS2WinAOffset: 0
OS2WinDescent: 930
OS2WinDOffset: 0
HheadAscent: 1759
HheadAOffset: 0
HheadDescent: -389
HheadDOffset: 0
OS2SubXSize: 1331
OS2SubYSize: 1229
OS2SubXOff: 0
OS2SubYOff: 154
OS2SupXSize: 1331
OS2SupYSize: 1229
OS2SupXOff: 0
OS2SupYOff: 717
OS2StrikeYSize: 102
OS2StrikeYPos: 561
OS2CapHeight: 1276
OS2XHeight: 936
OS2Vendor: 'CYRE'
OS2CodePages: 60000193.cdd40000
OS2UnicodeRanges: a00000ff.0000f9eb.00000020.00000000
Lookup: 1 0 0 "'aalt' Access All Alternates in Latin lookup 0" { "'aalt' Access All Alternates in Latin lookup 0 subtable"  } ['aalt' ('DFLT' <'dflt' > 'latn' <'AZE ' 'CAT ' 'CRT ' 'KAZ ' 'MOL ' 'ROM ' 'TAT ' 'TRK ' 'dflt' > ) ]
Lookup: 3 0 0 "'aalt' Access All Alternates in Latin lookup 1" { "'aalt' Access All Alternates in Latin lookup 1 subtable"  } ['aalt' ('DFLT' <'dflt' > 'latn' <'AZE ' 'CAT ' 'CRT ' 'KAZ ' 'MOL ' 'ROM ' 'TAT ' 'TRK ' 'dflt' > ) ]

StartChar: A
Encoding: 65 65 1
Width: 768
VWidth: 2441
GlyphClass: 2
Flags: HW
AnchorPoint: "Anchor-3" 645 0 basechar 0
AnchorPoint: "Anchor-2" 393 0 basechar 0
AnchorPoint: "Anchor-0" 393 1521 basechar 0
LayerCount: 2
Fore
SplineSet
393 1109 m 1,0,-1
 279 576 l 1,1,-1
 506 576 l 1,2,-1
 393 1109 l 1,0,-1
626 0 m 1,3,-1
 532 445 l 1,4,-1
 251 445 l 1,5,-1
 155 0 l 1,6,-1
 25 0 l 1,7,-1
 373 1547 l 1,8,-1
 414 1547 l 1,9,-1
 761 0 l 1,10,-1
 626 0 l 1,3,-1
EndSplineSet
Substitution2: "Single Substitution lookup 29 subtable" ordfeminine
Substitution2: "'aalt' Access All Alternates in Latin lookup 0 subtable" ordfeminine
EndChar

StartChar: AE
Encoding: 198 198 26
Width: 768
VWidth: 2441
GlyphClass: 1
Flags: HW
LayerCount: 2
Fore
SplineSet
241 550 m 1,0,-1
 390 550 l 1,1,-1
 411 1374 l 1,2,-1
 396 1374 l 1,3,-1
 241 550 l 1,0,-1
13 0 m 1,4,-1
 313 1523 l 1,5,-1
 749 1523 l 1,6,-1
 749 1382 l 1,7,-1
 517 1382 l 1,8,-1
 517 867 l 1,9,-1
 709 867 l 1,10,-1
 709 720 l 1,11,-1
 517 720 l 1,12,-1
 517 142 l 1,13,-1
 745 142 l 1,14,-1
 745 0 l 1,15,-1
 390 0 l 1,16,-1
 390 417 l 1,17,-1
 218 417 l 1,18,-1
 137 0 l 1,19,-1
 13 0 l 1,4,-1
EndSplineSet
EndChar

StartChar: B
Encoding: 66 66 28
Width: 768
VWidth: 2441
GlyphClass: 2
Flags: HW
AnchorPoint: "Anchor-2" 427 0 basechar 0
AnchorPoint: "Anchor-0" 427 1521 basechar 0
LayerCount: 2
Fore
SplineSet
224 142 m 1,0,-1
 403 142 l 2,1,2
 508 142 508 142 571 210 c 128,-1,3
 634 278 634 278 634 437 c 0,4,5
 634 574 634 574 572 662 c 128,-1,6
 510 750 510 750 376 750 c 2,7,-1
 224 750 l 1,8,-1
 224 142 l 1,0,-1
224 888 m 1,9,-1
 368 888 l 2,10,11
 503 888 503 888 550.5 958 c 128,-1,12
 598 1028 598 1028 598 1132 c 0,13,14
 598 1232 598 1232 550.5 1307 c 128,-1,15
 503 1382 503 1382 386 1382 c 2,16,-1
 224 1382 l 1,17,-1
 224 888 l 1,9,-1
83 0 m 1,18,-1
 83 1521 l 1,19,-1
 386 1521 l 2,20,21
 549 1521 549 1521 643 1433 c 128,-1,22
 737 1345 737 1345 737 1153 c 0,23,24
 737 1011 737 1011 698 931.5 c 128,-1,25
 659 852 659 852 578 815 c 1,26,27
 666 776 666 776 723.5 676 c 128,-1,28
 781 576 781 576 781 427 c 0,29,30
 781 220 781 220 686 110 c 128,-1,31
 591 0 591 0 384 0 c 2,32,-1
 83 0 l 1,18,-1
EndSplineSet
EndChar

StartChar: C
Encoding: 67 67 29
Width: 768
VWidth: 2441
GlyphClass: 2
Flags: HW
AnchorPoint: "Anchor-2" 480 0 basechar 0
AnchorPoint: "Anchor-0" 464 1521 basechar 0
LayerCount: 2
Fore
SplineSet
489 -24 m 0,0,1
 375 -24 375 -24 280.5 51 c 128,-1,2
 186 126 186 126 129.5 297 c 128,-1,3
 73 468 73 468 70 752 c 0,4,5
 70 987 70 987 107 1139 c 128,-1,6
 144 1291 144 1291 205 1378 c 128,-1,7
 266 1465 266 1465 339 1499 c 128,-1,8
 412 1533 412 1533 486 1533 c 0,9,10
 600 1533 600 1533 682 1466.5 c 128,-1,11
 764 1400 764 1400 803 1274 c 1,12,-1
 699 1197 l 1,13,-1
 678 1179 l 1,14,-1
 669 1193 l 1,15,16
 671 1212 671 1212 670 1233.5 c 128,-1,17
 669 1255 669 1255 652 1291 c 1,18,19
 613 1352 613 1352 570 1373 c 128,-1,20
 527 1394 527 1394 480 1394 c 0,21,22
 358 1394 358 1394 285 1239 c 128,-1,23
 212 1084 212 1084 212 764 c 0,24,25
 212 454 212 454 292.5 286.5 c 128,-1,26
 373 119 373 119 489 119 c 0,27,28
 619 119 619 119 691 284 c 1,29,-1
 789 186 l 1,30,31
 735 79 735 79 664.5 27.5 c 128,-1,32
 594 -24 594 -24 489 -24 c 0,0,1
EndSplineSet
EndChar

StartChar: D
Encoding: 68 68 36
Width: 768
VWidth: 2441
GlyphClass: 2
Flags: HW
AnchorPoint: "Anchor-4" 427 762 basechar 0
AnchorPoint: "Anchor-2" 427 0 basechar 0
AnchorPoint: "Anchor-0" 376 1521 basechar 0
LayerCount: 2
Fore
SplineSet
235 135 m 1,0,-1
 315 135 l 2,1,2
 485 135 485 135 567.5 296 c 0,3,4
 647.105263158 451.350877193 647.105263158 451.350877193 647.105263158 723.083718067 c 0,5,6
 647.105263158 732.964912281 647.105263158 732.964912281 647 743 c 0,7,8
 647 936 647 936 617 1078.5 c 128,-1,9
 587 1221 587 1221 518 1301.5 c 128,-1,10
 449 1382 449 1382 335 1382 c 2,11,-1
 235 1382 l 1,12,-1
 235 135 l 1,0,-1
91 -2 m 1,13,-1
 91 1521 l 1,14,-1
 342 1521 l 2,15,16
 479 1521 479 1521 558.5 1471 c 128,-1,17
 638 1421 638 1421 689 1321 c 128,-1,18
 740 1221 740 1221 764.5 1084.5 c 128,-1,19
 789 948 789 948 789 752 c 0,20,21
 784 398 784 398 676.5 198 c 128,-1,22
 569 -2 569 -2 319 -2 c 2,23,-1
 91 -2 l 1,13,-1
EndSplineSet
EndChar

StartChar: Eth
Encoding: 208 208 37
Width: 768
VWidth: 2441
GlyphClass: 1
Flags: HW
LayerCount: 2
Fore
SplineSet
262 137 m 1,0,-1
 338 137 l 2,1,2
 497 137 497 137 574.5 298 c 128,-1,3
 652 459 652 459 652 747 c 0,4,5
 652 1040 652 1040 579.5 1209.5 c 128,-1,6
 507 1379 507 1379 357 1379 c 2,7,-1
 262 1379 l 1,8,-1
 262 876 l 1,9,-1
 414 876 l 1,10,-1
 414 734 l 1,11,-1
 262 734 l 1,12,-1
 262 137 l 1,0,-1
127 -2 m 1,13,-1
 127 734 l 1,14,-1
 50 734 l 1,15,-1
 50 876 l 1,16,-1
 127 876 l 1,17,-1
 127 1521 l 1,18,-1
 364 1521 l 2,19,20
 466 1521 466 1521 535.5 1479.5 c 128,-1,21
 605 1438 605 1438 648 1373.5 c 128,-1,22
 691 1309 691 1309 719 1237 c 0,23,24
 740 1179 740 1179 763 1062 c 128,-1,25
 786 945 786 945 786 755 c 0,26,27
 786 364 786 364 669 181 c 128,-1,28
 552 -2 552 -2 343 -2 c 2,29,-1
 127 -2 l 1,13,-1
EndSplineSet
EndChar

StartChar: E
Encoding: 69 69 42
Width: 768
VWidth: 2441
GlyphClass: 2
Flags: HW
AnchorPoint: "Anchor-3" 769 24 basechar 0
AnchorPoint: "Anchor-2" 427 0 basechar 0
AnchorPoint: "Anchor-0" 447 1521 basechar 0
LayerCount: 2
Fore
SplineSet
98 0 m 1,0,-1
 98 1523 l 1,1,-1
 757 1523 l 1,2,-1
 757 1382 l 1,3,-1
 237 1382 l 1,4,-1
 237 867 l 1,5,-1
 662 867 l 1,6,-1
 662 720 l 1,7,-1
 237 720 l 1,8,-1
 237 142 l 1,9,-1
 752 142 l 1,10,-1
 752 0 l 1,11,-1
 98 0 l 1,0,-1
EndSplineSet
EndChar

StartChar: uni01B8
Encoding: 440 440 65
Width: 768
VWidth: 2441
GlyphClass: 1
Flags: HW
LayerCount: 2
Fore
SplineSet
459 -27 m 0,0,1
 291 -27 291 -27 202.5 96 c 128,-1,2
 114 219 114 219 114 420 c 0,3,4
 114 630 114 630 205 761 c 128,-1,5
 296 892 296 892 440 906 c 1,6,-1
 151 1377 l 1,7,-1
 151 1521 l 1,8,-1
 671 1521 l 1,9,-1
 671 1377 l 1,10,-1
 298 1377 l 1,11,-1
 578 908 l 1,12,-1
 578 781 l 1,13,14
 556.794117647 782.441176471 556.794117647 782.441176471 536.987024221 782.441176471 c 0,15,16
 460.588235294 782.441176471 460.588235294 782.441176471 405 761 c 0,17,18
 335 734 335 734 297 656 c 128,-1,19
 259 578 259 578 259 432 c 0,20,21
 259 115 259 115 471 114 c 0,22,23
 517 114 517 114 547.5 129 c 128,-1,24
 578 144 578 144 606 175 c 1,25,26
 627 210 627 210 632.5 227 c 128,-1,27
 638 244 638 244 634 263 c 1,28,-1
 645 278 l 1,29,-1
 664 266 l 1,30,-1
 734 130 l 1,31,32
 678 44 678 44 609 8.5 c 128,-1,33
 540 -27 540 -27 459 -27 c 0,0,1
EndSplineSet
EndChar

StartChar: F
Encoding: 70 70 66
Width: 768
VWidth: 2441
GlyphClass: 2
Flags: HW
AnchorPoint: "Anchor-2" 427 0 basechar 0
AnchorPoint: "Anchor-0" 427 1521 basechar 0
LayerCount: 2
Fore
SplineSet
135 0 m 1,0,-1
 135 1523 l 1,1,-1
 747 1523 l 1,2,-1
 747 1382 l 1,3,-1
 275 1382 l 1,4,-1
 275 892 l 1,5,-1
 652 892 l 1,6,-1
 652 752 l 1,7,-1
 275 752 l 1,8,-1
 275 0 l 1,9,-1
 135 0 l 1,0,-1
EndSplineSet
EndChar

StartChar: G
Encoding: 71 71 67
Width: 768
VWidth: 2441
GlyphClass: 2
Flags: HW
AnchorPoint: "Anchor-2" 454 0 basechar 0
AnchorPoint: "Anchor-0" 468 1521 basechar 0
LayerCount: 2
Fore
SplineSet
473 -24 m 0,0,1
 282 -24 282 -24 171.5 172 c 128,-1,2
 61 368 61 368 61 743 c 0,3,4
 60.9 755.6 60.9 755.6 60.9 767.96 c 0,5,6
 60.9 1002.8 60.9 1002.8 97 1151 c 0,7,8
 135 1307 135 1307 198 1392 c 128,-1,9
 261 1477 261 1477 333 1507.5 c 128,-1,10
 405 1538 405 1538 468 1538 c 0,11,12
 575 1538 575 1538 660 1471 c 128,-1,13
 745 1404 745 1404 783 1302 c 1,14,-1
 694 1218 l 1,15,-1
 674 1199 l 1,16,-1
 664 1211 l 1,17,18
 662 1232 662 1232 659.5 1252 c 128,-1,19
 657 1272 657 1272 632 1307 c 0,20,21
 597 1351 597 1351 558.5 1372.5 c 128,-1,22
 520 1394 520 1394 466 1394 c 0,23,24
 393 1394 393 1394 333 1337.5 c 128,-1,25
 273 1281 273 1281 238 1147 c 128,-1,26
 203 1013 203 1013 203 778 c 0,27,28
 203 461 203 461 276 289 c 128,-1,29
 349 117 349 117 468 117 c 0,30,31
 512 117 512 117 561 135.5 c 128,-1,32
 610 154 610 154 647 196 c 1,33,-1
 647 587 l 1,34,-1
 466 587 l 1,35,-1
 466 725 l 1,36,-1
 786 725 l 1,37,-1
 786 126 l 1,38,39
 711 47 711 47 632.5 11.5 c 128,-1,40
 554 -24 554 -24 473 -24 c 0,0,1
EndSplineSet
EndChar

StartChar: H
Encoding: 72 72 74
Width: 768
VWidth: 2441
GlyphClass: 2
Flags: HW
AnchorPoint: "Anchor-4" 610 762 basechar 0
AnchorPoint: "Anchor-2" 610 0 basechar 0
AnchorPoint: "Anchor-0" 610 1521 basechar 0
LayerCount: 2
Fore
SplineSet
86 1521 m 1,0,-1
 247 1521 l 1,1,-1
 247 1504 l 1,2,3
 237 1490 237 1490 234.5 1473 c 128,-1,4
 232 1456 232 1456 232 1414 c 2,5,-1
 232 869 l 1,6,-1
 606 869 l 1,7,-1
 606 1521 l 1,8,-1
 769 1521 l 1,9,-1
 769 1504 l 1,10,11
 757 1490 757 1490 754.5 1473 c 128,-1,12
 752 1456 752 1456 752 1414 c 2,13,-1
 752 0 l 1,14,-1
 603 0 l 1,15,-1
 603 727 l 1,16,-1
 232 727 l 1,17,-1
 232 0 l 1,18,-1
 86 0 l 1,19,-1
 86 1521 l 1,0,-1
EndSplineSet
EndChar

StartChar: Hbar
Encoding: 294 294 75
Width: 768
VWidth: 2441
GlyphClass: 2
Flags: HW
AnchorPoint: "Anchor-4" 548 762 basechar 0
AnchorPoint: "Anchor-2" 548 0 basechar 0
AnchorPoint: "Anchor-0" 548 1521 basechar 0
LayerCount: 2
Fore
SplineSet
209 869 m 1,0,-1
 543 869 l 1,1,-1
 543 1214 l 1,2,-1
 209 1214 l 1,3,-1
 209 869 l 1,0,-1
11 1214 m 1,4,-1
 11 1351 l 1,5,-1
 77 1351 l 1,6,-1
 77 1521 l 1,7,-1
 221 1521 l 1,8,-1
 221 1504 l 1,9,10
 212 1490 212 1490 210.5 1473 c 128,-1,11
 209 1456 209 1456 209 1414 c 2,12,-1
 209 1351 l 1,13,-1
 543 1351 l 1,14,-1
 543 1521 l 1,15,-1
 690 1521 l 1,16,-1
 690 1504 l 1,17,18
 679 1490 679 1490 677 1473 c 128,-1,19
 675 1456 675 1456 675 1414 c 2,20,-1
 675 1351 l 1,21,-1
 747 1351 l 1,22,-1
 747 1214 l 1,23,-1
 675 1214 l 1,24,-1
 675 0 l 1,25,-1
 541 0 l 1,26,-1
 541 727 l 1,27,-1
 209 727 l 1,28,-1
 209 0 l 1,29,-1
 77 0 l 1,30,-1
 77 1214 l 1,31,-1
 11 1214 l 1,4,-1
EndSplineSet
EndChar

StartChar: I
Encoding: 73 73 79
Width: 768
VWidth: 2441
GlyphClass: 2
Flags: HW
AnchorPoint: "Anchor-3" 603 0 basechar 0
AnchorPoint: "Anchor-2" 429 0 basechar 0
AnchorPoint: "Anchor-0" 410 1521 basechar 0
LayerCount: 2
Fore
SplineSet
139 0 m 1,0,-1
 139 139 l 1,1,-1
 340 139 l 1,2,-1
 340 1382 l 1,3,-1
 147 1382 l 1,4,-1
 147 1521 l 1,5,-1
 678 1521 l 1,6,-1
 678 1382 l 1,7,-1
 480 1382 l 1,8,-1
 480 137 l 1,9,-1
 689 137 l 1,10,-1
 689 0 l 1,11,-1
 139 0 l 1,0,-1
EndSplineSet
EndChar

StartChar: J
Encoding: 74 74 94
Width: 768
VWidth: 2441
GlyphClass: 2
Flags: HW
AnchorPoint: "Anchor-2" 420 0 basechar 0
AnchorPoint: "Anchor-0" 557 1521 basechar 0
LayerCount: 2
Fore
SplineSet
327 -27 m 0,0,1
 171 -27 171 -27 75 114 c 1,2,-1
 147 263 l 1,3,-1
 156 286 l 1,4,-1
 170 278 l 1,5,6
 177 259 177 259 180.5 234.5 c 128,-1,7
 184 210 184 210 207 179 c 1,8,9
 263 121 263 121 327 119 c 0,10,11
 400 119 400 119 439 207.5 c 128,-1,12
 478 296 478 296 478 508 c 2,13,-1
 478 1382 l 1,14,-1
 278 1382 l 1,15,-1
 278 1521 l 1,16,-1
 778 1521 l 1,17,-1
 778 1382 l 1,18,-1
 620 1382 l 1,19,-1
 620 510 l 2,20,21
 620.098765432 499.975308642 620.098765432 499.975308642 620.098765432 490.156683432 c 0,22,23
 620.098765432 301.148148148 620.098765432 301.148148148 583.5 188.5 c 0,24,25
 545 70 545 70 476.5 21.5 c 128,-1,26
 408 -27 408 -27 327 -27 c 0,0,1
EndSplineSet
EndChar

StartChar: K
Encoding: 75 75 96
Width: 768
VWidth: 2441
GlyphClass: 1
Flags: HW
LayerCount: 2
Fore
SplineSet
300 740 m 1,0,-1
 222 610 l 1,1,-1
 222 0 l 1,2,-1
 75 0 l 1,3,-1
 75 1521 l 1,4,-1
 244 1521 l 1,5,-1
 244 1504 l 1,6,7
 230 1490 230 1490 226 1473 c 128,-1,8
 222 1456 222 1456 222 1414 c 2,9,-1
 222 825 l 1,10,-1
 629 1533 l 1,11,12
 646 1528 646 1528 678 1524.5 c 128,-1,13
 710 1521 710 1521 737 1521 c 2,14,-1
 781 1521 l 1,15,-1
 403 852 l 1,16,-1
 808 0 l 1,17,-1
 640 -10 l 1,18,-1
 300 740 l 1,0,-1
EndSplineSet
EndChar

StartChar: uni0198
Encoding: 408 408 98
Width: 768
VWidth: 2441
GlyphClass: 1
Flags: HW
LayerCount: 2
Fore
SplineSet
79 1521 m 1,0,-1
 247 1521 l 1,1,-1
 247 1504 l 1,2,3
 233 1490 233 1490 228.5 1473 c 128,-1,4
 224 1456 224 1456 224 1414 c 2,5,-1
 224 825 l 1,6,7
 334 1100 334 1100 424.5 1253.5 c 128,-1,8
 515 1407 515 1407 593 1469 c 128,-1,9
 671 1531 671 1531 743 1531 c 0,10,11
 780 1531 780 1531 803 1521 c 1,12,-1
 801 1345 l 1,13,-1
 801 1321 l 1,14,-1
 792 1321 l 1,15,16
 780 1335 780 1335 768.5 1345 c 128,-1,17
 757 1355 757 1355 727 1358 c 2,18,-1
 720 1358 l 2,19,20
 703 1358 703 1358 677.5 1342 c 128,-1,21
 652 1326 652 1326 614 1279.5 c 128,-1,22
 576 1233 576 1233 521 1140.5 c 128,-1,23
 466 1048 466 1048 389 894 c 1,24,-1
 811 0 l 1,25,-1
 643 -10 l 1,26,-1
 308 725 l 1,27,28
 269 644 269 644 224 552 c 1,29,-1
 224 0 l 1,30,-1
 79 0 l 1,31,-1
 79 1521 l 1,0,-1
EndSplineSet
EndChar

StartChar: L
Encoding: 76 76 99
Width: 768
VWidth: 2441
GlyphClass: 2
Flags: HW
AnchorPoint: "Anchor-4" 184 762 basechar 0
AnchorPoint: "Anchor-2" 427 0 basechar 0
AnchorPoint: "Anchor-1" 308 1116 basechar 0
AnchorPoint: "Anchor-0" 342 1521 basechar 0
LayerCount: 2
Fore
SplineSet
107 1521 m 1,0,-1
 275 1521 l 1,1,-1
 275 1504 l 1,2,3
 261 1490 261 1490 257.5 1473 c 128,-1,4
 254 1456 254 1456 254 1414 c 2,5,-1
 254 149 l 1,6,-1
 757 149 l 1,7,-1
 757 0 l 1,8,-1
 107 0 l 1,9,-1
 107 1521 l 1,0,-1
EndSplineSet
EndChar

StartChar: uni01C7
Encoding: 455 455 100
Width: 768
VWidth: 2380
GlyphClass: 1
Flags: HW
LayerCount: 2
Fore
SplineSet
100 98 m 1
 100 1521 l 1
 255 1521 l 1
 254 1506 254 1506 250 1502 c 0
 246 1498 246 1498 242 1489 c 0
 238 1480 238 1480 237 1443 c 2
 237 231 l 1
 482 231 l 1
 482 230 482 230 482 98 c 1
 100 98 l 1
464 -246 m 0
 318 -246 318 -246 215 -119 c 1
 303 12 l 1
 320 -4 320 -4 318 -18 c 0
 316 -32 316 -32 340 -59 c 0
 353 -76 353 -76 381 -90 c 0
 409 -104 409 -104 455 -104 c 0
 523 -104 523 -104 558 -24 c 0
 593 56 593 56 593 253 c 2
 593 1391 l 1
 409 1391 l 1
 409 1521 l 1
 726 1521 l 1
 726 256 l 1
 726.41025641 237.128205128 726.41025641 237.128205128 726.41025641 219.034845496 c 0,0,0
 726.41025641 60.7179487179 726.41025641 60.7179487179 695 -38 c 0
 660 -148 660 -148 599 -197 c 0
 538 -246 538 -246 464 -246 c 0
EndSplineSet
EndChar

StartChar: Lcaron
Encoding: 317 317 102
Width: 768
VWidth: 2441
GlyphClass: 2
Flags: HW
AnchorPoint: "Anchor-4" 184 762 basechar 0
AnchorPoint: "Anchor-2" 427 0 basechar 0
AnchorPoint: "Anchor-1" 308 1116 basechar 0
AnchorPoint: "Anchor-0" 342 1521 basechar 0
LayerCount: 2
Fore
SplineSet
578 1011 m 1,0,-1
 525 1060 l 1,1,2
 564 1111 564 1111 588.5 1163.5 c 128,-1,3
 613 1216 613 1216 613 1250 c 0,4,5
 613 1277 613 1277 595.5 1299 c 128,-1,6
 578 1321 578 1321 561.5 1344 c 128,-1,7
 545 1367 545 1367 545 1402 c 0,8,9
 545 1451 545 1451 570.5 1480 c 128,-1,10
 596 1509 596 1509 632 1509 c 0,11,12
 667 1509 667 1509 697 1473.5 c 128,-1,13
 727 1438 727 1438 727 1367 c 0,14,15
 727 1288 727 1288 687.5 1203 c 128,-1,16
 648 1118 648 1118 578 1011 c 1,0,-1
107 1521 m 1,17,-1
 275 1521 l 1,18,-1
 275 1504 l 1,19,20
 261 1490 261 1490 257.5 1473 c 128,-1,21
 254 1456 254 1456 254 1414 c 2,22,-1
 254 149 l 1,23,-1
 757 149 l 1,24,-1
 757 0 l 1,25,-1
 107 0 l 1,26,-1
 107 1521 l 1,17,-1
EndSplineSet
EndChar

StartChar: uni01C8
Encoding: 456 456 106
Width: 768
VWidth: 2363
GlyphClass: 1
Flags: HW
LayerCount: 2
Fore
SplineSet
380 -246 m 0,0,1
 302 -246 302 -246 246.5 -208.5 c 128,-1,2
 191 -171 191 -171 149 -110 c 1,3,-1
 236 34 l 1,4,5
 247 19 247 19 249 1 c 128,-1,6
 251 -17 251 -17 262.5 -38 c 128,-1,7
 274 -59 274 -59 314 -89 c 0,8,9
 334 -104 334 -104 350.5 -106 c 128,-1,10
 367 -108 367 -108 389 -108 c 0,11,12
 431 -108 431 -108 469 -87 c 128,-1,13
 507 -66 507 -66 530.5 -4 c 128,-1,14
 554 58 554 58 554 181 c 2,15,-1
 554 1032 l 1,16,-1
 336 1032 l 1,17,-1
 336 1157 l 1,18,-1
 679 1157 l 1,19,-1
 679 190 l 2,20,21
 679 33 679 33 638.5 -62 c 128,-1,22
 598 -157 598 -157 531.5 -200.5 c 128,-1,23
 465 -244 465 -244 380 -246 c 0,0,1
93 141 m 1,24,-1
 93 1527 l 1,25,-1
 240 1527 l 1,26,27
 240 1505 240 1505 233.5 1488 c 128,-1,28
 227 1471 227 1471 227 1450 c 2,29,-1
 227 276 l 1,30,-1
 467 276 l 1,31,-1
 465 141 l 1,32,-1
 93 141 l 1,24,-1
598 1384 m 0,33,34
 562 1384 562 1384 537 1413 c 128,-1,35
 512 1442 512 1442 512 1482 c 0,36,37
 512 1524 512 1524 537.5 1553 c 128,-1,38
 563 1582 563 1582 598 1582 c 0,39,40
 636 1582 636 1582 663 1552 c 128,-1,41
 690 1522 690 1522 690 1482 c 128,-1,42
 690 1442 690 1442 663 1413 c 128,-1,43
 636 1384 636 1384 598 1384 c 0,33,34
EndSplineSet
EndChar

StartChar: Lslash
Encoding: 321 321 108
Width: 768
VWidth: 2441
GlyphClass: 1
Flags: HW
LayerCount: 2
Fore
SplineSet
117 0 m 1,0,-1
 117 591 l 1,1,-1
 35 550 l 1,2,-1
 35 703 l 1,3,-1
 117 747 l 1,4,-1
 117 1521 l 1,5,-1
 275 1521 l 2,6,7
 282 1521 282 1521 284 1516 c 0,8,9
 284 1506 284 1506 275 1491.5 c 128,-1,10
 266 1477 266 1477 263 1438 c 2,11,-1
 263 803 l 1,12,-1
 532 935 l 2,13,14
 546 942 546 942 557.5 948.5 c 128,-1,15
 569 955 569 955 576 960 c 1,16,-1
 576 799 l 1,17,-1
 263 650 l 1,18,-1
 263 149 l 1,19,-1
 762 149 l 1,20,-1
 762 0 l 1,21,-1
 117 0 l 1,0,-1
EndSplineSet
EndChar

StartChar: M
Encoding: 77 77 109
Width: 768
VWidth: 2441
GlyphClass: 2
Flags: HW
AnchorPoint: "Anchor-2" 429 0 basechar 0
AnchorPoint: "Anchor-0" 429 1521 basechar 0
LayerCount: 2
Fore
SplineSet
68 0 m 1,0,-1
 68 1521 l 1,1,-1
 181 1521 l 1,2,-1
 429 820 l 1,3,-1
 681 1523 l 1,4,-1
 792 1523 l 1,5,-1
 792 0 l 1,6,-1
 659 0 l 1,7,-1
 659 1104 l 1,8,-1
 445 535 l 1,9,-1
 398 535 l 1,10,-1
 198 1097 l 1,11,-1
 198 0 l 1,12,-1
 68 0 l 1,0,-1
EndSplineSet
EndChar

StartChar: N
Encoding: 78 78 111
Width: 768
VWidth: 2441
GlyphClass: 2
Flags: HW
AnchorPoint: "Anchor-2" 427 0 basechar 0
AnchorPoint: "Anchor-0" 427 1521 basechar 0
LayerCount: 2
Fore
SplineSet
83 1521 m 1,0,-1
 217 1521 l 1,1,-1
 638 437 l 1,2,-1
 638 1521 l 1,3,-1
 789 1521 l 1,4,-1
 789 1504 l 1,5,6
 775 1490 775 1490 771 1473 c 128,-1,7
 767 1456 767 1456 767 1414 c 2,8,-1
 767 0 l 1,9,-1
 654 0 l 1,10,-1
 215 1153 l 1,11,-1
 215 0 l 1,12,-1
 83 0 l 1,13,-1
 83 1521 l 1,0,-1
EndSplineSet
EndChar

StartChar: Eng
Encoding: 330 330 117
Width: 768
VWidth: 2344
GlyphClass: 2
Flags: HW
AnchorPoint: "Anchor-2" 382 159 basechar 0
AnchorPoint: "Anchor-0" 382 1521 basechar 0
LayerCount: 2
Fore
SplineSet
576 1521 m 1,0,-1
 702 1521 l 1,1,2
 702 1508 702 1508 697.5 1497 c 128,-1,3
 693 1486 693 1486 693 1462 c 2,4,-1
 693 159 l 2,5,6
 693 -60 693 -60 626 -153 c 128,-1,7
 559 -246 559 -246 453 -246 c 0,8,9
 378 -246 378 -246 319 -192 c 1,10,-1
 372 -56 l 1,11,12
 385 -62 385 -62 391.5 -74 c 128,-1,13
 398 -86 398 -86 411 -97 c 128,-1,14
 424 -108 424 -108 457 -108 c 0,15,16
 527 -108 527 -108 550 -31.5 c 128,-1,17
 573 45 573 45 576 207 c 1,18,-1
 192 1191 l 1,19,-1
 192 159 l 1,20,-1
 75 159 l 1,21,-1
 75 1521 l 1,22,-1
 196 1521 l 1,23,-1
 576 551 l 1,24,-1
 576 1521 l 1,0,-1
EndSplineSet
EndChar

StartChar: O
Encoding: 79 79 120
Width: 768
VWidth: 2441
GlyphClass: 2
Flags: HW
AnchorPoint: "Anchor-4" 412 762 basechar 0
AnchorPoint: "Anchor-3" 475 24 basechar 0
AnchorPoint: "Anchor-2" 412 0 basechar 0
AnchorPoint: "Anchor-1" 625 1426 basechar 0
AnchorPoint: "Anchor-0" 412 1521 basechar 0
LayerCount: 2
Fore
SplineSet
412 114 m 0,0,1
 482 114 482 114 533.5 174.5 c 128,-1,2
 585 235 585 235 613.5 374 c 128,-1,3
 642 513 642 513 642 752 c 0,4,5
 642 1094 642 1094 579.5 1241.5 c 128,-1,6
 517 1389 517 1389 412 1389 c 0,7,8
 308 1389 308 1389 245 1241.5 c 128,-1,9
 182 1094 182 1094 182 752 c 0,10,11
 182 512 182 512 211.5 373.5 c 128,-1,12
 241 235 241 235 292.5 174.5 c 128,-1,13
 344 114 344 114 412 114 c 0,0,1
412 -27 m 128,-1,15
 235 -27 235 -27 140 154 c 128,-1,16
 45 335 45 335 45 752 c 0,17,18
 45 1157 45 1157 140.5 1344 c 128,-1,19
 236 1531 236 1531 412 1531 c 0,20,21
 589 1531 589 1531 685 1344.5 c 128,-1,22
 781 1158 781 1158 781 752 c 0,23,24
 781 335 781 335 685 154 c 128,-1,14
 589 -27 589 -27 412 -27 c 128,-1,15
EndSplineSet
Substitution2: "Single Substitution lookup 29 subtable" ordmasculine
Substitution2: "'aalt' Access All Alternates in Latin lookup 0 subtable" ordmasculine
EndChar

StartChar: Oslash
Encoding: 216 216 148
Width: 768
VWidth: 2441
GlyphClass: 2
Flags: HW
AnchorPoint: "Anchor-4" 412 762 basechar 0
AnchorPoint: "Anchor-3" 475 24 basechar 0
AnchorPoint: "Anchor-2" 412 0 basechar 0
AnchorPoint: "Anchor-1" 625 1426 basechar 0
AnchorPoint: "Anchor-0" 412 1521 basechar 0
LayerCount: 2
Fore
SplineSet
412 114 m 0,0,1
 482 114 482 114 533.5 174.5 c 128,-1,2
 585 235 585 235 613.5 374 c 128,-1,3
 642 513 642 513 642 752 c 0,4,5
 642 889 642 889 631.5 994 c 128,-1,6
 621 1099 621 1099 601 1174 c 1,7,-1
 264 212 l 1,8,9
 295 161 295 161 331 137.5 c 128,-1,10
 367 114 367 114 412 114 c 0,0,1
182 752 m 0,11,12
 182 626 182 626 190 527.5 c 128,-1,13
 198 429 198 429 214 359 c 1,14,-1
 547 1307 l 1,15,16
 495.619047619 1389.01190476 495.619047619 1389.01190476 413.971797052 1389.01190476 c 0,17,18
 412.988095238 1389.01190476 412.988095238 1389.01190476 412 1389 c 0,19,20
 308 1389 308 1389 245 1241.5 c 128,-1,21
 182 1094 182 1094 182 752 c 0,11,12
155 -103 m 1,22,-1
 68 -58 l 1,23,-1
 142 149 l 1,24,25
 95 244 95 244 70 393 c 128,-1,26
 45 542 45 542 45 752 c 0,27,28
 45 1157 45 1157 140.5 1344 c 128,-1,29
 236 1531 236 1531 412 1531 c 0,30,31
 523 1531 523 1531 601 1460 c 1,32,-1
 673 1665 l 1,33,-1
 757 1616 l 1,34,-1
 670 1372 l 1,35,36
 724 1277 724 1277 752.5 1123 c 128,-1,37
 781 969 781 969 781 752 c 0,38,39
 781 335 781 335 685.5 154 c 128,-1,40
 590 -27 590 -27 412 -27 c 0,41,42
 290 -27 290 -27 210 54 c 1,43,-1
 155 -103 l 1,22,-1
EndSplineSet
EndChar

StartChar: OE
Encoding: 338 338 154
Width: 768
VWidth: 2441
GlyphClass: 1
Flags: HW
LayerCount: 2
Fore
SplineSet
280 130 m 0,0,1
 318 130 318 130 343.5 182.5 c 128,-1,2
 369 235 369 235 378 315 c 1,3,-1
 378 1184 l 1,4,5
 365 1279 365 1279 339.5 1341.5 c 128,-1,6
 314 1404 314 1404 267 1404 c 0,7,8
 231 1404 231 1404 203.5 1346.5 c 128,-1,9
 176 1289 176 1289 158 1150 c 128,-1,10
 140 1011 140 1011 140 764 c 0,11,12
 140 464 140 464 174.5 297 c 128,-1,13
 209 130 209 130 280 130 c 0,0,1
258 -17 m 0,14,15
 184 -17 184 -17 130.5 54.5 c 128,-1,16
 77 126 77 126 46.5 296 c 128,-1,17
 16 466 16 466 16 762 c 0,18,19
 16 1184 16 1184 80.5 1363.5 c 128,-1,20
 145 1543 145 1543 261 1543 c 0,21,22
 295 1543 295 1543 324.5 1526 c 128,-1,23
 354 1509 354 1509 380 1458 c 1,24,-1
 380 1523 l 1,25,-1
 752 1523 l 1,26,-1
 752 1382 l 1,27,-1
 504 1382 l 1,28,-1
 504 867 l 1,29,-1
 717 867 l 1,30,-1
 717 720 l 1,31,-1
 504 720 l 1,32,-1
 504 142 l 1,33,-1
 748 142 l 1,34,-1
 748 0 l 1,35,-1
 378 0 l 1,36,-1
 378 70 l 1,37,38
 353 21 353 21 323.5 2 c 128,-1,39
 294 -17 294 -17 258 -17 c 0,14,15
EndSplineSet
EndChar

StartChar: P
Encoding: 80 80 155
Width: 768
VWidth: 2441
GlyphClass: 2
Flags: HW
AnchorPoint: "Anchor-2" 159 0 basechar 0
AnchorPoint: "Anchor-0" 427 1521 basechar 0
LayerCount: 2
Fore
SplineSet
242 813 m 1,0,-1
 422 813 l 2,1,2
 534 813 534 813 588.5 890 c 128,-1,3
 643 967 643 967 643 1091 c 0,4,5
 643 1226 643 1226 589 1300 c 128,-1,6
 535 1374 535 1374 424 1374 c 2,7,-1
 242 1374 l 1,8,-1
 242 813 l 1,0,-1
95 0 m 1,9,-1
 95 1521 l 1,10,-1
 427 1521 l 2,11,12
 613 1521 613 1521 699.5 1407 c 128,-1,13
 786 1293 786 1293 786 1097 c 0,14,15
 786 897 786 897 696 783 c 128,-1,16
 606 669 606 669 437 669 c 2,17,-1
 242 669 l 1,18,-1
 242 0 l 1,19,-1
 95 0 l 1,9,-1
EndSplineSet
EndChar

StartChar: Thorn
Encoding: 222 222 156
Width: 768
VWidth: 2441
GlyphClass: 1
Flags: HW
LayerCount: 2
Fore
SplineSet
237 527 m 1,0,-1
 442 527 l 2,1,2
 556 527 556 527 604 608 c 128,-1,3
 652 689 652 689 652 801 c 128,-1,4
 652 913 652 913 601 997 c 128,-1,5
 550 1081 550 1081 429 1081 c 2,6,-1
 237 1081 l 1,7,-1
 237 527 l 1,0,-1
95 0 m 1,8,-1
 95 1521 l 1,9,-1
 252 1521 l 2,10,11
 257 1519 257 1519 256 1514 c 0,12,13
 256 1507 256 1507 248 1491 c 128,-1,14
 240 1475 240 1475 237 1453 c 2,15,-1
 237 1228 l 1,16,-1
 447 1228 l 2,17,18
 566 1228 566 1228 643 1170.5 c 128,-1,19
 720 1113 720 1113 758 1018 c 128,-1,20
 796 923 796 923 796 806 c 0,21,22
 796 631 796 631 709 512 c 128,-1,23
 622 393 622 393 442 393 c 2,24,-1
 237 393 l 1,25,-1
 237 0 l 1,26,-1
 95 0 l 1,8,-1
EndSplineSet
EndChar

StartChar: Q
Encoding: 81 81 157
Width: 768
VWidth: 2389
GlyphClass: 2
Flags: HW
AnchorPoint: "Anchor-2" 403 85 basechar 0
AnchorPoint: "Anchor-0" 403 1522 basechar 0
LayerCount: 2
Fore
SplineSet
413 205 m 0,0,1
 470 205 470 205 520 260.5 c 128,-1,2
 570 316 570 316 601 438.5 c 128,-1,3
 632 561 632 561 632 763 c 0,4,5
 632 1012 632 1012 596.5 1151.5 c 128,-1,6
 561 1291 561 1291 509 1347.5 c 128,-1,7
 457 1404 457 1404 405 1404 c 0,8,9
 301 1404 301 1404 240.5 1255.5 c 128,-1,10
 180 1107 180 1107 180 831 c 0,11,12
 180 508 180 508 243.5 356.5 c 128,-1,13
 307 205 307 205 413 205 c 0,0,1
645 -245 m 1,14,15
 624.682352941 -246.423529412 624.682352941 -246.423529412 605.880346021 -246.423529412 c 0,16,17
 479.394117647 -246.423529412 479.394117647 -246.423529412 421.5 -182 c 0,18,19
 355 -108 355 -108 355 70 c 1,20,21
 269 93 269 93 199 171 c 128,-1,22
 129 249 129 249 87.5 401.5 c 128,-1,23
 46 554 46 554 46 796 c 0,24,25
 46 1016 46 1016 78 1158 c 128,-1,26
 110 1300 110 1300 162 1384.5 c 128,-1,27
 214 1469 214 1469 277.5 1503.5 c 128,-1,28
 341 1538 341 1538 403 1538 c 0,29,30
 498 1538 498 1538 580 1468.5 c 128,-1,31
 662 1399 662 1399 711.5 1238 c 0,32,33
 759.077669903 1083.25242718 759.077669903 1083.25242718 759.077669903 824.111132058 c 0,34,35
 759.077669903 813.640776699 759.077669903 813.640776699 759 803 c 0,36,37
 759 448 759 448 687.5 279.5 c 128,-1,38
 616 111 616 111 473 70 c 1,39,40
 478 -7 478 -7 496.5 -56.5 c 128,-1,41
 515 -106 515 -106 581 -106 c 2,42,-1
 713 -99 l 1,43,-1
 710 -245 l 1,44,-1
 645 -245 l 1,14,15
EndSplineSet
EndChar

StartChar: R
Encoding: 82 82 158
Width: 768
VWidth: 2441
GlyphClass: 2
Flags: HW
AnchorPoint: "Anchor-2" 427 0 basechar 0
AnchorPoint: "Anchor-0" 427 1521 basechar 0
LayerCount: 2
Fore
SplineSet
240 818 m 1,0,-1
 415 818 l 2,1,2
 515 818 515 818 567.5 890 c 128,-1,3
 620 962 620 962 620 1097 c 0,4,5
 620 1374.00358423 620 1374.00358423 416.466900477 1374.00358423 c 0,6,7
 415.734767025 1374.00358423 415.734767025 1374.00358423 415 1374 c 2,8,-1
 240 1374 l 1,9,-1
 240 818 l 1,0,-1
95 0 m 1,10,-1
 95 1521 l 1,11,-1
 401 1521 l 2,12,13
 589 1521 589 1521 676.5 1406 c 128,-1,14
 764 1291 764 1291 764 1097 c 0,15,16
 764 948 764 948 705.5 831.5 c 128,-1,17
 647 715 647 715 545 685 c 1,18,-1
 794 0 l 1,19,-1
 640 0 l 1,20,-1
 396 676 l 1,21,-1
 240 676 l 1,22,-1
 240 0 l 1,23,-1
 95 0 l 1,10,-1
EndSplineSet
EndChar

StartChar: S
Encoding: 83 83 166
Width: 768
VWidth: 2441
GlyphClass: 2
Flags: HW
AnchorPoint: "Anchor-2" 422 0 basechar 0
AnchorPoint: "Anchor-0" 445 1521 basechar 0
LayerCount: 2
Fore
SplineSet
422 -24 m 0,0,1
 210 -24 210 -24 88 154 c 1,2,-1
 151 322 l 1,3,-1
 156 347 l 1,4,-1
 173 340 l 1,5,6
 183 321 183 321 184.5 294.5 c 128,-1,7
 186 268 186 268 205 235 c 1,8,9
 247 184 247 184 303 151.5 c 128,-1,10
 359 119 359 119 432 119 c 0,11,12
 527 119 527 119 583.5 190 c 128,-1,13
 640 261 640 261 640 391 c 0,14,15
 640 454 640 454 625 504 c 128,-1,16
 610 554 610 554 562.5 604 c 128,-1,17
 515 654 515 654 415 715 c 1,18,19
 249 808 249 808 185.5 923.5 c 128,-1,20
 122 1039 122 1039 122 1165 c 0,21,22
 122 1356 122 1356 209 1448 c 128,-1,23
 296 1540 296 1540 447 1540 c 0,24,25
 631 1540 631 1540 743 1365 c 1,26,-1
 676 1223 l 1,27,-1
 664 1202 l 1,28,-1
 650 1209 l 1,29,30
 643 1228 643 1228 643 1252.5 c 128,-1,31
 643 1277 643 1277 620 1311 c 0,32,33
 581 1360 581 1360 537.5 1381 c 128,-1,34
 494 1402 494 1402 432 1402 c 0,35,36
 266 1402 266 1402 266 1177 c 0,37,38
 266 1079 266 1079 312.5 1001 c 128,-1,39
 359 923 359 923 510 837 c 0,40,41
 666 744 666 744 721 644.5 c 128,-1,42
 776 545 776 545 776 415 c 0,43,44
 776 296 776 296 739.5 195.5 c 128,-1,45
 703 95 703 95 624.5 35.5 c 128,-1,46
 546 -24 546 -24 422 -24 c 0,0,1
EndSplineSet
EndChar

StartChar: uni1E9E
Encoding: 7838 7838 177
Width: 768
VWidth: 2441
GlyphClass: 1
Flags: HW
LayerCount: 2
Fore
SplineSet
484 -24 m 0,0,1
 381 -24 381 -24 303 42 c 1,2,-1
 349 179 l 1,3,4
 407 121 407 121 473 119 c 0,5,6
 556 119 556 119 607.5 205 c 128,-1,7
 659 291 659 291 659 464 c 0,8,9
 659 557 659 557 640.5 631.5 c 128,-1,10
 622 706 622 706 571 749 c 128,-1,11
 520 792 520 792 417 792 c 2,12,-1
 366 792 l 1,13,-1
 366 925 l 1,14,-1
 591 1223 l 1,15,16
 591 1293 591 1293 576 1357 c 128,-1,17
 561 1421 561 1421 525 1461.5 c 128,-1,18
 489 1502 489 1502 422 1502 c 0,19,20
 343 1502 343 1502 286.5 1423.5 c 128,-1,21
 230 1345 230 1345 230 1160 c 2,22,-1
 230 0 l 1,23,-1
 88 0 l 1,24,-1
 88 1128 l 2,25,26
 88 1328 88 1328 136 1437.5 c 128,-1,27
 184 1547 184 1547 260.5 1590 c 128,-1,28
 337 1633 337 1633 422 1633 c 0,29,30
 576 1633 576 1633 653 1513.5 c 128,-1,31
 730 1394 730 1394 730 1204 c 1,32,-1
 498 920 l 1,33,34
 798 871 798 871 799 442 c 0,35,36
 799 195 799 195 710 85.5 c 128,-1,37
 621 -24 621 -24 484 -24 c 0,0,1
EndSplineSet
EndChar

StartChar: T
Encoding: 84 84 179
Width: 768
VWidth: 2441
GlyphClass: 2
Flags: HW
AnchorPoint: "Anchor-4" 416 762 basechar 0
AnchorPoint: "Anchor-2" 426 0 basechar 0
AnchorPoint: "Anchor-0" 426 1521 basechar 0
LayerCount: 2
Fore
SplineSet
344 0 m 1,0,-1
 344 1379 l 1,1,-1
 54 1379 l 1,2,-1
 54 1523 l 1,3,-1
 790 1523 l 1,4,-1
 790 1379 l 1,5,-1
 487 1379 l 1,6,-1
 487 0 l 1,7,-1
 344 0 l 1,0,-1
EndSplineSet
EndChar

StartChar: Tbar
Encoding: 358 358 180
Width: 768
VWidth: 2441
GlyphClass: 2
Flags: HW
AnchorPoint: "Anchor-4" 416 762 basechar 0
AnchorPoint: "Anchor-2" 426 0 basechar 0
AnchorPoint: "Anchor-0" 426 1521 basechar 0
LayerCount: 2
Fore
SplineSet
344 0 m 1,0,-1
 344 694 l 1,1,-1
 151 694 l 1,2,-1
 151 830 l 1,3,-1
 344 830 l 1,4,-1
 344 1379 l 1,5,-1
 54 1379 l 1,6,-1
 54 1523 l 1,7,-1
 790 1523 l 1,8,-1
 790 1379 l 1,9,-1
 487 1379 l 1,10,-1
 487 830 l 1,11,-1
 704 830 l 1,12,-1
 704 694 l 1,13,-1
 487 694 l 1,14,-1
 487 0 l 1,15,-1
 344 0 l 1,0,-1
EndSplineSet
EndChar

StartChar: U
Encoding: 85 85 186
Width: 768
VWidth: 2441
GlyphClass: 2
Flags: HW
AnchorPoint: "Anchor-3" 515 24 basechar 0
AnchorPoint: "Anchor-2" 427 0 basechar 0
AnchorPoint: "Anchor-1" 776 1521 basechar 0
AnchorPoint: "Anchor-0" 427 1521 basechar 0
LayerCount: 2
Fore
SplineSet
429 -27 m 0,0,1
 243 -27 243 -27 164.5 105 c 128,-1,2
 86 237 86 237 86 496 c 2,3,-1
 86 1521 l 1,4,-1
 249 1521 l 1,5,-1
 249 1504 l 1,6,7
 235 1490 235 1490 230.5 1473 c 128,-1,8
 226 1456 226 1456 226 1414 c 2,9,-1
 226 494 l 2,10,11
 226 306 226 306 271.5 208 c 128,-1,12
 317 110 317 110 429 110 c 0,13,14
 546 110 546 110 590 213.5 c 128,-1,15
 634 317 634 317 634 501 c 2,16,-1
 634 1521 l 1,17,-1
 776 1521 l 1,18,-1
 776 503 l 2,19,20
 776 217 776 217 686.5 95 c 128,-1,21
 597 -27 597 -27 429 -27 c 0,0,1
EndSplineSet
EndChar

StartChar: V
Encoding: 86 86 209
Width: 768
VWidth: 2441
GlyphClass: 2
Flags: HW
AnchorPoint: "Anchor-2" 408 0 basechar 0
AnchorPoint: "Anchor-0" 408 1521 basechar 0
LayerCount: 2
Fore
SplineSet
379 -10 m 1,0,-1
 42 1523 l 1,1,-1
 181 1523 l 1,2,-1
 421 412 l 1,3,-1
 645 1521 l 1,4,-1
 778 1521 l 1,5,-1
 448 -10 l 1,6,-1
 379 -10 l 1,0,-1
EndSplineSet
EndChar

StartChar: W
Encoding: 87 87 210
Width: 768
VWidth: 2441
GlyphClass: 2
Flags: HW
AnchorPoint: "Anchor-2" 398 0 basechar 0
AnchorPoint: "Anchor-0" 409 1521 basechar 0
LayerCount: 2
Fore
SplineSet
183 0 m 1,0,-1
 27 1521 l 1,1,-1
 145 1521 l 1,2,-1
 237 566 l 1,3,-1
 384 1409 l 1,4,-1
 431 1409 l 1,5,-1
 576 564 l 1,6,-1
 654 1521 l 1,7,-1
 763 1521 l 1,8,-1
 610 0 l 1,9,-1
 556 0 l 1,10,-1
 400 950 l 1,11,-1
 241 0 l 1,12,-1
 183 0 l 1,0,-1
EndSplineSet
EndChar

StartChar: X
Encoding: 88 88 215
Width: 768
VWidth: 2441
GlyphClass: 2
Flags: HW
AnchorPoint: "Anchor-2" 429 0 basechar 0
AnchorPoint: "Anchor-0" 429 1521 basechar 0
LayerCount: 2
Fore
SplineSet
70 0 m 1,0,-1
 349 776 l 1,1,-1
 75 1523 l 1,2,-1
 222 1523 l 1,3,-1
 429 974 l 1,4,-1
 634 1523 l 1,5,-1
 769 1523 l 1,6,-1
 510 778 l 1,7,-1
 801 0 l 1,8,-1
 652 0 l 1,9,-1
 429 573 l 1,10,-1
 215 0 l 1,11,-1
 70 0 l 1,0,-1
EndSplineSet
EndChar

StartChar: Y
Encoding: 89 89 216
Width: 768
VWidth: 2441
GlyphClass: 2
Flags: HW
AnchorPoint: "Anchor-2" 429 0 basechar 0
AnchorPoint: "Anchor-0" 414 1521 basechar 0
LayerCount: 2
Fore
SplineSet
355 0 m 1,0,-1
 355 587 l 1,1,-1
 47 1521 l 1,2,-1
 196 1521 l 1,3,-1
 431 811 l 1,4,-1
 644 1521 l 1,5,-1
 783 1521 l 1,6,-1
 499 587 l 1,7,-1
 499 0 l 1,8,-1
 355 0 l 1,0,-1
EndSplineSet
EndChar

StartChar: Z
Encoding: 90 90 226
Width: 768
VWidth: 2441
GlyphClass: 2
Flags: HW
AnchorPoint: "Anchor-2" 461 0 basechar 0
AnchorPoint: "Anchor-0" 445 1521 basechar 0
LayerCount: 2
Fore
SplineSet
86 114 m 1,0,-1
 608 1377 l 1,1,-1
 105 1377 l 1,2,-1
 105 1521 l 1,3,-1
 764 1521 l 1,4,-1
 764 1407 l 1,5,-1
 252 142 l 1,6,-1
 683 142 l 2,7,8
 725 142 725 142 742 146.5 c 128,-1,9
 759 151 759 151 774 166 c 1,10,-1
 792 166 l 1,11,-1
 792 0 l 1,12,-1
 86 0 l 1,13,-1
 86 114 l 1,0,-1
EndSplineSet
EndChar

StartChar: a
Encoding: 97 97 232
Width: 768
VWidth: 2441
GlyphClass: 2
Flags: HW
AnchorPoint: "Anchor-3" 678 0 basechar 0
AnchorPoint: "Anchor-2" 403 0 basechar 0
AnchorPoint: "Anchor-0" 424 1104 basechar 0
LayerCount: 2
Fore
SplineSet
215 296 m 0,0,1
 215 196 215 196 260 153 c 128,-1,2
 305 110 305 110 371 110 c 0,3,4
 488 110 488 110 557.5 217 c 128,-1,5
 627 324 627 324 632 527 c 1,6,7
 595 534 595 534 557.5 538 c 128,-1,8
 520 542 520 542 486 542 c 0,9,10
 362 542 362 542 288.5 487.5 c 128,-1,11
 215 433 215 433 215 296 c 0,0,1
359 -27 m 0,12,13
 224 -27 224 -27 152.5 64.5 c 128,-1,14
 81 156 81 156 81 291 c 0,15,16
 81 498 81 498 193 586 c 128,-1,17
 305 674 305 674 473 674 c 0,18,19
 541 674 541 674 632 659 c 1,20,21
 625 855 625 855 573.5 926 c 128,-1,22
 522 997 522 997 405 997 c 0,23,24
 295 997 295 997 200 894 c 1,25,-1
 137 1009 l 1,26,27
 250.142857143 1140.0075188 250.142857143 1140.0075188 412.536661202 1140.0075188 c 0,28,29
 413.766917293 1140.0075188 413.766917293 1140.0075188 415 1140 c 0,30,31
 527 1140 527 1140 604 1094 c 128,-1,32
 681 1048 681 1048 720 928 c 128,-1,33
 759 808 759 808 759 594 c 2,34,-1
 759 0 l 1,35,-1
 620 0 l 1,36,-1
 620 170 l 1,37,38
 574 48 574 48 500.5 10.5 c 128,-1,39
 427 -27 427 -27 359 -27 c 0,12,13
EndSplineSet
Substitution2: "Single Substitution lookup 29 subtable" ordfeminine
Substitution2: "'aalt' Access All Alternates in Latin lookup 0 subtable" ordfeminine
EndChar

StartChar: ae
Encoding: 230 230 257
Width: 768
VWidth: 2441
GlyphClass: 1
Flags: HW
LayerCount: 2
Fore
SplineSet
216 112 m 0,0,1
 264 112 264 112 284.5 171 c 128,-1,2
 305 230 305 230 309 325 c 128,-1,3
 313 420 313 420 313 532 c 1,4,5
 209 525 209 525 169 476 c 128,-1,6
 129 427 129 427 129 298 c 0,7,8
 129 195 129 195 151 153.5 c 128,-1,9
 173 112 173 112 216 112 c 0,0,1
431 678 m 1,10,-1
 619 691 l 1,11,12
 619 845 619 845 601.5 924.5 c 128,-1,13
 584 1004 584 1004 537 1004 c 0,14,15
 485 1004 485 1004 458 919 c 128,-1,16
 431 834 431 834 431 678 c 1,10,-1
205 -27 m 0,17,18
 99 -27 99 -27 52 68 c 128,-1,19
 5 163 5 163 5 300 c 0,20,21
 5 488 5 488 78 572.5 c 128,-1,22
 151 657 151 657 313 674 c 1,23,24
 313 833 313 833 291.5 918.5 c 128,-1,25
 270 1004 270 1004 205 1004 c 0,26,27
 143 1004 143 1004 94 916 c 1,28,-1
 40 1020 l 1,29,30
 102 1139 102 1139 214 1140 c 0,31,32
 268 1140 268 1140 313.5 1100 c 128,-1,33
 359 1060 359 1060 381 999 c 1,34,35
 402 1060 402 1060 447.5 1100 c 128,-1,36
 493 1140 493 1140 539 1140 c 0,37,38
 643 1140 643 1140 688.5 1020.5 c 128,-1,39
 734 901 734 901 734 654 c 2,40,-1
 734 564 l 1,41,-1
 431 550 l 1,42,-1
 431 427 l 2,43,44
 431 285 431 285 466.5 195 c 128,-1,45
 502 105 502 105 572 105 c 0,46,47
 607 105 607 105 635 129.5 c 128,-1,48
 663 154 663 154 682 193 c 1,49,-1
 741 88 l 1,50,51
 710 34 710 34 665.5 3.5 c 128,-1,52
 621 -27 621 -27 567 -27 c 0,53,54
 509 -27 509 -27 454.5 13.5 c 128,-1,55
 400 54 400 54 374 122 c 1,56,57
 350 54 350 54 305.5 13.5 c 128,-1,58
 261 -27 261 -27 205 -27 c 0,17,18
EndSplineSet
EndChar

StartChar: b
Encoding: 98 98 259
Width: 768
VWidth: 2441
GlyphClass: 2
Flags: HW
AnchorPoint: "Anchor-2" 610 0 basechar 0
AnchorPoint: "Anchor-0" 610 1116 basechar 0
LayerCount: 2
Fore
SplineSet
447 124 m 0,0,1
 501 124 501 124 548.5 155 c 128,-1,2
 596 186 596 186 624 278.5 c 128,-1,3
 652 371 652 371 652 559 c 0,4,5
 652 729 652 729 627.5 824.5 c 128,-1,6
 603 920 603 920 558 958.5 c 128,-1,7
 513 997 513 997 454 997 c 0,8,9
 363 997 363 997 302.5 893 c 128,-1,10
 242 789 242 789 242 554 c 0,11,12
 242 337 242 337 289.5 230.5 c 128,-1,13
 337 124 337 124 447 124 c 0,0,1
466 -27 m 0,14,15
 396 -27 396 -27 333.5 19.5 c 128,-1,16
 271 66 271 66 240 147 c 1,17,-1
 207 0 l 1,18,-1
 100 0 l 1,19,-1
 100 1624 l 1,20,-1
 259 1624 l 1,21,-1
 259 1607 l 1,22,23
 249 1593 249 1593 245.5 1575.5 c 128,-1,24
 242 1558 242 1558 242 1516 c 2,25,-1
 242 945 l 1,26,27
 279 1045 279 1045 349.5 1093.5 c 128,-1,28
 420 1142 420 1142 480 1142 c 0,29,30
 575 1142 575 1142 646.5 1089.5 c 128,-1,31
 718 1037 718 1037 757 913 c 128,-1,32
 796 789 796 789 796 569 c 0,33,34
 796 343 796 343 747.5 213 c 128,-1,35
 699 83 699 83 623 28 c 128,-1,36
 547 -27 547 -27 466 -27 c 0,14,15
EndSplineSet
EndChar

StartChar: c
Encoding: 99 99 261
Width: 768
VWidth: 2441
GlyphClass: 2
Flags: HW
AnchorPoint: "Anchor-2" 489 0 basechar 0
AnchorPoint: "Anchor-0" 489 1116 basechar 0
LayerCount: 2
Fore
SplineSet
486 -27 m 0,0,1
 302 -27 302 -27 197.5 127 c 128,-1,2
 93 281 93 281 93 557 c 0,3,4
 93 757 93 757 146.5 886.5 c 128,-1,5
 200 1016 200 1016 289 1076.5 c 128,-1,6
 378 1137 378 1137 484 1137 c 0,7,8
 689 1137 689 1137 778 957 c 1,9,-1
 701 850 l 1,10,-1
 689 830 l 1,11,-1
 674 840 l 1,12,13
 672 859 672 859 667 881.5 c 128,-1,14
 662 904 662 904 638 935 c 1,15,16
 575 1001 575 1001 473 1001 c 0,17,18
 415 1001 415 1001 361.5 957 c 128,-1,19
 308 913 308 913 271.5 816.5 c 128,-1,20
 235 720 235 720 235 561 c 0,21,22
 235 331 235 331 305.5 222.5 c 128,-1,23
 376 114 376 114 491 114 c 0,24,25
 552 114 552 114 603 144.5 c 128,-1,26
 654 175 654 175 699 240 c 1,27,-1
 767 114 l 1,28,29
 711 41 711 41 639 7 c 128,-1,30
 567 -27 567 -27 486 -27 c 0,0,1
EndSplineSet
EndChar

StartChar: d
Encoding: 100 100 268
Width: 768
VWidth: 2441
GlyphClass: 2
Flags: HW
AnchorPoint: "Anchor-4" 617 1340 basechar 0
AnchorPoint: "Anchor-2" 429 0 basechar 0
AnchorPoint: "Anchor-1" 806 1116 basechar 0
AnchorPoint: "Anchor-0" 429 1116 basechar 0
LayerCount: 2
Fore
SplineSet
412 119 m 0,0,1
 510 119 510 119 559 227 c 128,-1,2
 608 335 608 335 608 564 c 0,3,4
 608 786 608 786 556.5 892.5 c 128,-1,5
 505 999 505 999 410 999 c 0,6,7
 310 999 310 999 260 909.5 c 128,-1,8
 210 820 210 820 210 596 c 0,9,10
 210 412 210 412 235.5 308.5 c 128,-1,11
 261 205 261 205 307.5 162 c 128,-1,12
 354 119 354 119 412 119 c 0,0,1
389 -24 m 0,13,14
 308 -24 308 -24 235.5 28.5 c 128,-1,15
 163 81 163 81 119 210.5 c 128,-1,16
 75 340 75 340 75 569 c 0,17,18
 75 793 75 793 120.5 919 c 128,-1,19
 166 1045 166 1045 240.5 1093.5 c 128,-1,20
 315 1142 315 1142 401 1142 c 0,21,22
 567 1142 567 1142 615 962 c 1,23,-1
 615 1624 l 1,24,-1
 771 1624 l 1,25,-1
 771 1607 l 1,26,27
 757 1593 757 1593 753.5 1575.5 c 128,-1,28
 750 1558 750 1558 750 1516 c 2,29,-1
 752 173 l 2,30,31
 752 129 752 129 753.5 86.5 c 128,-1,32
 755 44 755 44 769 0 c 1,33,-1
 632 0 l 1,34,35
 618 35 618 35 613 73.5 c 128,-1,36
 608 112 608 112 608 156 c 1,37,38
 576 77 576 77 520 26.5 c 128,-1,39
 464 -24 464 -24 389 -24 c 0,13,14
EndSplineSet
EndChar

StartChar: eth
Encoding: 240 240 269
Width: 768
VWidth: 2441
GlyphClass: 1
Flags: HW
LayerCount: 2
Fore
SplineSet
437 110 m 0,0,1
 495 110 495 110 543 148 c 128,-1,2
 591 186 591 186 620.5 285 c 128,-1,3
 650 384 650 384 650 566 c 0,4,5
 650 803 650 803 581.5 904.5 c 128,-1,6
 514.323671498 1004.03864734 514.323671498 1004.03864734 435.125767229 1004.03864734 c 0,0,0
 433.565217391 1004.03864734 433.565217391 1004.03864734 432 1004 c 0,7,8
 339 1004 339 1004 274.5 905 c 128,-1,9
 210 806 210 806 210 566 c 0,10,11
 210 322 210 322 274.5 216 c 128,-1,12
 339 110 339 110 437 110 c 0,0,1
437 -30 m 0,13,14
 339 -30 339 -30 254.5 31.5 c 128,-1,15
 170 93 170 93 119 220 c 128,-1,16
 68 347 68 347 68 545 c 0,17,18
 68 848 68 848 170.5 994 c 128,-1,19
 273 1140 273 1140 412 1140 c 0,20,21
 475 1140 475 1140 526.5 1117 c 128,-1,22
 578 1094 578 1094 617 1037 c 1,23,24
 593 1118 593 1118 559 1197.5 c 128,-1,25
 525 1277 525 1277 476 1347 c 1,26,-1
 273 1267 l 1,27,-1
 230 1377 l 1,28,-1
 403 1445 l 1,29,30
 366 1491 366 1491 323.5 1530.5 c 128,-1,31
 281 1570 281 1570 232 1601 c 1,32,-1
 384 1640 l 1,33,34
 423 1608 423 1608 459.5 1571.5 c 128,-1,35
 496 1535 496 1535 532 1489 c 1,36,-1
 710 1560 l 1,37,-1
 750 1453 l 1,38,-1
 601 1396 l 1,39,40
 696 1240 696 1240 741 1055.5 c 128,-1,41
 786 871 786 871 786 617 c 0,42,43
 786 268 786 268 696.5 119 c 128,-1,44
 607 -30 607 -30 437 -30 c 0,13,14
EndSplineSet
EndChar

StartChar: dcaron
Encoding: 271 271 270
Width: 768
VWidth: 2441
GlyphClass: 1
Flags: HW
LayerCount: 2
Fore
SplineSet
314 119 m 0,0,1
 377 119 377 119 415.5 218 c 128,-1,2
 454 317 454 317 454 564 c 0,3,4
 454 804 454 804 416 901.5 c 128,-1,5
 378 999 378 999 319 999 c 0,6,7
 270 999 270 999 237 964.5 c 128,-1,8
 204 930 204 930 189 843.5 c 128,-1,9
 174 757 174 757 174 596 c 0,10,11
 174 396 174 396 192.5 293.5 c 128,-1,12
 211 191 211 191 243.5 155 c 128,-1,13
 276 119 276 119 314 119 c 0,0,1
291 -24 m 0,14,15
 226 -24 226 -24 172.5 22 c 128,-1,16
 119 68 119 68 87.5 196 c 128,-1,17
 56 324 56 324 56 569 c 0,18,19
 56 804 56 804 87.5 928.5 c 128,-1,20
 119 1053 119 1053 174.5 1097.5 c 128,-1,21
 230 1142 230 1142 300 1142 c 0,22,23
 429 1142 429 1142 457 969 c 1,24,-1
 457 1624 l 1,25,-1
 600 1624 l 1,26,-1
 600 1607 l 1,27,28
 586 1593 586 1593 582.5 1575.5 c 128,-1,29
 579 1558 579 1558 579 1516 c 2,30,-1
 579 173 l 2,31,32
 579 129 579 129 580 86.5 c 128,-1,33
 581 44 581 44 593 0 c 1,34,-1
 474 0 l 1,35,36
 465 32 465 32 458.5 68.5 c 128,-1,37
 452 105 452 105 452 149 c 1,38,39
 429 76 429 76 388 26 c 128,-1,40
 347 -24 347 -24 291 -24 c 0,14,15
718 1631 m 0,41,42
 747 1631 747 1631 769.5 1597 c 128,-1,43
 792 1563 792 1563 792 1504 c 0,44,45
 792 1429 792 1429 760.5 1332 c 128,-1,46
 729 1235 729 1235 678 1140 c 1,47,-1
 622 1181 l 1,48,49
 648 1225 648 1225 671 1277.5 c 128,-1,50
 694 1330 694 1330 694 1382 c 0,51,52
 694 1406 694 1406 680 1424 c 128,-1,53
 666 1442 666 1442 653 1466.5 c 128,-1,54
 640 1491 640 1491 640 1533 c 128,-1,55
 640 1575 640 1575 661.5 1603 c 128,-1,56
 683 1631 683 1631 718 1631 c 0,41,42
EndSplineSet
EndChar

StartChar: e
Encoding: 101 101 274
Width: 768
VWidth: 2441
GlyphClass: 2
Flags: HW
AnchorPoint: "Anchor-3" 552 24 basechar 0
AnchorPoint: "Anchor-2" 489 0 basechar 0
AnchorPoint: "Anchor-0" 440 1116 basechar 0
LayerCount: 2
Fore
SplineSet
224 666 m 1,0,-1
 615 666 l 1,1,2
 615 1013 615 1013 432 1013 c 0,3,4
 346 1013 346 1013 293.5 938.5 c 128,-1,5
 241 864 241 864 224 666 c 1,0,-1
464 -24 m 0,6,7
 280 -24 280 -24 180.5 114 c 128,-1,8
 81 252 81 252 81 554 c 0,9,10
 81 859 81 859 178 1000.5 c 128,-1,11
 275 1142 275 1142 440 1142 c 0,12,13
 538 1142 538 1142 608 1092 c 128,-1,14
 678 1042 678 1042 718.5 926.5 c 128,-1,15
 759 811 759 811 759 613 c 0,16,17
 759 574 759 574 755 535 c 1,18,-1
 219 535 l 1,19,20
 224 298 224 298 289 205 c 128,-1,21
 354 112 354 112 466 112 c 0,22,23
 532 112 532 112 577 140 c 128,-1,24
 622 168 622 168 657 219 c 1,25,-1
 737 132 l 1,26,27
 688 59 688 59 620 17.5 c 128,-1,28
 552 -24 552 -24 464 -24 c 0,6,7
EndSplineSet
EndChar

StartChar: uni029A
Encoding: 666 666 296
Width: 768
VWidth: 2441
GlyphClass: 1
Flags: HW
LayerCount: 2
Fore
SplineSet
405 117 m 0,0,1
 515 117 515 117 573.5 218 c 128,-1,2
 632 319 632 319 632 561 c 0,3,4
 632 796 632 796 573.5 900 c 128,-1,5
 515 1004 515 1004 415 1004 c 0,6,7
 342 1004 342 1004 305 957.5 c 128,-1,8
 268 911 268 911 268 827 c 0,9,10
 268 759 268 759 302.5 714 c 128,-1,11
 337 669 337 669 415 669 c 0,12,13
 425 669 425 669 435 669 c 128,-1,14
 445 669 445 669 454 671 c 1,15,-1
 454 522 l 1,16,17
 437 524 437 524 423.5 526.5 c 128,-1,18
 410 529 410 529 393 529 c 0,19,20
 320 529 320 529 271 479 c 128,-1,21
 222 429 222 429 222 335 c 0,22,23
 222 230 222 230 272 173.5 c 128,-1,24
 322 117 322 117 405 117 c 0,0,1
405 -19 m 0,25,26
 258 -17 258 -17 166.5 84.5 c 128,-1,27
 75 186 75 186 75 349 c 0,28,29
 75 452 75 452 118 523 c 128,-1,30
 161 594 161 594 230 615 c 1,31,32
 123 701 123 701 122 840 c 0,33,34
 122 984 122 984 209 1062 c 128,-1,35
 296 1140 296 1140 417 1140 c 0,36,37
 592 1140 592 1140 684 994 c 128,-1,38
 776 848 776 848 776 559 c 0,39,40
 776 271 776 271 678 125 c 128,-1,41
 581.324324324 -19.027027027 581.324324324 -19.027027027 409.715668371 -19.027027027 c 0,0,0
 407.364864865 -19.027027027 407.364864865 -19.027027027 405 -19 c 0,25,26
EndSplineSet
EndChar

StartChar: f
Encoding: 102 102 300
Width: 768
VWidth: 2441
GlyphClass: 1
Flags: HW
LayerCount: 2
Fore
SplineSet
249 991 m 1,0,-1
 88 991 l 1,1,-1
 88 1116 l 1,2,-1
 249 1116 l 1,3,-1
 249 1209 l 2,4,5
 249 1433 249 1433 338 1535.5 c 128,-1,6
 427 1638 427 1638 552 1638 c 0,7,8
 625 1638 625 1638 697 1600.5 c 128,-1,9
 769 1563 769 1563 811 1484 c 1,10,-1
 737 1372 l 1,11,-1
 722 1351 l 1,12,-1
 708 1360 l 1,13,14
 706 1379 706 1379 703.5 1402.5 c 128,-1,15
 701 1426 701 1426 678 1458 c 1,16,17
 627 1512 627 1512 557 1512 c 0,18,19
 482 1512 482 1512 433 1439.5 c 128,-1,20
 384 1367 384 1367 384 1209 c 2,21,-1
 384 1116 l 1,22,-1
 632 1116 l 1,23,-1
 632 991 l 1,24,-1
 384 991 l 1,25,-1
 384 0 l 1,26,-1
 249 0 l 1,27,-1
 249 991 l 1,0,-1
EndSplineSet
EndChar

StartChar: g
Encoding: 103 103 301
Width: 768
VWidth: 2298
GlyphClass: 2
Flags: HW
AnchorPoint: "Anchor-2" 380 -225 basechar 0
AnchorPoint: "Anchor-0" 350 1120 basechar 0
LayerCount: 2
Fore
SplineSet
185 28 m 0,0,1
 185 -46 185 -46 238 -85.5 c 128,-1,2
 291 -125 291 -125 384 -125 c 0,3,4
 482 -125 482 -125 523 -82.5 c 128,-1,5
 564 -40 564 -40 564 30 c 0,6,7
 564 102 564 102 535 136.5 c 128,-1,8
 506 171 506 171 404 171 c 0,9,10
 304 171 304 171 239 194 c 1,11,12
 208 161 208 161 196.5 124.5 c 128,-1,13
 185 88 185 88 185 28 c 0,0,1
350 590 m 0,14,15
 417 590 417 590 450 651 c 128,-1,16
 483 712 483 712 483 812 c 128,-1,17
 483 912 483 912 450 972.5 c 128,-1,18
 417 1033 417 1033 350 1033 c 0,19,20
 285 1033 285 1033 251 972 c 128,-1,21
 217 911 217 911 217 812 c 0,22,23
 217 712 217 712 251 651 c 128,-1,24
 285 590 285 590 350 590 c 0,14,15
350 464 m 0,25,26
 296 464 296 464 250 488 c 1,27,28
 226 445 226 445 226 403 c 0,29,30
 226 351 226 351 266.5 327.5 c 128,-1,31
 307 304 307 304 428 304 c 0,32,33
 580 304 580 304 632 233 c 128,-1,34
 684 162 684 162 684 53 c 0,35,36
 684 -23 684 -23 655 -92 c 128,-1,37
 626 -161 626 -161 559.5 -203.5 c 128,-1,38
 493 -246 493 -246 382 -246 c 0,39,40
 237 -246 237 -246 151 -182 c 128,-1,41
 65 -118 65 -118 65 10 c 0,42,43
 65 91 65 91 95.5 147.5 c 128,-1,44
 126 204 126 204 172 231 c 1,45,46
 118 279 118 279 118 366 c 0,47,48
 118 414 118 414 136 458.5 c 128,-1,49
 154 503 154 503 182 546 c 1,50,51
 106 641 106 641 106 812 c 0,52,53
 106 966 106 966 171.5 1062 c 128,-1,54
 237 1158 237 1158 350 1158 c 0,55,56
 466 1158 466 1158 530 1058 c 1,57,58
 569 1108 569 1108 612.5 1130.5 c 0,59,60
 646.842105263 1148.26315789 646.842105263 1148.26315789 690.844875346 1148.26315789 c 0,61,62
 702.578947368 1148.26315789 702.578947368 1148.26315789 715 1147 c 1,63,-1
 730 1019 l 1,64,65
 711.6 1021.4 711.6 1021.4 694.16 1021.4 c 0,66,67
 668 1021.4 668 1021.4 644 1016 c 0,68,69
 604 1007 604 1007 570 977 c 1,70,71
 593.04 905.96 593.04 905.96 593.04 819.2528 c 0,72,73
 593.04 815.64 593.04 815.64 593 812 c 0,74,75
 593 658 593 658 527.5 561 c 128,-1,76
 462 464 462 464 350 464 c 0,25,26
EndSplineSet
EndChar

StartChar: h
Encoding: 104 104 308
Width: 768
VWidth: 2441
GlyphClass: 2
Flags: HW
AnchorPoint: "Anchor-4" 222 1340 basechar 0
AnchorPoint: "Anchor-2" 427 0 basechar 0
AnchorPoint: "Anchor-0" 203 1624 basechar 0
LayerCount: 2
Fore
SplineSet
117 1624 m 1,0,-1
 273 1624 l 1,1,-1
 273 1607 l 1,2,3
 259 1593 259 1593 255.5 1575.5 c 128,-1,4
 252 1558 252 1558 252 1516 c 2,5,-1
 252 932 l 1,6,7
 298 1035 298 1035 362.5 1088.5 c 128,-1,8
 427 1142 427 1142 501 1142 c 0,9,10
 618 1142 618 1142 681.5 1040.5 c 128,-1,11
 745 939 745 939 745 676 c 2,12,-1
 745 0 l 1,13,-1
 610 0 l 1,14,-1
 610 671 l 2,15,16
 610 846 610 846 575 923.5 c 128,-1,17
 540 1001 540 1001 476 1001 c 0,18,19
 422 1001 422 1001 370.5 957 c 128,-1,20
 319 913 319 913 285.5 832.5 c 128,-1,21
 252 752 252 752 252 643 c 2,22,-1
 252 0 l 1,23,-1
 117 0 l 1,24,-1
 117 1624 l 1,0,-1
EndSplineSet
EndChar

StartChar: i
Encoding: 105 105 313
Width: 768
VWidth: 2441
GlyphClass: 2
Flags: HW
AnchorPoint: "Anchor-3" 594 0 basechar 0
AnchorPoint: "Anchor-2" 429 0 basechar 0
AnchorPoint: "Anchor-0" 429 1477 basechar 0
LayerCount: 2
Fore
SplineSet
166 0 m 1,0,-1
 166 137 l 1,1,-1
 366 137 l 1,2,-1
 366 979 l 1,3,-1
 175 979 l 1,4,-1
 175 1116 l 1,5,-1
 503 1116 l 1,6,-1
 503 137 l 1,7,-1
 685 137 l 1,8,-1
 685 0 l 1,9,-1
 166 0 l 1,0,-1
427 1367 m 0,10,11
 388 1367 388 1367 358.5 1399 c 128,-1,12
 329 1431 329 1431 329 1475 c 0,13,14
 329 1521 329 1521 357.5 1552.5 c 128,-1,15
 386 1584 386 1584 427 1584 c 0,16,17
 469 1584 469 1584 498 1551.5 c 128,-1,18
 527 1519 527 1519 527 1475 c 128,-1,19
 527 1431 527 1431 498 1399 c 128,-1,20
 469 1367 469 1367 427 1367 c 0,10,11
EndSplineSet
Substitution2: "'locl' Localized Forms in Latin lookup 18 subtable" i.loclTRK
Substitution2: "'locl' Localized Forms in Latin lookup 17 subtable" i.loclTRK
Substitution2: "'locl' Localized Forms in Latin lookup 16 subtable" i.loclTRK
Substitution2: "'locl' Localized Forms in Latin lookup 15 subtable" i.loclTRK
Substitution2: "'locl' Localized Forms in Latin lookup 14 subtable" i.loclTRK
Substitution2: "Single Substitution lookup 4 subtable" dotlessi
Substitution2: "Single Substitution lookup 3 subtable" dotlessi
AlternateSubs2: "'aalt' Access All Alternates in Latin lookup 1 subtable" dotlessi i.loclTRK
EndChar

StartChar: dotlessi
Encoding: 305 305 314
Width: 768
VWidth: 2441
GlyphClass: 2
Flags: HW
AnchorPoint: "Anchor-3" 594 0 basechar 0
AnchorPoint: "Anchor-2" 429 0 basechar 0
AnchorPoint: "Anchor-0" 429 1116 basechar 0
LayerCount: 2
Fore
SplineSet
166 0 m 1,0,-1
 166 137 l 1,1,-1
 366 137 l 1,2,-1
 366 979 l 1,3,-1
 175 979 l 1,4,-1
 175 1116 l 1,5,-1
 503 1116 l 1,6,-1
 503 137 l 1,7,-1
 685 137 l 1,8,-1
 685 0 l 1,9,-1
 166 0 l 1,0,-1
EndSplineSet
EndChar

StartChar: j
Encoding: 106 106 329
Width: 768
VWidth: 2363
GlyphClass: 2
Flags: HW
AnchorPoint: "Anchor-2" 407 -282 basechar 0
AnchorPoint: "Anchor-0" 529 1487 basechar 0
LayerCount: 2
Fore
SplineSet
307 -246 m 0,0,1
 241 -246 241 -246 177 -217 c 128,-1,2
 113 -188 113 -188 68 -131 c 1,3,-1
 140 -8 l 1,4,-1
 151 9 l 1,5,-1
 165 3 l 1,6,7
 172 -14 172 -14 175 -34.5 c 128,-1,8
 178 -55 178 -55 202 -84 c 1,9,10
 244 -120 244 -120 307 -120 c 0,11,12
 375 -120 375 -120 418 -46 c 128,-1,13
 461 28 461 28 461 181 c 2,14,-1
 461 1032 l 1,15,-1
 189 1032 l 1,16,-1
 189 1157 l 1,17,-1
 585 1157 l 1,18,-1
 585 190 l 2,19,20
 585 27 585 27 550.5 -69 c 128,-1,21
 516 -165 516 -165 454 -205.5 c 128,-1,22
 392 -246 392 -246 307 -246 c 0,0,1
527 1387 m 0,23,24
 491 1387 491 1387 464.5 1415.5 c 128,-1,25
 438 1444 438 1444 438 1484 c 0,26,27
 438 1526 438 1526 464 1555 c 128,-1,28
 490 1584 490 1584 527 1584 c 0,29,30
 565 1584 565 1584 591.5 1554.5 c 128,-1,31
 618 1525 618 1525 618 1484 c 0,32,33
 618 1444 618 1444 591.5 1415.5 c 128,-1,34
 565 1387 565 1387 527 1387 c 0,23,24
EndSplineSet
Substitution2: "Single Substitution lookup 4 subtable" uni0237
Substitution2: "Single Substitution lookup 3 subtable" uni0237
Substitution2: "'aalt' Access All Alternates in Latin lookup 0 subtable" uni0237
EndChar

StartChar: uni0237
Encoding: 567 567 330
Width: 768
VWidth: 2286
GlyphClass: 2
Flags: HW
AnchorPoint: "Anchor-2" 395 -281 basechar 0
AnchorPoint: "Anchor-0" 513 1116 basechar 0
LayerCount: 2
Fore
SplineSet
298 -246 m 0,0,1
 234 -246 234 -246 172 -218 c 128,-1,2
 110 -190 110 -190 66 -134 c 1,3,-1
 136 -15 l 1,4,-1
 147 2 l 1,5,-1
 160 -5 l 1,6,7
 166 -22 166 -22 169.5 -41 c 128,-1,8
 173 -60 173 -60 196 -89 c 1,9,10
 237 -124 237 -124 298 -124 c 0,11,12
 364 -124 364 -124 405.5 -52 c 128,-1,13
 447 20 447 20 447 168 c 2,14,-1
 447 995 l 1,15,-1
 183 995 l 1,16,-1
 183 1116 l 1,17,-1
 568 1116 l 1,18,-1
 568 177 l 2,19,20
 568 19 568 19 534.5 -74 c 128,-1,21
 501 -167 501 -167 440.5 -206.5 c 128,-1,22
 380 -246 380 -246 298 -246 c 0,0,1
EndSplineSet
EndChar

StartChar: k
Encoding: 107 107 332
Width: 768
VWidth: 2441
GlyphClass: 2
Flags: HW
AnchorPoint: "Anchor-2" 422 0 basechar 0
AnchorPoint: "Anchor-0" 173 1624 basechar 0
LayerCount: 2
Fore
SplineSet
337 542 m 1,0,-1
 242 408 l 1,1,-1
 240 0 l 1,2,-1
 103 0 l 1,3,-1
 103 1624 l 1,4,-1
 261 1624 l 1,5,-1
 261 1607 l 1,6,7
 247 1593 247 1593 243.5 1575.5 c 128,-1,8
 240 1558 240 1558 240 1516 c 2,9,-1
 240 601 l 1,10,-1
 615 1121 l 1,11,12
 659 1109 659 1109 715 1109 c 2,13,-1
 759 1109 l 1,14,-1
 435 654 l 1,15,-1
 815 0 l 1,16,-1
 654 -10 l 1,17,-1
 337 542 l 1,0,-1
EndSplineSet
EndChar

StartChar: kgreenlandic
Encoding: 312 312 334
Width: 768
VWidth: 2441
GlyphClass: 2
Flags: HW
AnchorPoint: "Anchor-2" 427 0 basechar 0
AnchorPoint: "Anchor-0" 179 1116 basechar 0
LayerCount: 2
Fore
SplineSet
337 542 m 1,0,-1
 242 408 l 1,1,-1
 240 0 l 1,2,-1
 103 0 l 1,3,-1
 103 1116 l 1,4,-1
 261 1116 l 1,5,-1
 261 1099 l 1,6,7
 247 1085 247 1085 243.5 1067.5 c 128,-1,8
 240 1050 240 1050 240 1009 c 2,9,-1
 240 601 l 1,10,-1
 615 1121 l 1,11,12
 659 1109 659 1109 715 1109 c 2,13,-1
 759 1109 l 1,14,-1
 435 654 l 1,15,-1
 815 0 l 1,16,-1
 654 -10 l 1,17,-1
 337 542 l 1,0,-1
EndSplineSet
EndChar

StartChar: l
Encoding: 108 108 335
Width: 768
VWidth: 2441
GlyphClass: 2
Flags: HW
AnchorPoint: "Anchor-4" 429 559 basechar 0
AnchorPoint: "Anchor-2" 429 0 basechar 0
AnchorPoint: "Anchor-1" 823 1116 basechar 0
AnchorPoint: "Anchor-0" 429 1624 basechar 0
LayerCount: 2
Fore
SplineSet
137 0 m 1,0,-1
 137 137 l 1,1,-1
 361 137 l 1,2,-1
 361 1487 l 1,3,-1
 147 1487 l 1,4,-1
 147 1624 l 1,5,-1
 498 1624 l 1,6,-1
 498 137 l 1,7,-1
 720 137 l 1,8,-1
 720 0 l 1,9,-1
 137 0 l 1,0,-1
EndSplineSet
EndChar

StartChar: ldot
Encoding: 320 320 339
Width: 768
VWidth: 2441
GlyphClass: 1
Flags: HW
LayerCount: 2
Fore
SplineSet
666 689 m 128,-1,1
 620 689 620 689 588.5 724 c 128,-1,2
 557 759 557 759 557 811 c 0,3,4
 557 860 557 860 589.5 895 c 128,-1,5
 622 930 622 930 666 930 c 128,-1,6
 710 930 710 930 743 894.5 c 128,-1,7
 776 859 776 859 776 811 c 0,8,9
 776 762 776 762 744 725.5 c 128,-1,0
 712 689 712 689 666 689 c 128,-1,1
117 0 m 1,10,-1
 119 137 l 1,11,-1
 315 137 l 1,12,-1
 315 1487 l 1,13,-1
 130 1487 l 1,14,-1
 130 1624 l 1,15,-1
 452 1624 l 1,16,-1
 452 137 l 1,17,-1
 703 137 l 1,18,-1
 703 0 l 1,19,-1
 117 0 l 1,10,-1
EndSplineSet
EndChar

StartChar: uni01C9
Encoding: 457 457 341
Width: 768
VWidth: 2368
GlyphClass: 1
Flags: HW
LayerCount: 2
Fore
SplineSet
387 -246 m 0,0,1
 318 -246 318 -246 262.5 -215 c 128,-1,2
 207 -184 207 -184 170 -128 c 1,3,-1
 245 5 l 1,4,5
 256 -10 256 -10 258.5 -22.5 c 128,-1,6
 261 -35 261 -35 272 -52 c 128,-1,7
 283 -69 283 -69 321 -95 c 0,8,9
 353 -115 353 -115 394 -115 c 0,10,11
 470 -115 470 -115 512.5 -48.5 c 128,-1,12
 555 18 555 18 555 182 c 2,13,-1
 555 1035 l 1,14,-1
 336 1035 l 1,15,-1
 336 1160 l 1,16,-1
 680 1160 l 1,17,-1
 680 190 l 2,18,19
 680 27 680 27 643 -67.5 c 128,-1,20
 606 -162 606 -162 539 -203 c 128,-1,21
 472 -244 472 -244 387 -246 c 0,0,1
600 1390 m 128,-1,23
 564 1390 564 1390 537 1418.5 c 128,-1,24
 510 1447 510 1447 510 1488 c 0,25,26
 510 1530 510 1530 536 1559 c 128,-1,27
 562 1588 562 1588 600 1588 c 0,28,29
 636 1588 636 1588 662.5 1558 c 128,-1,30
 689 1528 689 1528 689 1488 c 128,-1,31
 689 1448 689 1448 662.5 1419 c 128,-1,22
 636 1390 636 1390 600 1390 c 128,-1,23
29 141 m 1,32,-1
 32 267 l 1,33,-1
 127 267 l 1,34,-1
 127 1498 l 1,35,-1
 40 1498 l 1,36,-1
 40 1624 l 1,37,-1
 251 1624 l 1,38,-1
 251 267 l 1,39,-1
 439 267 l 1,40,-1
 439 141 l 1,41,-1
 29 141 l 1,32,-1
EndSplineSet
EndChar

StartChar: lslash
Encoding: 322 322 343
Width: 768
VWidth: 2441
GlyphClass: 1
Flags: HW
LayerCount: 2
Fore
SplineSet
135 0 m 1,0,-1
 137 137 l 1,1,-1
 359 137 l 1,2,-1
 359 683 l 1,3,-1
 232 617 l 1,4,-1
 232 778 l 1,5,-1
 359 845 l 1,6,-1
 359 1487 l 1,7,-1
 147 1487 l 1,8,-1
 147 1624 l 1,9,-1
 498 1624 l 1,10,-1
 498 906 l 1,11,-1
 647 986 l 1,12,-1
 647 818 l 1,13,-1
 498 743 l 1,14,-1
 498 137 l 1,15,-1
 720 137 l 1,16,-1
 720 0 l 1,17,-1
 135 0 l 1,0,-1
EndSplineSet
EndChar

StartChar: m
Encoding: 109 109 344
Width: 768
VWidth: 2441
GlyphClass: 2
Flags: HW
AnchorPoint: "Anchor-2" 429 0 basechar 0
AnchorPoint: "Anchor-0" 606 1116 basechar 0
LayerCount: 2
Fore
SplineSet
65 0 m 1,0,-1
 65 1116 l 1,1,-1
 197 1116 l 1,2,-1
 197 1006 l 1,3,4
 221 1067 221 1067 258.5 1104.5 c 128,-1,5
 296 1142 296 1142 342 1142 c 0,6,7
 393 1142 393 1142 429 1096 c 128,-1,8
 465 1050 465 1050 475 979 c 1,9,10
 496 1052 496 1052 544 1097 c 128,-1,11
 592 1142 592 1142 650 1142 c 0,12,13
 728 1142 728 1142 766.5 1064 c 0,14,15
 801.376470588 993.341176471 801.376470588 993.341176471 801.376470588 880.830588235 c 0,16,17
 801.376470588 869.141176471 801.376470588 869.141176471 801 857 c 1,18,-1
 801 0 l 1,19,-1
 669 0 l 1,20,-1
 669 792 l 2,21,22
 669 895 669 895 663 941.5 c 128,-1,23
 657 988 657 988 643.5 1003 c 128,-1,24
 630 1018 630 1018 609 1018 c 0,25,26
 577 1018 577 1018 552.5 974 c 128,-1,27
 528 930 528 930 514 865.5 c 128,-1,28
 500 801 500 801 500 737 c 2,29,-1
 500 0 l 1,30,-1
 366 0 l 1,31,-1
 366 776 l 2,32,33
 366 915 366 915 353 964 c 128,-1,34
 340 1013 340 1013 298 1013 c 0,35,36
 266 1013 266 1013 231.5 941 c 128,-1,37
 197 869 197 869 197 745 c 2,38,-1
 197 0 l 1,39,-1
 65 0 l 1,0,-1
EndSplineSet
EndChar

StartChar: n
Encoding: 110 110 346
Width: 768
VWidth: 2441
GlyphClass: 2
Flags: HW
AnchorPoint: "Anchor-2" 445 0 basechar 0
AnchorPoint: "Anchor-0" 454 1116 basechar 0
LayerCount: 2
Fore
SplineSet
114 0 m 1,0,-1
 114 1116 l 1,1,-1
 249 1116 l 1,2,-1
 249 932 l 1,3,4
 342 1142 342 1142 508 1142 c 0,5,6
 581 1142 581 1142 633 1103.5 c 128,-1,7
 685 1065 685 1065 715 966 c 128,-1,8
 745 867 745 867 745 691 c 2,9,-1
 745 0 l 1,10,-1
 610 0 l 1,11,-1
 610 685 l 2,12,13
 610 860 610 860 574 930.5 c 128,-1,14
 538 1001 538 1001 473 1001 c 0,15,16
 422 1001 422 1001 369.5 959.5 c 128,-1,17
 317 918 317 918 283 841 c 128,-1,18
 249 764 249 764 249 657 c 2,19,-1
 249 0 l 1,20,-1
 114 0 l 1,0,-1
EndSplineSet
EndChar

StartChar: eng
Encoding: 331 331 352
Width: 768
VWidth: 2288
GlyphClass: 1
Flags: HW
LayerCount: 2
Fore
SplineSet
395 -246 m 0,0,1
 313 -246 313 -246 251 -182 c 1,2,-1
 302 -50 l 1,3,4
 310 -52 310 -52 316.5 -68.5 c 128,-1,5
 323 -85 323 -85 339.5 -100 c 128,-1,6
 356 -115 356 -115 399 -115 c 0,7,8
 473 -115 473 -115 507 -25.5 c 128,-1,9
 541 64 541 64 541 230 c 2,10,-1
 541 726 l 2,11,12
 541 843 541 843 525 905.5 c 128,-1,13
 509 968 509 968 482 993 c 128,-1,14
 455 1018 455 1018 418 1018 c 0,15,16
 371 1018 371 1018 325.5 978 c 128,-1,17
 280 938 280 938 250 867 c 128,-1,18
 220 796 220 796 220 701 c 2,19,-1
 220 133 l 1,20,-1
 97 133 l 1,21,-1
 97 1119 l 1,22,-1
 220 1119 l 1,23,-1
 220 957 l 1,24,25
 302 1142 302 1142 440 1142 c 0,26,27
 500 1142 500 1142 549.5 1106.5 c 128,-1,28
 599 1071 599 1071 628.5 981.5 c 128,-1,29
 658 892 658 892 658 730 c 2,30,-1
 658 254 l 2,31,32
 658 -20 658 -20 585 -133 c 128,-1,33
 512 -246 512 -246 395 -246 c 0,0,1
EndSplineSet
EndChar

StartChar: o
Encoding: 111 111 355
Width: 768
VWidth: 2441
GlyphClass: 2
Flags: HW
AnchorPoint: "Anchor-4" 429 559 basechar 0
AnchorPoint: "Anchor-3" 491 24 basechar 0
AnchorPoint: "Anchor-2" 429 0 basechar 0
AnchorPoint: "Anchor-1" 615 1065 basechar 0
AnchorPoint: "Anchor-0" 429 1116 basechar 0
LayerCount: 2
Fore
SplineSet
429 117 m 0,0,1
 527 117 527 117 586 227 c 128,-1,2
 645 337 645 337 645 561 c 0,3,4
 645 787 645 787 586 895.5 c 128,-1,5
 527 1004 527 1004 429 1004 c 128,-1,6
 331 1004 331 1004 271.5 896.5 c 128,-1,7
 212 789 212 789 212 561 c 0,8,9
 212 337 212 337 270.5 227 c 128,-1,10
 329 117 329 117 429 117 c 0,0,1
429 -19 m 128,-1,12
 270 -19 270 -19 169 123.5 c 128,-1,13
 68 266 68 266 68 559 c 0,14,15
 68 855 68 855 169.5 997.5 c 128,-1,16
 271 1140 271 1140 429 1140 c 0,17,18
 588 1140 588 1140 688.5 997.5 c 128,-1,19
 789 855 789 855 789 559 c 0,20,21
 789 266 789 266 688.5 123.5 c 128,-1,11
 588 -19 588 -19 429 -19 c 128,-1,12
EndSplineSet
Substitution2: "Single Substitution lookup 29 subtable" ordmasculine
Substitution2: "'aalt' Access All Alternates in Latin lookup 0 subtable" ordmasculine
EndChar

StartChar: oslash
Encoding: 248 248 383
Width: 768
VWidth: 2441
GlyphClass: 2
Flags: HW
AnchorPoint: "Anchor-4" 429 559 basechar 0
AnchorPoint: "Anchor-3" 491 24 basechar 0
AnchorPoint: "Anchor-2" 429 0 basechar 0
AnchorPoint: "Anchor-1" 615 1065 basechar 0
AnchorPoint: "Anchor-0" 429 1116 basechar 0
LayerCount: 2
Fore
SplineSet
429 117 m 0,0,1
 527 117 527 117 586 227 c 128,-1,2
 645 337 645 337 645 561 c 0,3,4
 645 754 645 754 598 867 c 1,5,-1
 322 159 l 1,6,7
 366 117 366 117 429 117 c 0,0,1
212 561 m 0,8,9
 212 380 212 380 252 271 c 1,10,-1
 525 969 l 1,11,12
 483 1004 483 1004 429 1004 c 0,13,14
 331 1004 331 1004 271.5 895.5 c 128,-1,15
 212 787 212 787 212 561 c 0,8,9
207 -130 m 1,16,-1
 112 -91 l 1,17,-1
 186 100 l 1,18,19
 130 170 130 170 99 285.5 c 128,-1,20
 68 401 68 401 68 559 c 0,21,22
 68 855 68 855 168 997.5 c 128,-1,23
 268 1140 268 1140 429 1140 c 0,24,25
 510 1140 510 1140 576 1104 c 1,26,-1
 638 1258 l 1,27,-1
 734 1216 l 1,28,-1
 664 1030 l 1,29,30
 722 960 722 960 755.5 842.5 c 128,-1,31
 789 725 789 725 789 559 c 0,32,33
 789 266 789 266 689 123.5 c 128,-1,34
 589 -19 589 -19 429 -19 c 0,35,36
 338 -19 338 -19 268 24 c 1,37,-1
 207 -130 l 1,16,-1
EndSplineSet
EndChar

StartChar: oe
Encoding: 339 339 389
Width: 768
VWidth: 2441
GlyphClass: 1
Flags: HW
LayerCount: 2
Fore
SplineSet
235 114 m 0,0,1
 265 114 265 114 286 143.5 c 128,-1,2
 307 173 307 173 307 217 c 0,3,4
 307 222 307 222 306 235.5 c 128,-1,5
 305 249 305 249 302 273 c 0,6,7
 292 359 292 359 289 437 c 128,-1,8
 286 515 286 515 286 581 c 0,9,10
 286 723 286 723 293 795 c 128,-1,11
 300 867 300 867 300 883 c 0,12,13
 300 929 300 929 282 964 c 128,-1,14
 264 999 264 999 233 999 c 0,15,16
 188 999 188 999 149.5 908.5 c 128,-1,17
 111 818 111 818 111 583 c 0,18,19
 111 327 111 327 144 220.5 c 128,-1,20
 177 114 177 114 235 114 c 0,0,1
399 678 m 1,21,-1
 623 678 l 1,22,23
 623 851 623 851 599 931 c 128,-1,24
 575 1011 575 1011 511 1011 c 0,25,26
 453 1011 453 1011 426 924 c 128,-1,27
 399 837 399 837 399 678 c 1,21,-1
549 -30 m 128,-1,29
 444 -30 444 -30 371 61 c 1,30,31
 309 -27 309 -27 223 -27 c 0,32,33
 184 -27 184 -27 145.5 -3 c 128,-1,34
 107 21 107 21 73.5 84 c 128,-1,35
 40 147 40 147 19.5 261.5 c 128,-1,36
 -1 376 -1 376 -1 557 c 0,37,38
 -1 779 -1 779 30.5 905.5 c 128,-1,39
 62 1032 62 1032 114.5 1084.5 c 128,-1,40
 167 1137 167 1137 233 1137 c 0,41,42
 323 1137 323 1137 376 1035 c 1,43,44
 431.461538462 1137.00961538 431.461538462 1137.00961538 524.195821006 1137.00961538 c 0,0,0
 525.096153846 1137.00961538 525.096153846 1137.00961538 526 1137 c 0,45,46
 620 1137 620 1137 674 1036 c 128,-1,47
 728 935 728 935 728 691 c 2,48,-1
 728 540 l 1,49,-1
 397 540 l 1,50,51
 401 367 401 367 416.5 273 c 128,-1,52
 432 179 432 179 463 143 c 128,-1,53
 494 107 494 107 537 107 c 0,54,55
 584 107 584 107 619.5 134 c 128,-1,56
 655 161 655 161 680 207 c 1,57,-1
 735 103 l 1,58,28
 654 -30 654 -30 549 -30 c 128,-1,29
EndSplineSet
EndChar

StartChar: p
Encoding: 112 112 390
Width: 768
VWidth: 2304
GlyphClass: 2
Flags: HW
AnchorPoint: "Anchor-2" 413 119 basechar 0
AnchorPoint: "Anchor-0" 413 1118 basechar 0
LayerCount: 2
Fore
SplineSet
402 222 m 0,0,1
 450 222 450 222 492 250.5 c 128,-1,2
 534 279 534 279 560 365 c 128,-1,3
 586 451 586 451 586 620 c 0,4,5
 586 841 586 841 542.5 925 c 128,-1,6
 499 1009 499 1009 413 1012 c 0,7,8
 411.34 1012.04 411.34 1012.04 409.6896 1012.04 c 0,9,10
 328.82 1012.04 328.82 1012.04 271 916 c 0,11,12
 212 818 212 818 212 585 c 0,13,14
 214 389 214 389 265.5 305.5 c 128,-1,15
 317 222 317 222 402 222 c 0,0,1
90 -246 m 1,16,-1
 90 1118 l 1,17,-1
 212 1118 l 1,18,-1
 212 947 l 1,19,20
 237 1037 237 1037 293.5 1088.5 c 128,-1,21
 350 1140 350 1140 424 1140 c 0,22,23
 505 1140 505 1140 569.5 1096 c 128,-1,24
 634 1052 634 1052 673.5 941 c 128,-1,25
 713 830 713 830 713 626 c 0,26,27
 713 430 713 430 673.5 313 c 128,-1,28
 634 196 634 196 567.5 144 c 128,-1,29
 501 92 501 92 420 92 c 0,30,31
 355 92 355 92 299.5 134 c 128,-1,32
 244 176 244 176 212 250 c 1,33,-1
 212 -246 l 1,34,-1
 90 -246 l 1,16,-1
EndSplineSet
EndChar

StartChar: thorn
Encoding: 254 254 391
Width: 768
VWidth: 2374
GlyphClass: 1
Flags: HW
LayerCount: 2
Fore
SplineSet
414 235 m 0,0,1
 463 235 463 235 506 264.5 c 128,-1,2
 549 294 549 294 575.5 382 c 128,-1,3
 602 470 602 470 602 644 c 0,4,5
 602 871 602 871 557 957.5 c 128,-1,6
 512 1044 512 1044 425 1046 c 0,7,8
 423.31372549 1046.03921569 423.31372549 1046.03921569 421.637254902 1046.03921569 c 0,0,0
 337.81372549 1046.03921569 337.81372549 1046.03921569 278.5 948 c 128,-1,9
 218 848 218 848 218 608 c 0,10,11
 220 406 220 406 273 320.5 c 128,-1,12
 326 235 326 235 414 235 c 0,0,1
92 1624 m 1,13,-1
 238 1624 l 1,14,-1
 238 1608 l 1,15,16
 225 1595 225 1595 221.5 1579 c 128,-1,17
 218 1563 218 1563 218 1525 c 2,18,-1
 218 981 l 1,19,20
 243 1073 243 1073 301.5 1125.5 c 128,-1,21
 360 1178 360 1178 436 1178 c 0,22,23
 519 1178 519 1178 585.5 1133 c 128,-1,24
 652 1088 652 1088 692.5 974 c 128,-1,25
 733 860 733 860 733 650 c 0,26,27
 733 448 733 448 692.5 328 c 128,-1,28
 652 208 652 208 583.5 155 c 128,-1,29
 515 102 515 102 431 102 c 0,30,31
 364 102 364 102 307.5 144.5 c 128,-1,32
 251 187 251 187 218 264 c 1,33,-1
 218 -246 l 1,34,-1
 92 -246 l 1,35,-1
 92 1624 l 1,13,-1
EndSplineSet
EndChar

StartChar: q
Encoding: 113 113 392
Width: 768
VWidth: 2305
GlyphClass: 1
Flags: HW
LayerCount: 2
Fore
SplineSet
372 230 m 0,0,1
 451 230 451 230 504 329 c 128,-1,2
 557 428 557 428 557 647 c 0,3,4
 557 853 557 853 507 938 c 128,-1,5
 457 1023 457 1023 382 1023 c 0,6,7
 292 1023 292 1023 239 932 c 128,-1,8
 186 841 186 841 186 629 c 0,9,10
 186 230 186 230 372 230 c 0,0,1
560 -246 m 1,11,-1
 560 261 l 1,12,13
 498.473684211 97.9064327485 498.473684211 97.9064327485 358.738757224 97.9064327485 c 0,0,0
 355.391812865 97.9064327485 355.391812865 97.9064327485 352 98 c 0,14,15
 219 100 219 100 140 234 c 128,-1,16
 61 368 61 368 61 622 c 0,17,18
 61 821 61 821 102.5 936 c 128,-1,19
 144 1051 144 1051 214 1098.5 c 128,-1,20
 284 1146 284 1146 367 1146 c 0,21,22
 444 1146 444 1146 492 1097 c 128,-1,23
 540 1048 540 1048 564 968 c 1,24,-1
 564 1119 l 1,25,-1
 682 1119 l 1,26,-1
 682 -246 l 1,27,-1
 560 -246 l 1,11,-1
EndSplineSet
EndChar

StartChar: r
Encoding: 114 114 393
Width: 768
VWidth: 2441
GlyphClass: 2
Flags: HW
AnchorPoint: "Anchor-2" 459 0 basechar 0
AnchorPoint: "Anchor-0" 505 1118 basechar 0
LayerCount: 2
Fore
SplineSet
166 1116 m 1,0,-1
 315 1116 l 1,1,-1
 312 923 l 1,2,3
 347 1033 347 1033 421.5 1087.5 c 128,-1,4
 496 1142 496 1142 576 1142 c 0,5,6
 706 1142 706 1142 789 1020 c 1,7,-1
 734 883 l 1,8,-1
 727 859 l 1,9,-1
 710 867 l 1,10,11
 700 886 700 886 697 909 c 128,-1,12
 694 932 694 932 666 962 c 1,13,14
 615 1006 615 1006 566 1006 c 0,15,16
 508 1006 508 1006 449.5 961 c 128,-1,17
 391 916 391 916 351.5 824 c 128,-1,18
 312 732 312 732 312 591 c 2,19,-1
 312 -2 l 1,20,-1
 166 -2 l 1,21,-1
 166 1116 l 1,0,-1
EndSplineSet
EndChar

StartChar: uni027B
Encoding: 635 635 399
Width: 768
VWidth: 2281
GlyphClass: 1
Flags: HW
LayerCount: 2
Fore
SplineSet
594 -246 m 0,0,1
 551 -246 551 -246 504 -220.5 c 128,-1,2
 457 -195 457 -195 426 -132 c 128,-1,3
 395 -69 395 -69 395 46 c 2,4,-1
 397 293 l 1,5,6
 369 201 369 201 316.5 155.5 c 128,-1,7
 264 110 264 110 199 110 c 0,8,9
 152 110 152 110 114.5 130.5 c 128,-1,10
 77 151 77 151 38 205 c 1,11,-1
 83 325 l 1,12,-1
 90 347 l 1,13,-1
 98 343 l 1,14,15
 104 326 104 326 107.5 309.5 c 128,-1,16
 111 293 111 293 129 273 c 0,17,18
 159 243 159 243 208 243 c 0,19,20
 277 243 277 243 336 327 c 128,-1,21
 395 411 395 411 395 596 c 2,22,-1
 395 1118 l 1,23,-1
 522 1118 l 1,24,-1
 522 46 l 2,25,26
 522 -32 522 -32 546.5 -73 c 128,-1,27
 571 -114 571 -114 612 -114 c 0,28,29
 627 -114 627 -114 642 -109 c 128,-1,30
 657 -104 657 -104 670 -92 c 0,31,32
 683 -82 683 -82 685 -68.5 c 128,-1,33
 687 -55 687 -55 696 -51 c 1,34,-1
 734 -178 l 1,35,36
 682 -246 682 -246 594 -246 c 0,0,1
EndSplineSet
EndChar

StartChar: uni024D
Encoding: 589 589 402
Width: 768
VWidth: 2441
GlyphClass: 2
Flags: HW
AnchorPoint: "Anchor-2" 459 0 basechar 0
AnchorPoint: "Anchor-0" 505 1118 basechar 0
LayerCount: 2
Fore
SplineSet
61 420 m 1,0,-1
 61 557 l 1,1,-1
 166 557 l 1,2,-1
 166 1116 l 1,3,-1
 315 1116 l 1,4,-1
 312 923 l 1,5,6
 347 1033 347 1033 421.5 1087.5 c 128,-1,7
 496 1142 496 1142 576 1142 c 0,8,9
 706 1142 706 1142 789 1020 c 1,10,-1
 734 883 l 1,11,-1
 727 859 l 1,12,-1
 710 867 l 1,13,14
 700 886 700 886 697 909 c 128,-1,15
 694 932 694 932 666 962 c 1,16,17
 615 1006 615 1006 566 1006 c 0,18,19
 508 1006 508 1006 449.5 961 c 128,-1,20
 391 916 391 916 351.5 824 c 128,-1,21
 312 732 312 732 312 591 c 2,22,-1
 312 557 l 1,23,-1
 522 557 l 1,24,-1
 522 420 l 1,25,-1
 312 420 l 1,26,-1
 312 -2 l 1,27,-1
 166 -2 l 1,28,-1
 166 420 l 1,29,-1
 61 420 l 1,0,-1
EndSplineSet
EndChar

StartChar: s
Encoding: 115 115 403
Width: 768
VWidth: 2441
GlyphClass: 1
Flags: HW
LayerCount: 2
Fore
SplineSet
415 -24 m 0,0,1
 301 -24 301 -24 221.5 13.5 c 128,-1,2
 142 51 142 51 86 112 c 1,3,-1
 156 256 l 1,4,-1
 166 278 l 1,5,-1
 181 271 l 1,6,7
 188 252 188 252 193 229.5 c 128,-1,8
 198 207 198 207 219 179 c 1,9,10
 258 144 258 144 306 124.5 c 128,-1,11
 354 105 354 105 417 105 c 0,12,13
 505 105 505 105 555.5 157.5 c 128,-1,14
 606 210 606 210 606 300 c 0,15,16
 606 370 606 370 567.5 415.5 c 128,-1,17
 529 461 529 461 424 510 c 0,18,19
 285 573 285 573 204.5 650 c 128,-1,20
 124 727 124 727 124 857 c 0,21,22
 124 983 124 983 198.5 1062.5 c 128,-1,23
 273 1142 273 1142 424 1142 c 0,24,25
 541 1142 541 1142 615 1103.5 c 128,-1,26
 689 1065 689 1065 737 981 c 1,27,-1
 662 864 l 1,28,-1
 650 843 l 1,29,-1
 634 852 l 1,30,31
 629 871 629 871 627 894.5 c 128,-1,32
 625 918 625 918 603 952 c 1,33,34
 568 987 568 987 523 1003.5 c 128,-1,35
 478 1020 478 1020 432 1020 c 0,36,37
 349 1020 349 1020 306 977.5 c 128,-1,38
 263 935 263 935 263 871 c 0,39,40
 263 798 263 798 305 752 c 128,-1,41
 347 706 347 706 476 645 c 0,42,43
 571 596 571 596 631 555.5 c 128,-1,44
 691 515 691 515 718 461.5 c 128,-1,45
 745 408 745 408 745 324 c 0,46,47
 745 156 745 156 658 66 c 128,-1,48
 571 -24 571 -24 415 -24 c 0,0,1
EndSplineSet
EndChar

StartChar: germandbls
Encoding: 223 223 414
Width: 768
VWidth: 2441
GlyphClass: 1
Flags: HW
LayerCount: 2
Fore
SplineSet
489 -24 m 0,0,1
 440 -24 440 -24 391 -8.5 c 128,-1,2
 342 7 342 7 305 42 c 1,3,-1
 364 175 l 1,4,5
 415 117 415 117 489 117 c 0,6,7
 538 117 538 117 576.5 164.5 c 128,-1,8
 615 212 615 212 638.5 292.5 c 128,-1,9
 662 373 662 373 662 471 c 0,10,11
 662 606 662 606 608 699 c 128,-1,12
 554 792 554 792 417 792 c 2,13,-1
 366 792 l 1,14,-1
 366 925 l 1,15,-1
 429 925 l 2,16,17
 490 925 490 925 536.5 993.5 c 128,-1,18
 583 1062 583 1062 583 1197 c 0,19,20
 583 1321 583 1321 538.5 1407.5 c 128,-1,21
 494 1494 494 1494 412 1494 c 0,22,23
 321 1494 321 1494 275.5 1367 c 128,-1,24
 230 1240 230 1240 230 1037 c 2,25,-1
 230 0 l 1,26,-1
 88 0 l 1,27,-1
 88 1032 l 2,28,29
 88 1251 88 1251 128 1383.5 c 128,-1,30
 168 1516 168 1516 238 1574.5 c 128,-1,31
 308 1633 308 1633 396 1633 c 0,32,33
 540 1633 540 1633 632.5 1518.5 c 128,-1,34
 725 1404 725 1404 725 1204 c 0,35,36
 725 1099 725 1099 692 1011 c 128,-1,37
 659 923 659 923 596 876 c 1,38,39
 691 834 691 834 746 729.5 c 128,-1,40
 801 625 801 625 801 442 c 0,41,42
 801 218 801 218 713.5 97 c 128,-1,43
 626 -24 626 -24 489 -24 c 0,0,1
EndSplineSet
EndChar

StartChar: t
Encoding: 116 116 415
Width: 768
VWidth: 2441
GlyphClass: 2
Flags: HW
AnchorPoint: "Anchor-4" 356 762 basechar 0
AnchorPoint: "Anchor-2" 449 0 basechar 0
AnchorPoint: "Anchor-1" 522 1116 basechar 0
AnchorPoint: "Anchor-0" 398 1428 basechar 0
LayerCount: 2
Fore
SplineSet
517 -24 m 0,0,1
 417 -24 417 -24 362.5 35.5 c 128,-1,2
 308 95 308 95 288 233 c 0,3,4
 272 343.4 272 343.4 272 515.88 c 0,5,6
 272 559 272 559 273 606 c 2,7,-1
 284 955 l 1,8,-1
 112 955 l 1,9,-1
 112 1091 l 1,10,-1
 286 1091 l 1,11,-1
 296 1402 l 1,12,-1
 440 1423 l 1,13,-1
 464 1428 l 1,14,-1
 466 1411 l 1,15,16
 454 1392 454 1392 445.5 1375 c 128,-1,17
 437 1358 437 1358 435 1316 c 2,18,-1
 422 1091 l 1,19,-1
 689 1091 l 1,20,-1
 689 955 l 1,21,-1
 424 955 l 1,22,-1
 412 594 l 2,23,24
 409.56097561 529.12195122 409.56097561 529.12195122 409.56097561 473.851279001 c 0,25,26
 409.56097561 302.512195122 409.56097561 302.512195122 433 223.5 c 0,27,28
 464 119 464 119 540 119 c 0,29,30
 596 119 596 119 642.5 153.5 c 128,-1,31
 689 188 689 188 727 224 c 1,32,-1
 767 91 l 1,33,34
 709 28 709 28 646 2 c 128,-1,35
 583 -24 583 -24 517 -24 c 0,0,1
EndSplineSet
EndChar

StartChar: tbar
Encoding: 359 359 416
Width: 768
VWidth: 2441
GlyphClass: 2
Flags: HW
AnchorPoint: "Anchor-4" 356 762 basechar 0
AnchorPoint: "Anchor-2" 449 0 basechar 0
AnchorPoint: "Anchor-1" 522 1116 basechar 0
AnchorPoint: "Anchor-0" 398 1428 basechar 0
LayerCount: 2
Fore
SplineSet
517 -24 m 0,0,1
 422 -24 422 -24 367 29.5 c 128,-1,2
 312 83 312 83 291.5 206 c 0,3,4
 272.822222222 318.066666667 272.822222222 318.066666667 272.822222222 503.184197531 c 0,5,6
 272.822222222 521.244444444 272.822222222 521.244444444 273 540 c 1,7,-1
 105 540 l 1,8,-1
 105 676 l 1,9,-1
 275 676 l 1,10,-1
 284 955 l 1,11,-1
 112 955 l 1,12,-1
 112 1091 l 1,13,-1
 286 1091 l 1,14,-1
 296 1402 l 1,15,-1
 440 1423 l 1,16,-1
 464 1428 l 1,17,-1
 466 1411 l 1,18,19
 454 1392 454 1392 445.5 1375 c 128,-1,20
 437 1358 437 1358 435 1316 c 2,21,-1
 422 1091 l 1,22,-1
 689 1091 l 1,23,-1
 689 955 l 1,24,-1
 424 955 l 1,25,-1
 415 676 l 1,26,-1
 666 676 l 1,27,-1
 666 540 l 1,28,-1
 410 540 l 1,29,30
 409.315068493 507.534246575 409.315068493 507.534246575 409.315068493 477.789453931 c 0,31,32
 409.315068493 290.397260274 409.315068493 290.397260274 436.5 211 c 0,33,34
 468 119 468 119 540 119 c 0,35,36
 596 119 596 119 642.5 153.5 c 128,-1,37
 689 188 689 188 727 224 c 1,38,-1
 767 91 l 1,39,40
 709 28 709 28 646 2 c 128,-1,41
 583 -24 583 -24 517 -24 c 0,0,1
EndSplineSet
EndChar

StartChar: u
Encoding: 117 117 423
Width: 768
VWidth: 2441
GlyphClass: 2
Flags: HW
AnchorPoint: "Anchor-3" 647 0 basechar 0
AnchorPoint: "Anchor-2" 391 0 basechar 0
AnchorPoint: "Anchor-1" 734 1116 basechar 0
AnchorPoint: "Anchor-0" 422 1116 basechar 0
LayerCount: 2
Fore
SplineSet
380 -27 m 0,0,1
 294 -27 294 -27 233.5 18 c 128,-1,2
 173 63 173 63 141.5 177 c 128,-1,3
 110 291 110 291 110 494 c 2,4,-1
 112 1116 l 1,5,-1
 254 1116 l 1,6,-1
 254 494 l 2,7,8
 254 324 254 324 275 241.5 c 128,-1,9
 296 159 296 159 331 134.5 c 128,-1,10
 366 110 366 110 410 110 c 0,11,12
 485 110 485 110 541.5 205 c 128,-1,13
 598 300 598 300 598 501 c 2,14,-1
 598 1116 l 1,15,-1
 740 1116 l 1,16,-1
 740 173 l 2,17,18
 740 129 740 129 742.5 86.5 c 128,-1,19
 745 44 745 44 757 0 c 1,20,-1
 622 0 l 1,21,22
 610 42 610 42 606.5 78 c 128,-1,23
 603 114 603 114 603 156 c 1,24,25
 571 73 571 73 516 23 c 128,-1,26
 461 -27 461 -27 380 -27 c 0,0,1
EndSplineSet
EndChar

StartChar: v
Encoding: 118 118 446
Width: 768
VWidth: 2441
GlyphClass: 2
Flags: HW
AnchorPoint: "Anchor-2" 429 0 basechar 0
AnchorPoint: "Anchor-0" 429 1116 basechar 0
LayerCount: 2
Fore
SplineSet
368 0 m 1,0,-1
 70 1116 l 1,1,-1
 212 1116 l 1,2,-1
 437 259 l 1,3,-1
 552 654 l 2,4,5
 591 789 591 789 612.5 903.5 c 128,-1,6
 634 1018 634 1018 647 1116 c 1,7,-1
 781 1116 l 1,8,9
 767 1013 767 1013 740 891 c 128,-1,10
 713 769 713 769 671 627 c 2,11,-1
 491 0 l 1,12,-1
 368 0 l 1,0,-1
EndSplineSet
EndChar

StartChar: w
Encoding: 119 119 447
Width: 768
VWidth: 2441
GlyphClass: 2
Flags: HW
AnchorPoint: "Anchor-2" 395 0 basechar 0
AnchorPoint: "Anchor-0" 395 1116 basechar 0
LayerCount: 2
Fore
SplineSet
166 -2 m 1,0,-1
 25 1116 l 1,1,-1
 145 1116 l 1,2,-1
 248 259 l 1,3,-1
 352 952 l 1,4,-1
 455 952 l 1,5,-1
 585 261 l 1,6,7
 617 594 617 594 628.5 791 c 128,-1,8
 640 988 640 988 640 1079 c 2,9,-1
 640 1116 l 1,10,-1
 761 1116 l 1,11,12
 739 832 739 832 712 553.5 c 128,-1,13
 685 275 685 275 649 -2 c 1,14,-1
 513 -2 l 1,15,-1
 405 664 l 1,16,-1
 294 -2 l 1,17,-1
 166 -2 l 1,0,-1
EndSplineSet
EndChar

StartChar: x
Encoding: 120 120 452
Width: 768
VWidth: 2441
GlyphClass: 2
Flags: HW
AnchorPoint: "Anchor-2" 427 0 basechar 0
AnchorPoint: "Anchor-0" 427 1116 basechar 0
LayerCount: 2
Fore
SplineSet
81 0 m 1,0,-1
 349 566 l 1,1,-1
 86 1116 l 1,2,-1
 230 1116 l 1,3,-1
 424 718 l 1,4,-1
 610 1116 l 1,5,-1
 745 1116 l 1,6,-1
 498 573 l 1,7,-1
 778 0 l 1,8,-1
 629 0 l 1,9,-1
 424 420 l 1,10,-1
 230 0 l 1,11,-1
 81 0 l 1,0,-1
EndSplineSet
EndChar

StartChar: y
Encoding: 121 121 453
Width: 768
VWidth: 2286
GlyphClass: 2
Flags: HW
AnchorPoint: "Anchor-2" 566 129 basechar 0
AnchorPoint: "Anchor-0" 389 1116 basechar 0
LayerCount: 2
Fore
SplineSet
198 -246 m 0,0,1
 101 -246 101 -246 39 -162 c 1,2,-1
 86 -56 l 1,3,-1
 97 -35 l 1,4,-1
 110 -44 l 1,5,6
 116 -61 116 -61 124 -78 c 128,-1,7
 132 -95 132 -95 158 -116 c 1,8,9
 182 -124 182 -124 206 -126 c 0,10,11
 266 -126 266 -126 292.5 -58 c 128,-1,12
 319 10 319 10 350 142 c 1,13,-1
 350 144 l 1,14,-1
 74 1116 l 1,15,-1
 203 1116 l 1,16,-1
 404 378 l 1,17,-1
 482 723 l 2,18,19
 506 822 506 822 526 919.5 c 128,-1,20
 546 1017 546 1017 554 1116 c 1,21,-1
 680 1116 l 1,22,23
 669 1017 669 1017 645.5 915 c 128,-1,24
 622 813 622 813 598 712 c 2,25,-1
 425 18 l 2,26,27
 388 -126 388 -126 330 -186 c 128,-1,28
 272 -246 272 -246 198 -246 c 0,0,1
EndSplineSet
EndChar

StartChar: z
Encoding: 122 122 463
Width: 768
VWidth: 2441
GlyphClass: 2
Flags: HW
AnchorPoint: "Anchor-2" 464 0 basechar 0
AnchorPoint: "Anchor-0" 464 1116 basechar 0
LayerCount: 2
Fore
SplineSet
86 110 m 1,0,-1
 561 974 l 1,1,-1
 122 974 l 1,2,-1
 122 1116 l 1,3,-1
 727 1116 l 1,4,-1
 727 1006 l 1,5,-1
 261 139 l 1,6,-1
 662 139 l 2,7,8
 704 139 704 139 720.5 144 c 128,-1,9
 737 149 737 149 752 163 c 1,10,-1
 769 163 l 1,11,-1
 769 0 l 1,12,-1
 86 0 l 1,13,-1
 86 110 l 1,0,-1
EndSplineSet
EndChar

StartChar: u.i
Encoding: 65539 -1 468
Width: 768
VWidth: 2441
GlyphClass: 2
Flags: HW
AnchorPoint: "Anchor-3" 594 0 basechar 0
AnchorPoint: "Anchor-2" 352 0 basechar 0
AnchorPoint: "Anchor-1" 652 1116 basechar 0
AnchorPoint: "Anchor-0" 361 1116 basechar 0
LayerCount: 2
Fore
SplineSet
324 -27 m 0,0,1
 243 -27 243 -27 186.5 18 c 128,-1,2
 130 63 130 63 99 177 c 128,-1,3
 68 291 68 291 68 494 c 2,4,-1
 70 1116 l 1,5,-1
 205 1116 l 1,6,-1
 205 494 l 2,7,8
 205 324 205 324 224.5 241.5 c 128,-1,9
 244 159 244 159 278 134.5 c 128,-1,10
 312 110 312 110 354 110 c 0,11,12
 424 110 424 110 478 205 c 128,-1,13
 532 300 532 300 532 501 c 2,14,-1
 532 1116 l 1,15,-1
 666 1116 l 1,16,-1
 666 173 l 2,17,18
 666 129 666 129 668.5 86.5 c 128,-1,19
 671 44 671 44 683 0 c 1,20,-1
 554 0 l 1,21,22
 542 42 542 42 540 78 c 128,-1,23
 538 114 538 114 538 156 c 1,24,25
 508 73 508 73 455.5 23 c 128,-1,26
 403 -27 403 -27 324 -27 c 0,0,1
EndSplineSet
EndChar

StartChar: r.serif
Encoding: 65540 -1 469
Width: 768
VWidth: 2441
GlyphClass: 1
Flags: HW
LayerCount: 2
Fore
SplineSet
119 -2 m 1,0,-1
 119 130 l 1,1,-1
 219 130 l 1,2,-1
 219 979 l 1,3,-1
 124 979 l 1,4,-1
 124 1116 l 1,5,-1
 368 1116 l 1,6,-1
 364 918 l 1,7,8
 401 1018 401 1018 464 1079 c 128,-1,9
 527 1140 527 1140 613 1140 c 0,10,11
 730 1140 730 1140 813 1020 c 1,12,-1
 757 852 l 1,13,14
 740 857 740 857 730 880.5 c 128,-1,15
 720 904 720 904 707 930.5 c 128,-1,16
 694 957 694 957 667 977 c 128,-1,17
 640 997 640 997 587 997 c 0,18,19
 533 997 533 997 481 935.5 c 128,-1,20
 429 874 429 874 396.5 775 c 128,-1,21
 364 676 364 676 364 561 c 2,22,-1
 364 130 l 1,23,-1
 517 130 l 1,24,-1
 517 -2 l 1,25,-1
 119 -2 l 1,0,-1
EndSplineSet
EndChar

StartChar: ordfeminine
Encoding: 170 170 470
Width: 768
VWidth: 2441
GlyphClass: 1
Flags: HW
LayerCount: 2
Fore
SplineSet
130 513 m 1,0,-1
 727 513 l 1,1,-1
 727 389 l 1,2,-1
 130 389 l 1,3,-1
 130 513 l 1,0,-1
284 888 m 0,4,5
 284 815 284 815 313 781 c 128,-1,6
 342 747 342 747 389 747 c 0,7,8
 552 747 552 747 561 1057 c 1,9,10
 512 1064 512 1064 468 1065 c 0,11,12
 380 1065 380 1065 332 1025.5 c 128,-1,13
 284 986 284 986 284 888 c 0,4,5
371 632 m 0,14,15
 276 632 276 632 222 703 c 128,-1,16
 168 774 168 774 168 879 c 0,17,18
 168 1040 168 1040 251.5 1109.5 c 128,-1,19
 335 1179 335 1179 464 1179 c 0,20,21
 503 1179 503 1179 559 1169 c 1,22,23
 554 1313 554 1313 521.5 1363.5 c 128,-1,24
 489 1414 489 1414 410 1414 c 0,25,26
 329 1414 329 1414 263 1338 c 1,27,-1
 207 1431 l 1,28,29
 292.173076923 1533.00961538 292.173076923 1533.00961538 417.561482988 1533.00961538 c 0,0,0
 418.778846154 1533.00961538 418.778846154 1533.00961538 420 1533 c 0,30,31
 503 1533 503 1533 559 1498 c 128,-1,32
 615 1463 615 1463 643 1372 c 128,-1,33
 671 1281 671 1281 671 1113 c 2,34,-1
 671 652 l 1,35,-1
 557 652 l 1,36,-1
 557 771 l 1,37,38
 522 685 522 685 472 658.5 c 128,-1,39
 422 632 422 632 371 632 c 0,14,15
EndSplineSet
EndChar

StartChar: ordmasculine
Encoding: 186 186 471
Width: 768
VWidth: 2441
GlyphClass: 1
Flags: HW
LayerCount: 2
Fore
SplineSet
130 513 m 1,0,-1
 727 513 l 1,1,-1
 727 389 l 1,2,-1
 130 389 l 1,3,-1
 130 513 l 1,0,-1
429 755 m 0,4,5
 497 755 497 755 536.5 835.5 c 128,-1,6
 576 916 576 916 576 1084 c 0,7,8
 576 1259 576 1259 536 1337.5 c 128,-1,9
 496 1416 496 1416 429 1416 c 0,10,11
 363 1416 363 1416 322 1338 c 128,-1,12
 281 1260 281 1260 281 1084 c 0,13,14
 281 916 281 916 320 835.5 c 128,-1,15
 359 755 359 755 429 755 c 0,4,5
429 638 m 0,16,17
 310 638 310 638 234.5 744 c 128,-1,18
 159 850 159 850 159 1081 c 0,19,20
 159 1318 159 1318 234.5 1425.5 c 128,-1,21
 310 1533 310 1533 429 1533 c 0,22,23
 546 1533 546 1533 621 1425.5 c 128,-1,24
 696 1318 696 1318 696 1081 c 0,25,26
 696 849 696 849 621 743.5 c 128,-1,27
 546 638 546 638 429 638 c 0,16,17
EndSplineSet
EndChar

StartChar: uni2124
Encoding: 8484 8484 473
Width: 768
VWidth: 2441
GlyphClass: 1
Flags: HW
LayerCount: 2
Fore
SplineSet
706 1416 m 1,0,-1
 606 1416 l 1,1,-1
 175 103 l 1,2,-1
 275 103 l 1,3,-1
 706 1416 l 1,0,-1
794 1521 m 1,4,-1
 794 1402 l 1,5,-1
 371 103 l 1,6,-1
 683 103 l 2,7,8
 725 103 725 103 742 107.5 c 128,-1,9
 759 112 759 112 774 126 c 1,10,-1
 792 126 l 1,11,-1
 792 0 l 1,12,-1
 86 0 l 1,13,-1
 86 119 l 1,14,-1
 515 1416 l 1,15,-1
 88 1416 l 1,16,-1
 88 1521 l 1,17,-1
 794 1521 l 1,4,-1
EndSplineSet
EndChar

StartChar: zero
Encoding: 48 48 474
Width: 768
VWidth: 2441
GlyphClass: 1
Flags: HW
LayerCount: 2
Fore
SplineSet
427 114 m 0,0,1
 518 114 518 114 567.5 270.5 c 128,-1,2
 617 427 617 427 617 752 c 0,3,4
 617 869 617 869 610 967 c 1,5,-1
 268 345 l 1,6,7
 317 114 317 114 427 114 c 0,0,1
235 752 m 0,8,9
 235 613 235 613 244 501 c 1,10,-1
 591 1132 l 1,11,12
 542 1388 542 1388 427 1389 c 0,13,14
 341 1389 341 1389 288 1225.5 c 128,-1,15
 235 1062 235 1062 235 752 c 0,8,9
427 -27 m 128,-1,17
 268 -27 268 -27 179.5 164.5 c 128,-1,18
 91 356 91 356 91 752 c 0,19,20
 91 1136 91 1136 179.5 1333.5 c 128,-1,21
 268 1531 268 1531 427 1531 c 128,-1,22
 586 1531 586 1531 674 1333 c 128,-1,23
 762 1135 762 1135 762 752 c 0,24,25
 762 356 762 356 674 164.5 c 128,-1,16
 586 -27 586 -27 427 -27 c 128,-1,17
EndSplineSet
Substitution2: "'ss02' Style Set 2 in Latin lookup 36 subtable" zero.ss02
Substitution2: "'zero' Slashed Zero in Latin lookup 33 subtable" zero.zero
Substitution2: "'frac' Diagonal Fractions in Latin lookup 24 subtable" zero.numr
Substitution2: "'dnom' Denominators in Latin lookup 22 subtable" zero.dnom
Substitution2: "'numr' Numerators in Latin lookup 21 subtable" zero.numr
Substitution2: "'sups' Superscript in Latin lookup 20 subtable" uni2070
Substitution2: "'subs' Subscript in Latin lookup 19 subtable" uni2080
AlternateSubs2: "'aalt' Access All Alternates in Latin lookup 1 subtable" zero.zero zero.ss02 uni2080 zero.dnom zero.numr uni2070
EndChar

StartChar: one
Encoding: 49 49 475
Width: 768
VWidth: 2441
GlyphClass: 1
Flags: HW
LayerCount: 2
Fore
SplineSet
380 0 m 1,0,-1
 380 1296 l 1,1,-1
 168 1206 l 1,2,-1
 142 1316 l 1,3,-1
 429 1523 l 1,4,-1
 525 1523 l 1,5,-1
 525 0 l 1,6,-1
 380 0 l 1,0,-1
EndSplineSet
Substitution2: "'frac' Diagonal Fractions in Latin lookup 24 subtable" one.numr
Substitution2: "'dnom' Denominators in Latin lookup 22 subtable" one.dnom
Substitution2: "'numr' Numerators in Latin lookup 21 subtable" one.numr
Substitution2: "'sups' Superscript in Latin lookup 20 subtable" uni00B9
Substitution2: "'subs' Subscript in Latin lookup 19 subtable" uni2081
AlternateSubs2: "'aalt' Access All Alternates in Latin lookup 1 subtable" uni2081 one.dnom one.numr uni00B9
EndChar

StartChar: two
Encoding: 50 50 476
Width: 768
VWidth: 2441
GlyphClass: 1
Flags: HW
LayerCount: 2
Fore
SplineSet
124 132 m 1,0,1
 278 356 278 356 383.5 520.5 c 128,-1,2
 489 685 489 685 545 822.5 c 128,-1,3
 601 960 601 960 601 1101 c 0,4,5
 601.082474227 1107.55670103 601.082474227 1107.55670103 601.082474227 1113.95270486 c 0,0,0
 601.082474227 1262.65979381 601.082474227 1262.65979381 556.5 1324.5 c 128,-1,6
 510 1389 510 1389 442 1389 c 0,7,8
 381 1389 381 1389 336 1361 c 128,-1,9
 291 1333 291 1333 252 1262 c 0,10,11
 235 1225 235 1225 232.5 1208 c 128,-1,12
 230 1191 230 1191 240 1172 c 1,13,-1
 232 1158 l 1,14,-1
 210 1165 l 1,15,-1
 95 1225 l 1,16,17
 146 1367 146 1367 232.5 1449 c 128,-1,18
 319 1531 319 1531 440 1531 c 0,19,20
 587 1531 587 1531 666 1420 c 128,-1,21
 745 1309 745 1309 745 1097 c 0,22,23
 745 936 745 936 682.5 784 c 128,-1,24
 620 632 620 632 518.5 474.5 c 128,-1,25
 417 317 417 317 300 142 c 1,26,-1
 645 142 l 2,27,28
 684 142 684 142 702 146.5 c 128,-1,29
 720 151 720 151 734 166 c 1,30,-1
 752 166 l 1,31,-1
 752 0 l 1,32,-1
 124 0 l 1,33,-1
 124 132 l 1,0,1
EndSplineSet
Substitution2: "'frac' Diagonal Fractions in Latin lookup 24 subtable" two.numr
Substitution2: "'dnom' Denominators in Latin lookup 22 subtable" two.dnom
Substitution2: "'numr' Numerators in Latin lookup 21 subtable" two.numr
Substitution2: "'sups' Superscript in Latin lookup 20 subtable" uni00B2
Substitution2: "'subs' Subscript in Latin lookup 19 subtable" uni2082
AlternateSubs2: "'aalt' Access All Alternates in Latin lookup 1 subtable" uni2082 two.dnom two.numr uni00B2
EndChar

StartChar: three
Encoding: 51 51 477
Width: 768
VWidth: 2441
GlyphClass: 1
Flags: HW
LayerCount: 2
Fore
SplineSet
410 -27 m 0,0,1
 310 -27 310 -27 235.5 24 c 128,-1,2
 161 75 161 75 105 163 c 1,3,-1
 210 259 l 1,4,-1
 226 275 l 1,5,-1
 240 263 l 1,6,7
 238 242 238 242 242.5 223.5 c 128,-1,8
 247 205 247 205 268 170 c 1,9,10
 295 143 295 143 328 127.5 c 128,-1,11
 361 112 361 112 405 112 c 0,12,13
 498 112 498 112 544.5 196.5 c 128,-1,14
 591 281 591 281 591 424 c 0,15,16
 591 597 591 597 515.5 671 c 128,-1,17
 454.77173913 730.52173913 454.77173913 730.52173913 351.019612476 730.52173913 c 0,0,0
 325.782608696 730.52173913 325.782608696 730.52173913 298 727 c 1,18,-1
 298 857 l 1,19,20
 412 857 412 857 466 900 c 128,-1,21
 520 943 520 943 537 1012 c 128,-1,22
 554 1081 554 1081 554 1160 c 0,23,24
 554 1274 554 1274 515 1332.5 c 128,-1,25
 476 1391 476 1391 412 1391 c 0,26,27
 314 1391 314 1391 240 1272 c 1,28,-1
 139 1347 l 1,29,30
 251 1531 251 1531 417 1531 c 0,31,32
 547 1531 547 1531 624 1432 c 128,-1,33
 701 1333 701 1333 701 1153 c 0,34,35
 701 1034 701 1034 660.5 941 c 128,-1,36
 620 848 620 848 535 808 c 1,37,38
 626 766 626 766 680 669.5 c 128,-1,39
 734 573 734 573 734 417 c 0,40,41
 734 219 734 219 649 96 c 128,-1,42
 564 -27 564 -27 410 -27 c 0,0,1
EndSplineSet
Substitution2: "'frac' Diagonal Fractions in Latin lookup 24 subtable" three.numr
Substitution2: "'dnom' Denominators in Latin lookup 22 subtable" three.dnom
Substitution2: "'numr' Numerators in Latin lookup 21 subtable" three.numr
Substitution2: "'sups' Superscript in Latin lookup 20 subtable" uni00B3
Substitution2: "'subs' Subscript in Latin lookup 19 subtable" uni2083
AlternateSubs2: "'aalt' Access All Alternates in Latin lookup 1 subtable" uni2083 three.dnom three.numr uni00B3
EndChar

StartChar: four
Encoding: 52 52 478
Width: 768
VWidth: 2441
GlyphClass: 1
Flags: HW
LayerCount: 2
Fore
SplineSet
254 517 m 1,0,-1
 547 517 l 1,1,-1
 547 1153 l 1,2,-1
 254 517 l 1,0,-1
547 0 m 1,3,-1
 547 378 l 1,4,-1
 98 378 l 1,5,-1
 98 498 l 1,6,-1
 573 1523 l 1,7,-1
 696 1523 l 1,8,-1
 696 515 l 1,9,-1
 820 515 l 1,10,-1
 820 376 l 1,11,-1
 696 376 l 1,12,-1
 696 0 l 1,13,-1
 547 0 l 1,3,-1
EndSplineSet
Substitution2: "'frac' Diagonal Fractions in Latin lookup 24 subtable" four.numr
Substitution2: "'dnom' Denominators in Latin lookup 22 subtable" four.dnom
Substitution2: "'numr' Numerators in Latin lookup 21 subtable" four.numr
Substitution2: "'sups' Superscript in Latin lookup 20 subtable" uni2074
Substitution2: "'subs' Subscript in Latin lookup 19 subtable" uni2084
AlternateSubs2: "'aalt' Access All Alternates in Latin lookup 1 subtable" uni2084 four.dnom four.numr uni2074
EndChar

StartChar: five
Encoding: 53 53 479
Width: 768
VWidth: 2441
GlyphClass: 1
Flags: HW
LayerCount: 2
Fore
SplineSet
427 -27 m 0,0,1
 329 -27 329 -27 242.5 27 c 128,-1,2
 156 81 156 81 103 193 c 1,3,-1
 207 275 l 1,4,-1
 226 291 l 1,5,-1
 237 278 l 1,6,7
 235 259 235 259 239.5 239 c 128,-1,8
 244 219 244 219 266 188 c 0,9,10
 329 113 329 113 429 112 c 0,11,12
 510 112 510 112 563.5 208.5 c 128,-1,13
 617 305 617 305 617 484 c 0,14,15
 617 668 617 668 562.5 760 c 128,-1,16
 508 852 508 852 422 852 c 0,17,18
 310 852 310 852 232 715 c 1,19,-1
 147 747 l 1,20,-1
 181 1521 l 1,21,-1
 720 1521 l 1,22,-1
 720 1377 l 1,23,-1
 310 1377 l 1,24,-1
 293 927 l 1,25,26
 332 954 332 954 372 968.5 c 128,-1,27
 412 983 412 983 457 983 c 0,28,29
 599 983 599 983 680.5 854 c 128,-1,30
 762 725 762 725 762 478 c 128,-1,31
 762 231 762 231 671.5 102 c 128,-1,32
 581 -27 581 -27 427 -27 c 0,0,1
EndSplineSet
Substitution2: "'frac' Diagonal Fractions in Latin lookup 24 subtable" five.numr
Substitution2: "'dnom' Denominators in Latin lookup 22 subtable" five.dnom
Substitution2: "'numr' Numerators in Latin lookup 21 subtable" five.numr
Substitution2: "'sups' Superscript in Latin lookup 20 subtable" uni2075
Substitution2: "'subs' Subscript in Latin lookup 19 subtable" uni2085
AlternateSubs2: "'aalt' Access All Alternates in Latin lookup 1 subtable" uni2085 five.dnom five.numr uni2075
EndChar

StartChar: six
Encoding: 54 54 480
Width: 768
VWidth: 2441
GlyphClass: 1
Flags: HW
LayerCount: 2
Fore
SplineSet
452 119 m 0,0,1
 520 119 520 119 565 213.5 c 128,-1,2
 610 308 610 308 610 480 c 0,3,4
 610 664 610 664 562.5 748 c 128,-1,5
 515 832 515 832 449 832 c 0,6,7
 388 832 388 832 340.5 779.5 c 128,-1,8
 293 727 293 727 259 643 c 1,9,10
 255.875 604.25 255.875 604.25 255.875 565.6953125 c 0,0,0
 255.875 480.875 255.875 480.875 271 397 c 128,-1,11
 293 275 293 275 341 197 c 128,-1,12
 389 119 389 119 452 119 c 0,0,1
447 -24 m 0,13,14
 288 -24 288 -24 201 158 c 128,-1,15
 114 340 114 340 114 694 c 0,16,17
 114 1126 114 1126 213 1332 c 128,-1,18
 312 1538 312 1538 491 1538 c 0,19,20
 572 1538 572 1538 630.5 1501.5 c 128,-1,21
 689 1465 689 1465 730 1396 c 1,22,-1
 650 1277 l 1,23,-1
 638 1260 l 1,24,-1
 625 1267 l 1,25,26
 623 1284 623 1284 620 1303.5 c 128,-1,27
 617 1323 617 1323 596 1353 c 1,28,29
 554.976744186 1394.02325581 554.976744186 1394.02325581 498.689021092 1394.02325581 c 0,0,0
 497.348837209 1394.02325581 497.348837209 1394.02325581 496 1394 c 0,30,31
 459 1394 459 1394 419.5 1374.5 c 128,-1,32
 380 1355 380 1355 345 1297.5 c 128,-1,33
 310 1240 310 1240 285.5 1132.5 c 128,-1,34
 261 1025 261 1025 261 852 c 1,35,36
 298 913 298 913 351.5 947 c 128,-1,37
 405 981 405 981 473 981 c 0,38,39
 590 981 590 981 671 844.5 c 128,-1,40
 752 708 752 708 752 484 c 0,41,42
 752 258 752 258 668 117 c 128,-1,43
 584 -24 584 -24 447 -24 c 0,13,14
EndSplineSet
Substitution2: "'frac' Diagonal Fractions in Latin lookup 24 subtable" six.numr
Substitution2: "'dnom' Denominators in Latin lookup 22 subtable" six.dnom
Substitution2: "'numr' Numerators in Latin lookup 21 subtable" six.numr
Substitution2: "'sups' Superscript in Latin lookup 20 subtable" uni2076
Substitution2: "'subs' Subscript in Latin lookup 19 subtable" uni2086
AlternateSubs2: "'aalt' Access All Alternates in Latin lookup 1 subtable" uni2086 six.dnom six.numr uni2076
EndChar

StartChar: seven
Encoding: 55 55 481
Width: 768
VWidth: 2441
GlyphClass: 1
Flags: HW
LayerCount: 2
Fore
SplineSet
252 0 m 1,0,1
 327 349 327 349 402.5 693 c 128,-1,2
 478 1037 478 1037 569 1374 c 1,3,-1
 135 1374 l 1,4,-1
 135 1521 l 1,5,-1
 737 1521 l 1,6,-1
 737 1435 l 1,7,8
 639 1083 639 1083 558.5 724.5 c 128,-1,9
 478 366 478 366 408 0 c 1,10,-1
 252 0 l 1,0,1
EndSplineSet
Substitution2: "'frac' Diagonal Fractions in Latin lookup 24 subtable" seven.numr
Substitution2: "'dnom' Denominators in Latin lookup 22 subtable" seven.dnom
Substitution2: "'numr' Numerators in Latin lookup 21 subtable" seven.numr
Substitution2: "'sups' Superscript in Latin lookup 20 subtable" uni2077
Substitution2: "'subs' Subscript in Latin lookup 19 subtable" uni2087
AlternateSubs2: "'aalt' Access All Alternates in Latin lookup 1 subtable" uni2087 seven.dnom seven.numr uni2077
EndChar

StartChar: eight
Encoding: 56 56 482
Width: 768
VWidth: 2441
GlyphClass: 1
Flags: HW
LayerCount: 2
Fore
SplineSet
429 117 m 0,0,1
 517 117 517 117 565 195 c 128,-1,2
 613 273 613 273 613 393 c 0,3,4
 613 637 613 637 415 737 c 1,5,6
 336 693 336 693 291.5 607.5 c 128,-1,7
 247 522 247 522 247 401 c 0,8,9
 247 282 247 282 297.5 199.5 c 128,-1,10
 348 117 348 117 429 117 c 0,0,1
452 886 m 1,11,12
 515 937 515 937 548 1012.5 c 128,-1,13
 581 1088 581 1088 581 1174 c 0,14,15
 581 1272 581 1272 543 1337 c 128,-1,16
 505 1402 505 1402 432 1402 c 128,-1,17
 359 1402 359 1402 325 1338 c 128,-1,18
 291 1274 291 1274 291 1181 c 0,19,20
 291 1069 291 1069 332 1008 c 128,-1,21
 373 947 373 947 452 886 c 1,11,12
427 -24 m 128,-1,23
 276 -24 276 -24 189.5 89.5 c 128,-1,24
 103 203 103 203 103 384 c 0,25,26
 103 528 103 528 157.5 640 c 128,-1,27
 212 752 212 752 310 818 c 1,28,29
 237 869 237 869 195.5 962 c 128,-1,30
 154 1055 154 1055 154 1165 c 0,31,32
 154 1331 154 1331 225 1435.5 c 128,-1,33
 296 1540 296 1540 437 1540 c 0,34,35
 584 1540 584 1540 651 1439 c 128,-1,36
 718 1338 718 1338 718 1179 c 0,37,38
 718 1069 718 1069 678 969 c 128,-1,39
 638 869 638 869 559 811 c 1,40,41
 652 750 652 750 703.5 644 c 128,-1,42
 755 538 755 538 755 393 c 0,43,44
 755 205 755 205 666.5 90.5 c 128,-1,22
 578 -24 578 -24 427 -24 c 128,-1,23
EndSplineSet
Substitution2: "'frac' Diagonal Fractions in Latin lookup 24 subtable" eight.numr
Substitution2: "'dnom' Denominators in Latin lookup 22 subtable" eight.dnom
Substitution2: "'numr' Numerators in Latin lookup 21 subtable" eight.numr
Substitution2: "'sups' Superscript in Latin lookup 20 subtable" uni2078
Substitution2: "'subs' Subscript in Latin lookup 19 subtable" uni2088
AlternateSubs2: "'aalt' Access All Alternates in Latin lookup 1 subtable" uni2088 eight.dnom eight.numr uni2078
EndChar

StartChar: nine
Encoding: 57 57 483
Width: 768
VWidth: 2441
GlyphClass: 1
Flags: HW
LayerCount: 2
Fore
SplineSet
254 1037 m 0,0,1
 254 893 254 893 306.5 806.5 c 128,-1,2
 359 720 359 720 429 720 c 0,3,4
 548 720 548 720 615 818 c 1,5,6
 613 1123 613 1123 569 1257 c 128,-1,7
 525 1391 525 1391 427 1391 c 0,8,9
 352 1391 352 1391 303 1306 c 128,-1,10
 254 1221 254 1221 254 1037 c 0,0,1
391 -24 m 1,11,12
 228 -24 228 -24 132 105 c 1,13,-1
 205 222 l 1,14,-1
 217 244 l 1,15,-1
 230 237 l 1,16,17
 237 216 237 216 243 194.5 c 128,-1,18
 249 173 249 173 273 144 c 1,19,20
 317 112 317 112 378 112 c 0,21,22
 459 112 459 112 508 190 c 128,-1,23
 557 268 557 268 581.5 394 c 128,-1,24
 606 520 606 520 613 662 c 1,25,26
 576 623 576 623 531 602 c 128,-1,27
 486 581 486 581 427 581 c 0,28,29
 292 581 292 581 204.5 706.5 c 128,-1,30
 117 832 117 832 117 1035 c 0,31,32
 117 1272 117 1272 206.5 1401.5 c 128,-1,33
 296 1531 296 1531 422 1531 c 0,34,35
 585 1531 585 1531 668.5 1366.5 c 128,-1,36
 752 1202 752 1202 752 886 c 0,37,38
 752 406 752 406 662 193.5 c 128,-1,39
 572 -19 572 -19 391 -24 c 1,11,12
EndSplineSet
Substitution2: "'frac' Diagonal Fractions in Latin lookup 24 subtable" nine.numr
Substitution2: "'dnom' Denominators in Latin lookup 22 subtable" nine.dnom
Substitution2: "'numr' Numerators in Latin lookup 21 subtable" nine.numr
Substitution2: "'sups' Superscript in Latin lookup 20 subtable" uni2079
Substitution2: "'subs' Subscript in Latin lookup 19 subtable" uni2089
AlternateSubs2: "'aalt' Access All Alternates in Latin lookup 1 subtable" uni2089 nine.dnom nine.numr uni2079
EndChar

StartChar: zero.zero
Encoding: 65541 -1 484
Width: 768
VWidth: 2441
GlyphClass: 1
Flags: HW
LayerCount: 2
Fore
SplineSet
424 657 m 0,0,1
 382 657 382 657 353 688.5 c 128,-1,2
 324 720 324 720 324 764 c 0,3,4
 324 810 324 810 354 842 c 128,-1,5
 384 874 384 874 424 874 c 0,6,7
 466 874 466 874 496.5 842.5 c 128,-1,8
 527 811 527 811 527 764 c 0,9,10
 527 720 527 720 497.5 688.5 c 128,-1,11
 468 657 468 657 424 657 c 0,0,1
427 114 m 0,12,13
 518 114 518 114 567.5 270.5 c 128,-1,14
 617 427 617 427 617 752 c 0,15,16
 617 1062 617 1062 567 1225.5 c 128,-1,17
 517 1389 517 1389 427 1389 c 0,18,19
 341 1389 341 1389 288 1225.5 c 128,-1,20
 235 1062 235 1062 235 752 c 0,21,22
 235 428 235 428 288 271 c 128,-1,23
 341 114 341 114 427 114 c 0,12,13
427 -27 m 128,-1,25
 268 -27 268 -27 179.5 164.5 c 128,-1,26
 91 356 91 356 91 752 c 0,27,28
 91 1136 91 1136 179.5 1333.5 c 128,-1,29
 268 1531 268 1531 427 1531 c 128,-1,30
 586 1531 586 1531 674 1333 c 128,-1,31
 762 1135 762 1135 762 752 c 0,32,33
 762 356 762 356 674 164.5 c 128,-1,24
 586 -27 586 -27 427 -27 c 128,-1,25
EndSplineSet
EndChar

StartChar: zero.ss02
Encoding: 65542 -1 485
Width: 768
VWidth: 2441
GlyphClass: 1
Flags: HW
LayerCount: 2
Fore
SplineSet
427 114 m 0,0,1
 518 114 518 114 567.5 270.5 c 128,-1,2
 617 427 617 427 617 752 c 0,3,4
 617 1062 617 1062 567 1225.5 c 128,-1,5
 517 1389 517 1389 427 1389 c 0,6,7
 341 1389 341 1389 288 1225.5 c 128,-1,8
 235 1062 235 1062 235 752 c 0,9,10
 235 428 235 428 288 271 c 128,-1,11
 341 114 341 114 427 114 c 0,0,1
427 -27 m 128,-1,13
 268 -27 268 -27 179.5 164.5 c 128,-1,14
 91 356 91 356 91 752 c 0,15,16
 91 1136 91 1136 179.5 1333.5 c 128,-1,17
 268 1531 268 1531 427 1531 c 128,-1,18
 586 1531 586 1531 674 1333 c 128,-1,19
 762 1135 762 1135 762 752 c 0,20,21
 762 356 762 356 674 164.5 c 128,-1,12
 586 -27 586 -27 427 -27 c 128,-1,13
EndSplineSet
EndChar

StartChar: uni2070
Encoding: 8304 8304 516
Width: 768
VWidth: 2441
GlyphClass: 1
Flags: HW
LayerCount: 2
Fore
SplineSet
427 689 m 0,0,1
 488 689 488 689 521 781.5 c 128,-1,2
 554 874 554 874 554 1067 c 0,3,4
 554 1133 554 1133 550 1186 c 1,5,-1
 322 823 l 1,6,7
 354 689 354 689 427 689 c 0,0,1
300 1067 m 0,8,9
 300 992 300 992 305 930 c 1,10,-1
 535 1302 l 1,11,12
 503.220689655 1445.00689655 503.220689655 1445.00689655 428.046183115 1445.00689655 c 0,13,14
 427.524137931 1445.00689655 427.524137931 1445.00689655 427 1445 c 0,15,16
 369 1445 369 1445 334.5 1349 c 128,-1,17
 300 1253 300 1253 300 1067 c 0,8,9
427 583 m 128,-1,19
 317 583 317 583 255 701.5 c 128,-1,20
 193 820 193 820 193 1067 c 0,21,22
 193 1309 193 1309 255 1429.5 c 128,-1,23
 317 1550 317 1550 427 1550 c 128,-1,24
 537 1550 537 1550 599.5 1429.5 c 128,-1,25
 662 1309 662 1309 662 1067 c 0,26,27
 662 820 662 820 599.5 701.5 c 128,-1,18
 537 583 537 583 427 583 c 128,-1,19
EndSplineSet
Substitution2: "'ss02' Style Set 2 in Latin lookup 36 subtable" uni2070.ss02
Substitution2: "'zero' Slashed Zero in Latin lookup 33 subtable" uni2070.zero
AlternateSubs2: "'aalt' Access All Alternates in Latin lookup 1 subtable" uni2070.ss02 uni2070.zero
EndChar

StartChar: uni00B9
Encoding: 185 185 517
Width: 768
VWidth: 2441
GlyphClass: 1
Flags: HW
LayerCount: 2
Fore
SplineSet
389 601 m 1,0,-1
 389 1386 l 1,1,-1
 252 1330 l 1,2,-1
 226 1416 l 1,3,-1
 422 1545 l 1,4,-1
 501 1545 l 1,5,-1
 501 601 l 1,6,-1
 389 601 l 1,0,-1
EndSplineSet
EndChar

StartChar: uni00B2
Encoding: 178 178 518
Width: 768
VWidth: 2441
GlyphClass: 1
Flags: HW
LayerCount: 2
Fore
SplineSet
215 691 m 1,0,1
 320 833 320 833 392 932.5 c 128,-1,2
 464 1032 464 1032 501 1114.5 c 128,-1,3
 538 1197 538 1197 540 1284 c 0,4,5
 540 1367 540 1367 510 1406 c 128,-1,6
 480 1445 480 1445 435 1445 c 0,7,8
 374 1445 374 1445 333 1409 c 1,9,10
 314 1374 314 1374 308.5 1356 c 128,-1,11
 303 1338 303 1338 308 1318 c 1,12,-1
 300 1307 l 1,13,-1
 278 1316 l 1,14,-1
 196 1363 l 1,15,16
 233 1451 233 1451 291 1500.5 c 128,-1,17
 349 1550 349 1550 435 1550 c 0,18,19
 533 1550 533 1550 591.5 1480.5 c 128,-1,20
 650 1411 650 1411 650 1279 c 0,21,22
 650 1181 650 1181 610.5 1092.5 c 128,-1,23
 571 1004 571 1004 505.5 909.5 c 128,-1,24
 440 815 440 815 361 706 c 1,25,-1
 545 706 l 2,26,27
 587 706 587 706 603.5 710.5 c 128,-1,28
 620 715 620 715 634 730 c 1,29,-1
 652 730 l 1,30,-1
 652 601 l 1,31,-1
 215 601 l 1,32,-1
 215 691 l 1,0,1
EndSplineSet
EndChar

StartChar: uni00B3
Encoding: 179 179 519
Width: 768
VWidth: 2441
GlyphClass: 1
Flags: HW
LayerCount: 2
Fore
SplineSet
412 583 m 0,0,1
 346 583 346 583 293 615 c 128,-1,2
 240 647 240 647 203 701 c 1,3,-1
 273 771 l 1,4,-1
 293 789 l 1,5,-1
 303 774 l 1,6,7
 303 755 303 755 312.5 740 c 128,-1,8
 322 725 322 725 352 696 c 1,9,10
 376 684 376 684 408 683 c 0,11,12
 532 683 532 683 532 864 c 0,13,14
 532 969 532 969 480.5 1012 c 0,15,16
 440.955357143 1045.01785714 440.955357143 1045.01785714 377.531728316 1045.01785714 c 0,17,18
 358.357142857 1045.01785714 358.357142857 1045.01785714 337 1042 c 1,19,-1
 337 1140 l 1,20,21
 447 1140 447 1140 477.5 1191 c 128,-1,22
 508 1242 508 1242 508 1316 c 0,23,24
 508 1382 508 1382 482.5 1416.5 c 128,-1,25
 457 1451 457 1451 415 1451 c 0,26,27
 347 1451 347 1451 298 1379 c 1,28,-1
 222 1435 l 1,29,30
 301 1549 301 1549 417 1550 c 0,31,32
 508 1550 508 1550 564 1489 c 128,-1,33
 620 1428 620 1428 620 1316 c 0,34,35
 620 1241 620 1241 592 1183 c 128,-1,36
 564 1125 564 1125 510 1104 c 1,37,38
 568 1077 568 1077 605.5 1017 c 128,-1,39
 643 957 643 957 643 859 c 0,40,41
 643 735 643 735 582.5 659 c 128,-1,42
 522 583 522 583 412 583 c 0,0,1
EndSplineSet
EndChar

StartChar: uni2074
Encoding: 8308 8308 520
Width: 768
VWidth: 2441
GlyphClass: 1
Flags: HW
LayerCount: 2
Fore
SplineSet
312 932 m 1,0,-1
 501 932 l 1,1,-1
 501 1289 l 1,2,-1
 312 932 l 1,0,-1
498 601 m 1,3,-1
 498 830 l 1,4,-1
 196 830 l 1,5,-1
 196 916 l 1,6,-1
 522 1545 l 1,7,-1
 608 1545 l 1,8,-1
 608 932 l 1,9,-1
 694 932 l 1,10,-1
 694 827 l 1,11,-1
 608 827 l 1,12,-1
 608 601 l 1,13,-1
 498 601 l 1,3,-1
EndSplineSet
EndChar

StartChar: uni2075
Encoding: 8309 8309 521
Width: 768
VWidth: 2441
GlyphClass: 1
Flags: HW
LayerCount: 2
Fore
SplineSet
427 583 m 0,0,1
 359 583 359 583 298 617.5 c 128,-1,2
 237 652 237 652 203 725 c 1,3,-1
 281 783 l 1,4,-1
 300 799 l 1,5,-1
 310 783 l 1,6,7
 308 764 308 764 317.5 748 c 128,-1,8
 327 732 327 732 354 703 c 1,9,10
 386 686 386 686 427 685 c 0,11,12
 481 685 481 685 516.5 742 c 128,-1,13
 552 799 552 799 552 901 c 0,14,15
 552 1008 552 1008 516 1063 c 128,-1,16
 480 1118 480 1118 424 1118 c 0,17,18
 349 1118 349 1118 300 1037 c 1,19,-1
 232 1060 l 1,20,-1
 254 1543 l 1,21,-1
 629 1543 l 1,22,-1
 629 1440 l 1,23,-1
 354 1440 l 1,24,-1
 345 1179 l 1,25,26
 396 1216 396 1216 454 1216 c 0,27,28
 549 1216 549 1216 605.5 1135.5 c 128,-1,29
 662 1055 662 1055 662 901 c 128,-1,30
 662 747 662 747 598 665 c 128,-1,31
 534 583 534 583 427 583 c 0,0,1
EndSplineSet
EndChar

StartChar: uni2076
Encoding: 8310 8310 522
Width: 768
VWidth: 2441
GlyphClass: 1
Flags: HW
LayerCount: 2
Fore
SplineSet
445 691 m 128,-1,1
 487 691 487 691 517 745 c 128,-1,2
 547 799 547 799 547 901 c 0,3,4
 547 1006 547 1006 515.5 1056 c 128,-1,5
 484 1106 484 1106 442 1106 c 0,6,7
 403 1106 403 1106 372.5 1077 c 128,-1,8
 342 1048 342 1048 319 999 c 1,9,10
 317.780487805 979.243902439 317.780487805 979.243902439 317.780487805 960.142177275 c 0,11,12
 317.780487805 900.926829268 317.780487805 900.926829268 329.5 848 c 0,13,14
 345 778 345 778 374 734.5 c 128,-1,0
 403 691 403 691 445 691 c 128,-1,1
440 587 m 0,15,16
 328 587 328 587 267.5 699 c 128,-1,17
 207 811 207 811 207 1030 c 0,18,19
 207 1296 207 1296 278 1426 c 128,-1,20
 349 1556 349 1556 471 1556 c 0,21,22
 576 1556 576 1556 643 1465 c 1,23,-1
 581 1382 l 1,24,-1
 569 1365 l 1,25,-1
 557 1374 l 1,26,27
 555 1391 555 1391 547.5 1406 c 128,-1,28
 540 1421 540 1421 513 1442 c 0,29,30
 506 1444 506 1444 496 1445.5 c 128,-1,31
 486 1447 486 1447 476 1447 c 0,32,33
 446 1447 446 1447 411 1425.5 c 128,-1,34
 376 1404 376 1404 349 1335.5 c 128,-1,35
 322 1267 322 1267 317 1132 c 1,36,37
 368 1211 368 1211 461 1211 c 0,38,39
 542 1211 542 1211 597 1129.5 c 128,-1,40
 652 1048 652 1048 652 904 c 0,41,42
 652 762 652 762 595 674.5 c 128,-1,43
 538 587 538 587 440 587 c 0,15,16
EndSplineSet
EndChar

StartChar: uni2077
Encoding: 8311 8311 523
Width: 768
VWidth: 2441
GlyphClass: 1
Flags: HW
LayerCount: 2
Fore
SplineSet
298 601 m 1,0,1
 349 816 349 816 401.5 1022 c 128,-1,2
 454 1228 454 1228 515 1435 c 1,3,-1
 222 1435 l 1,4,-1
 222 1543 l 1,5,-1
 645 1543 l 1,6,-1
 645 1475 l 1,7,8
 513 1046 513 1046 420 601 c 1,9,-1
 298 601 l 1,0,1
EndSplineSet
EndChar

StartChar: uni2078
Encoding: 8312 8312 524
Width: 768
VWidth: 2441
GlyphClass: 1
Flags: HW
LayerCount: 2
Fore
SplineSet
429 691 m 0,0,1
 485 691 485 691 517.5 732.5 c 128,-1,2
 550 774 550 774 550 848 c 0,3,4
 550 990 550 990 415 1048 c 1,5,6
 369 1021 369 1021 338.5 972 c 128,-1,7
 308 923 308 923 308 852 c 0,8,9
 308 779 308 779 341.5 735 c 128,-1,10
 375 691 375 691 429 691 c 0,0,1
445 1155 m 1,11,12
 527.011904762 1215.27380952 527.011904762 1215.27380952 527.011904762 1323.38789683 c 0,13,14
 527.011904762 1381.9834267 527.011904762 1381.9834267 501.5 1417.5 c 128,-1,15
 476 1453 476 1453 429 1453 c 0,16,17
 383 1453 383 1453 360 1417.5 c 128,-1,18
 337 1382 337 1382 337 1330 c 0,19,20
 337 1262 337 1262 366.5 1224.5 c 128,-1,21
 396 1187 396 1187 445 1155 c 1,11,12
427 587 m 0,22,23
 322 587 322 587 261 656 c 128,-1,24
 200 725 200 725 200 837 c 0,25,26
 200 928 200 928 236.5 997.5 c 128,-1,27
 273 1067 273 1067 337 1109 c 1,28,29
 234.990384615 1178.32692308 234.990384615 1178.32692308 234.990384615 1318.27588757 c 0,30,31
 234.990384615 1425.9877451 234.990384615 1425.9877451 286 1491 c 128,-1,32
 337 1556 337 1556 435 1556 c 0,33,34
 535 1556 535 1556 583.5 1492 c 128,-1,35
 632 1428 632 1428 632 1330 c 0,36,37
 632 1260 632 1260 605 1198.5 c 128,-1,38
 578 1137 578 1137 527 1101 c 1,39,40
 657 1022 657 1022 657 845 c 0,41,42
 657 728 657 728 595.5 657.5 c 128,-1,43
 534 587 534 587 427 587 c 0,22,23
EndSplineSet
EndChar

StartChar: uni2079
Encoding: 8313 8313 525
Width: 768
VWidth: 2441
GlyphClass: 1
Flags: HW
LayerCount: 2
Fore
SplineSet
312 1240 m 0,0,1
 312 1154 312 1154 346 1104.5 c 128,-1,2
 380 1055 380 1055 429 1055 c 0,3,4
 504 1055 504 1055 550 1111 c 1,5,6
 548 1297 548 1297 518.5 1372 c 128,-1,7
 489 1447 489 1447 427 1447 c 0,8,9
 376 1447 376 1447 344 1397 c 128,-1,10
 312 1347 312 1347 312 1240 c 0,0,1
401 587 m 0,11,12
 284 587 284 587 215 669 c 1,13,-1
 273 755 l 1,14,-1
 286 774 l 1,15,-1
 300 764 l 1,16,17
 305 745 305 745 316 730 c 128,-1,18
 327 715 327 715 359 691 c 0,19,20
 364 689 364 689 374 687 c 128,-1,21
 384 685 384 685 393 685 c 0,22,23
 466 685 466 685 502 779.5 c 128,-1,24
 538 874 538 874 547 1001 c 1,25,26
 496 952 496 952 424 952 c 0,27,28
 331 952 331 952 269 1030.5 c 128,-1,29
 207 1109 207 1109 207 1242 c 0,30,31
 207 1389 207 1389 271 1469.5 c 128,-1,32
 335 1550 335 1550 424 1550 c 0,33,34
 538 1550 538 1550 595 1447.5 c 128,-1,35
 652 1345 652 1345 652 1146 c 0,36,37
 652 853 652 853 588.5 721 c 128,-1,38
 525 589 525 589 401 587 c 0,11,12
EndSplineSet
EndChar

StartChar: fraction
Encoding: 8260 8260 526
Width: 768
VWidth: 2441
GlyphClass: 1
Flags: HW
LayerCount: 2
Fore
SplineSet
210 -103 m 1,0,-1
 122 -54 l 1,1,-1
 664 1624 l 1,2,-1
 755 1572 l 1,3,-1
 210 -103 l 1,0,-1
EndSplineSet
EndChar

StartChar: onehalf
Encoding: 189 189 527
Width: 768
VWidth: 2441
GlyphClass: 1
Flags: HW
LayerCount: 2
Fore
SplineSet
439 -170 m 1,0,-1
 439 -93 l 1,1,2
 516 19 516 19 567 97 c 128,-1,3
 618 175 618 175 644.5 237.5 c 128,-1,4
 671 300 671 300 671 368 c 0,5,6
 671 429 671 429 651.5 459 c 128,-1,7
 632 489 632 489 598 489 c 128,-1,8
 564 489 564 489 538.5 468 c 128,-1,9
 513 447 513 447 493 393 c 1,10,-1
 425 432 l 1,11,12
 452 500 452 500 495 540.5 c 128,-1,13
 538 581 538 581 600 581 c 0,14,15
 672 581 672 581 715.5 526 c 128,-1,16
 759 471 759 471 759 366 c 0,17,18
 759 249 759 249 701 150 c 128,-1,19
 643 51 643 51 558 -81 c 1,20,-1
 761 -81 l 1,21,-1
 761 -170 l 1,22,-1
 439 -170 l 1,0,-1
192 -103 m 1,23,-1
 112 -54 l 1,24,-1
 609 1624 l 1,25,-1
 692 1572 l 1,26,-1
 192 -103 l 1,23,-1
139 927 m 1,27,-1
 139 1540 l 1,28,-1
 43 1494 l 1,29,-1
 25 1572 l 1,30,-1
 166 1675 l 1,31,-1
 231 1675 l 1,32,-1
 231 927 l 1,33,-1
 139 927 l 1,27,-1
EndSplineSet
EndChar

StartChar: onequarter
Encoding: 188 188 528
Width: 768
VWidth: 2441
GlyphClass: 1
Flags: HW
LayerCount: 2
Fore
SplineSet
484 98 m 1,0,-1
 607 98 l 1,1,-1
 607 359 l 1,2,-1
 484 98 l 1,0,-1
605 -170 m 1,3,-1
 605 7 l 1,4,-1
 394 7 l 1,5,-1
 394 83 l 1,6,-1
 627 576 l 1,7,-1
 693 576 l 1,8,-1
 693 98 l 1,9,-1
 753 98 l 1,10,-1
 753 5 l 1,11,-1
 693 5 l 1,12,-1
 693 -170 l 1,13,-1
 605 -170 l 1,3,-1
182 -103 m 1,14,-1
 102 -54 l 1,15,-1
 592 1624 l 1,16,-1
 673 1572 l 1,17,-1
 182 -103 l 1,14,-1
129 927 m 1,18,-1
 129 1540 l 1,19,-1
 34 1494 l 1,20,-1
 17 1572 l 1,21,-1
 156 1675 l 1,22,-1
 219 1675 l 1,23,-1
 219 927 l 1,24,-1
 129 927 l 1,18,-1
EndSplineSet
EndChar

StartChar: threequarters
Encoding: 190 190 529
Width: 768
VWidth: 2441
GlyphClass: 1
Flags: HW
LayerCount: 2
Fore
SplineSet
591 98 m 1,0,-1
 591 359 l 1,1,-1
 471 98 l 1,2,-1
 591 98 l 1,0,-1
589 7 m 1,3,-1
 383 7 l 1,4,-1
 383 83 l 1,5,-1
 611 576 l 1,6,-1
 674 576 l 1,7,-1
 674 98 l 1,8,-1
 733 98 l 1,9,-1
 733 5 l 1,10,-1
 674 5 l 1,11,-1
 674 -170 l 1,12,-1
 589 -170 l 1,13,-1
 589 7 l 1,3,-1
177 -103 m 1,14,-1
 100 -54 l 1,15,-1
 576 1624 l 1,16,-1
 656 1572 l 1,17,-1
 177 -103 l 1,14,-1
147 916 m 0,18,19
 100 916 100 916 61.5 940 c 128,-1,20
 23 964 23 964 -3 1006 c 1,21,-1
 48 1067 l 1,22,-1
 66 1084 l 1,23,-1
 72 1076 l 1,24,25
 71.5294117647 1072.82352941 71.5294117647 1072.82352941 71.5294117647 1069.56401384 c 0,0,0
 71.5294117647 1045.11764706 71.5294117647 1045.11764706 98 1016 c 0,26,27
 115 1002 115 1002 143 1001 c 0,28,29
 224.012048193 1001 224.012048193 1001 224.012048193 1131.79053564 c 0,0,0
 224.012048193 1217.98849945 224.012048193 1217.98849945 191 1249.5 c 128,-1,32
 165.333333333 1274 165.333333333 1274 119.098765432 1274 c 0,0,0
 105.888888889 1274 105.888888889 1274 91 1272 c 1,33,-1
 91 1358 l 1,34,35
 94.7108433735 1357.90361446 94.7108433735 1357.90361446 98.2939468718 1357.90361446 c 0,0,0
 169.060240964 1357.90361446 169.060240964 1357.90361446 190 1395.5 c 128,-1,36
 212 1435 212 1435 212 1489 c 0,37,38
 212 1540 212 1540 193.5 1565.5 c 128,-1,39
 175 1591 175 1591 147 1591 c 0,40,41
 100 1591 100 1591 68 1535 c 1,42,-1
 12 1587 l 1,43,44
 38 1633 38 1633 74.5 1656.5 c 128,-1,45
 111 1680 111 1680 150 1680 c 0,46,47
 214 1680 214 1680 254.5 1631 c 128,-1,48
 295 1582 295 1582 295 1491 c 0,49,50
 295 1365 295 1365 220 1326 c 1,51,52
 259 1305 259 1305 284.5 1258 c 128,-1,53
 310 1211 310 1211 310 1132 c 0,54,55
 310 1032 310 1032 267 974 c 128,-1,56
 224 916 224 916 147 916 c 0,18,19
EndSplineSet
EndChar

StartChar: uni2070.ss02
Encoding: 65566 -1 533
Width: 768
VWidth: 2441
GlyphClass: 1
Flags: HW
LayerCount: 2
Fore
SplineSet
427 689 m 0,0,1
 488 689 488 689 521 781.5 c 128,-1,2
 554 874 554 874 554 1067 c 0,3,4
 554 1253 554 1253 521.5 1349 c 128,-1,5
 489 1445 489 1445 427 1445 c 0,6,7
 369 1445 369 1445 334.5 1349 c 128,-1,8
 300 1253 300 1253 300 1067 c 0,9,10
 300 874 300 874 334.5 781.5 c 128,-1,11
 369 689 369 689 427 689 c 0,0,1
427 583 m 128,-1,13
 317 583 317 583 255 701.5 c 128,-1,14
 193 820 193 820 193 1067 c 0,15,16
 193 1309 193 1309 255 1429.5 c 128,-1,17
 317 1550 317 1550 427 1550 c 128,-1,18
 537 1550 537 1550 599.5 1429.5 c 128,-1,19
 662 1309 662 1309 662 1067 c 0,20,21
 662 820 662 820 599.5 701.5 c 128,-1,12
 537 583 537 583 427 583 c 128,-1,13
EndSplineSet
EndChar

StartChar: uni2070.zero
Encoding: 65570 -1 537
Width: 768
VWidth: 2441
GlyphClass: 1
Flags: HW
LayerCount: 2
Fore
SplineSet
432 1032 m 128,-1,1
 408 1032 408 1032 389.5 1052 c 128,-1,2
 371 1072 371 1072 371 1099 c 128,-1,3
 371 1126 371 1126 389.5 1145.5 c 128,-1,4
 408 1165 408 1165 432 1165 c 128,-1,5
 456 1165 456 1165 475 1145 c 128,-1,6
 494 1125 494 1125 494 1099 c 0,7,8
 494 1072 494 1072 475 1052 c 128,-1,0
 456 1032 456 1032 432 1032 c 128,-1,1
427 689 m 0,9,10
 488 689 488 689 521 781.5 c 128,-1,11
 554 874 554 874 554 1067 c 0,12,13
 554 1253 554 1253 521.5 1349 c 128,-1,14
 489 1445 489 1445 427 1445 c 0,15,16
 369 1445 369 1445 334.5 1349 c 128,-1,17
 300 1253 300 1253 300 1067 c 0,18,19
 300 874 300 874 334.5 781.5 c 128,-1,20
 369 689 369 689 427 689 c 0,9,10
427 583 m 128,-1,22
 317 583 317 583 255 701.5 c 128,-1,23
 193 820 193 820 193 1067 c 0,24,25
 193 1309 193 1309 255 1429.5 c 128,-1,26
 317 1550 317 1550 427 1550 c 128,-1,27
 537 1550 537 1550 599.5 1429.5 c 128,-1,28
 662 1309 662 1309 662 1067 c 0,29,30
 662 820 662 820 599.5 701.5 c 128,-1,21
 537 583 537 583 427 583 c 128,-1,22
EndSplineSet
EndChar

StartChar: period
Encoding: 46 46 538
Width: 768
VWidth: 2607
GlyphClass: 1
Flags: HW
LayerCount: 2
Fore
SplineSet
410 136 m 0,0,1
 364 136 364 136 332 173 c 128,-1,2
 300 210 300 210 300 259 c 128,-1,3
 300 308 300 308 332 343 c 128,-1,4
 364 378 364 378 410 378 c 0,5,6
 454 378 454 378 485.5 343 c 128,-1,7
 517 308 517 308 517 259 c 128,-1,8
 517 210 517 210 485.5 173 c 128,-1,9
 454 136 454 136 410 136 c 0,0,1
EndSplineSet
EndChar

StartChar: comma
Encoding: 44 44 539
Width: 768
VWidth: 2607
GlyphClass: 1
Flags: HW
LayerCount: 2
Fore
SplineSet
366 -244 m 1,0,-1
 300 -183 l 1,1,2
 349 -120 349 -120 380.5 -55 c 128,-1,3
 412 10 412 10 412 56 c 0,4,5
 412 91 412 91 390 115 c 128,-1,6
 368 139 368 139 346 168.5 c 128,-1,7
 324 198 324 198 324 241 c 0,8,9
 324 302 324 302 356.5 340 c 128,-1,10
 389 378 389 378 432 378 c 0,11,12
 478 378 478 378 516 334 c 128,-1,13
 554 290 554 290 554 201 c 0,14,15
 554 103 554 103 505.5 -3 c 128,-1,16
 457 -109 457 -109 366 -244 c 1,0,-1
EndSplineSet
EndChar

StartChar: colon
Encoding: 58 58 540
Width: 768
VWidth: 2716
GlyphClass: 1
Flags: HW
LayerCount: 2
Fore
SplineSet
424 245 m 128,-1,1
 378 245 378 245 346.5 281 c 128,-1,2
 315 317 315 317 315 368 c 0,3,4
 315 417 315 417 347.5 452 c 128,-1,5
 380 487 380 487 424 487 c 128,-1,6
 468 487 468 487 501.5 452 c 128,-1,7
 535 417 535 417 535 368 c 128,-1,8
 535 319 535 319 502.5 282 c 128,-1,0
 470 245 470 245 424 245 c 128,-1,1
424 1046 m 128,-1,10
 380 1046 380 1046 347.5 1082 c 128,-1,11
 315 1118 315 1118 315 1167 c 128,-1,12
 315 1216 315 1216 347.5 1252 c 128,-1,13
 380 1288 380 1288 424 1288 c 128,-1,14
 468 1288 468 1288 501.5 1251 c 128,-1,15
 535 1214 535 1214 535 1167 c 0,16,17
 535 1118 535 1118 501.5 1082 c 128,-1,9
 468 1046 468 1046 424 1046 c 128,-1,10
EndSplineSet
EndChar

StartChar: semicolon
Encoding: 59 59 541
Width: 768
VWidth: 2716
GlyphClass: 1
Flags: HW
LayerCount: 2
Fore
SplineSet
359 -135 m 1,0,-1
 293 -74 l 1,1,2
 342 -11 342 -11 373.5 54 c 128,-1,3
 405 119 405 119 405 165 c 0,4,5
 405 200 405 200 383 224 c 128,-1,6
 361 248 361 248 339 277.5 c 128,-1,7
 317 307 317 307 317 350 c 0,8,9
 317 411 317 411 348.5 449 c 128,-1,10
 380 487 380 487 424 487 c 0,11,12
 470 487 470 487 508.5 443 c 128,-1,13
 547 399 547 399 547 310 c 0,14,15
 547 212 547 212 498.5 106 c 128,-1,16
 450 0 450 0 359 -135 c 1,0,-1
424 1046 m 128,-1,18
 380 1046 380 1046 347.5 1082 c 128,-1,19
 315 1118 315 1118 315 1167 c 128,-1,20
 315 1216 315 1216 347.5 1252 c 128,-1,21
 380 1288 380 1288 424 1288 c 128,-1,22
 468 1288 468 1288 501.5 1251 c 128,-1,23
 535 1214 535 1214 535 1167 c 0,24,25
 535 1118 535 1118 501.5 1082 c 128,-1,17
 468 1046 468 1046 424 1046 c 128,-1,18
EndSplineSet
EndChar

StartChar: ellipsis
Encoding: 8230 8230 542
Width: 768
VWidth: 2441
GlyphClass: 1
Flags: HW
LayerCount: 2
Fore
SplineSet
117 -30 m 0,0,1
 74 -30 74 -30 45 7 c 128,-1,2
 16 44 16 44 16 93 c 128,-1,3
 16 142 16 142 45 177 c 128,-1,4
 74 212 74 212 117 212 c 0,5,6
 158 212 158 212 187.5 177 c 128,-1,7
 217 142 217 142 217 93 c 128,-1,8
 217 44 217 44 187.5 7 c 128,-1,9
 158 -30 158 -30 117 -30 c 0,0,1
383 -30 m 0,10,11
 340 -30 340 -30 311 7 c 128,-1,12
 282 44 282 44 282 93 c 128,-1,13
 282 142 282 142 311 177 c 128,-1,14
 340 212 340 212 383 212 c 0,15,16
 424 212 424 212 453 177 c 128,-1,17
 482 142 482 142 482 93 c 128,-1,18
 482 44 482 44 453 7 c 128,-1,19
 424 -30 424 -30 383 -30 c 0,10,11
651 -30 m 0,20,21
 610 -30 610 -30 580 7 c 128,-1,22
 550 44 550 44 550 93 c 128,-1,23
 550 142 550 142 580 177 c 128,-1,24
 610 212 610 212 651 212 c 0,25,26
 694 212 694 212 723 177 c 128,-1,27
 752 142 752 142 752 93 c 128,-1,28
 752 44 752 44 723 7 c 128,-1,29
 694 -30 694 -30 651 -30 c 0,20,21
EndSplineSet
EndChar

StartChar: exclam
Encoding: 33 33 543
Width: 768
VWidth: 2441
GlyphClass: 1
Flags: HW
LayerCount: 2
Fore
SplineSet
410 -30 m 0,0,1
 366 -30 366 -30 333 7 c 128,-1,2
 300 44 300 44 300 93 c 128,-1,3
 300 142 300 142 333 178.5 c 128,-1,4
 366 215 366 215 410 215 c 0,5,6
 456 215 456 215 489 178.5 c 128,-1,7
 522 142 522 142 522 93 c 128,-1,8
 522 44 522 44 489 7 c 128,-1,9
 456 -30 456 -30 410 -30 c 0,0,1
364 473 m 1,10,-1
 315 1479 l 2,11,12
 315 1549 315 1549 340.5 1590 c 128,-1,13
 366 1631 366 1631 412 1631 c 0,14,15
 456 1631 456 1631 484.5 1590.5 c 0,16,17
 510.285714286 1553.85714286 510.285714286 1553.85714286 510.285714286 1473.41950113 c 0,18,19
 510.285714286 1464.95238095 510.285714286 1464.95238095 510 1456 c 2,20,-1
 459 473 l 1,21,-1
 364 473 l 1,10,-1
EndSplineSet
EndChar

StartChar: question
Encoding: 63 63 545
Width: 768
VWidth: 2441
GlyphClass: 1
Flags: HW
LayerCount: 2
Fore
SplineSet
449 -30 m 0,0,1
 405 -30 405 -30 372.5 7 c 128,-1,2
 340 44 340 44 340 93 c 128,-1,3
 340 142 340 142 372.5 177 c 128,-1,4
 405 212 405 212 449 212 c 0,5,6
 495 212 495 212 527 177 c 128,-1,7
 559 142 559 142 559 93 c 128,-1,8
 559 44 559 44 527 7 c 128,-1,9
 495 -30 495 -30 449 -30 c 0,0,1
378 538 m 2,10,11
 378 648 378 648 401 718.5 c 128,-1,12
 424 789 424 789 459 840.5 c 128,-1,13
 494 892 494 892 529 943 c 128,-1,14
 564 994 564 994 587 1061 c 128,-1,15
 610 1128 610 1128 610 1230 c 0,16,17
 610 1340 610 1340 565 1412 c 128,-1,18
 520 1484 520 1484 437 1484 c 0,19,20
 320 1484 320 1484 249 1379 c 1,21,22
 232 1344 232 1344 228 1326.5 c 128,-1,23
 224 1309 224 1309 232 1289 c 1,24,-1
 224 1274 l 1,25,-1
 203 1286 l 1,26,-1
 110 1372 l 1,27,28
 166 1489 166 1489 240.5 1556.5 c 128,-1,29
 315 1624 315 1624 442 1624 c 0,30,31
 579 1624 579 1624 662 1531 c 128,-1,32
 745 1438 745 1438 745 1242 c 0,33,34
 745 1123 745 1123 722 1045 c 128,-1,35
 699 967 699 967 663 911 c 128,-1,36
 627 855 627 855 593 806 c 128,-1,37
 559 757 559 757 534.5 694.5 c 128,-1,38
 510 632 510 632 510 538 c 2,39,-1
 510 437 l 1,40,-1
 378 437 l 1,41,-1
 378 538 l 2,10,11
EndSplineSet
EndChar

StartChar: periodcentered
Encoding: 183 183 547
Width: 768
VWidth: 2441
GlyphClass: 1
Flags: HW
LayerCount: 2
Fore
SplineSet
410 689 m 128,-1,1
 364 689 364 689 332 724 c 128,-1,2
 300 759 300 759 300 811 c 0,3,4
 300 860 300 860 333 895 c 128,-1,5
 366 930 366 930 410 930 c 128,-1,6
 454 930 454 930 487 894.5 c 128,-1,7
 520 859 520 859 520 811 c 0,8,9
 520 762 520 762 488 725.5 c 128,-1,0
 456 689 456 689 410 689 c 128,-1,1
EndSplineSet
Substitution2: "Single Substitution lookup 11 subtable" periodcentered.loclCAT
Substitution2: "Single Substitution lookup 10 subtable" periodcentered.loclCAT
Substitution2: "'aalt' Access All Alternates in Latin lookup 0 subtable" periodcentered.loclCAT
EndChar

StartChar: bullet
Encoding: 8226 8226 548
Width: 768
VWidth: 2441
GlyphClass: 1
Flags: HW
LayerCount: 2
Fore
SplineSet
437 552 m 0,0,1
 376 552 376 552 332 602 c 128,-1,2
 288 652 288 652 288 718 c 0,3,4
 288 788 288 788 333 837 c 128,-1,5
 378 886 378 886 437 886 c 0,6,7
 498 886 498 886 543.5 836 c 128,-1,8
 589 786 589 786 589 718 c 0,9,10
 589 652 589 652 544.5 602 c 128,-1,11
 500 552 500 552 437 552 c 0,0,1
EndSplineSet
EndChar

StartChar: asterisk
Encoding: 42 42 549
Width: 768
VWidth: 2441
GlyphClass: 1
Flags: HW
LayerCount: 2
Fore
SplineSet
235 300 m 1,0,-1
 130 396 l 1,1,-1
 356 771 l 1,2,-1
 66 901 l 1,3,-1
 117 1042 l 1,4,-1
 380 876 l 1,5,-1
 356 1309 l 1,6,-1
 505 1309 l 1,7,-1
 473 876 l 1,8,-1
 745 1037 l 1,9,-1
 792 901 l 1,10,-1
 494 771 l 1,11,-1
 720 396 l 1,12,-1
 615 303 l 1,13,-1
 424 689 l 1,14,-1
 235 300 l 1,0,-1
EndSplineSet
Substitution2: "'ss01' Style Set 1 in Latin lookup 35 subtable" asterisk.ss01
Substitution2: "'salt' Stylistic Alternatives in Latin lookup 34 subtable" asterisk.ss01
Substitution2: "'aalt' Access All Alternates in Latin lookup 0 subtable" asterisk.ss01
EndChar

StartChar: uni2E12
Encoding: 11794 11794 550
Width: 768
VWidth: 2212
GlyphClass: 1
Flags: HW
LayerCount: 2
Fore
SplineSet
305 -246 m 1,0,-1
 305 -135 l 1,1,2
 355 -135 355 -135 383 -78.5 c 128,-1,3
 411 -22 411 -22 411 47 c 0,4,5
 411 117 411 117 384 174.5 c 128,-1,6
 357 232 357 232 305 232 c 1,7,-1
 305 340 l 1,8,9
 392 340 392 340 452.5 263.5 c 128,-1,10
 513 187 513 187 513 45 c 0,11,12
 513 -92 513 -92 453.5 -169 c 128,-1,13
 394 -246 394 -246 305 -246 c 1,0,-1
EndSplineSet
EndChar

StartChar: numbersign
Encoding: 35 35 551
Width: 768
VWidth: 2441
GlyphClass: 1
Flags: HW
LayerCount: 2
Fore
SplineSet
313 578 m 1,0,-1
 482 578 l 1,1,-1
 515 999 l 1,2,-1
 346 999 l 1,3,-1
 313 578 l 1,0,-1
437 24 m 1,4,-1
 472 473 l 1,5,-1
 301 473 l 1,6,-1
 266 35 l 1,7,-1
 161 32 l 1,8,-1
 194 468 l 1,9,-1
 42 468 l 1,10,-1
 49 573 l 1,11,-1
 203 573 l 1,12,-1
 236 997 l 1,13,-1
 65 997 l 1,14,-1
 67 1104 l 1,15,-1
 245 1104 l 1,16,-1
 278 1523 l 1,17,-1
 388 1528 l 1,18,-1
 355 1109 l 1,19,-1
 524 1109 l 1,20,-1
 556 1519 l 1,21,-1
 669 1521 l 1,22,-1
 636 1113 l 1,23,-1
 778 1113 l 1,24,-1
 769 1004 l 1,25,-1
 626 1004 l 1,26,-1
 591 587 l 1,27,-1
 747 587 l 1,28,-1
 738 480 l 1,29,-1
 584 480 l 1,30,-1
 547 35 l 1,31,-1
 437 24 l 1,4,-1
EndSplineSet
EndChar

StartChar: slash
Encoding: 47 47 552
Width: 768
VWidth: 2441
GlyphClass: 1
Flags: HW
LayerCount: 2
Fore
SplineSet
222 -103 m 1,0,-1
 95 -46 l 1,1,-1
 632 1624 l 1,2,-1
 762 1563 l 1,3,-1
 222 -103 l 1,0,-1
EndSplineSet
Substitution2: "'frac' Diagonal Fractions in Latin lookup 23 subtable" fraction
Substitution2: "'aalt' Access All Alternates in Latin lookup 0 subtable" fraction
EndChar

StartChar: backslash
Encoding: 92 92 553
Width: 768
VWidth: 2441
GlyphClass: 1
Flags: HW
LayerCount: 2
Fore
SplineSet
634 -103 m 1,0,-1
 95 1563 l 1,1,-1
 222 1624 l 1,2,-1
 762 -46 l 1,3,-1
 634 -103 l 1,0,-1
EndSplineSet
EndChar

StartChar: asterisk.ss01
Encoding: 65572 -1 555
Width: 768
VWidth: 2441
GlyphClass: 1
Flags: HW
LayerCount: 2
Fore
SplineSet
235 447 m 1,0,-1
 130 542 l 1,1,-1
 356 918 l 1,2,-1
 66 1048 l 1,3,-1
 117 1189 l 1,4,-1
 380 1023 l 1,5,-1
 356 1456 l 1,6,-1
 505 1456 l 1,7,-1
 473 1023 l 1,8,-1
 745 1184 l 1,9,-1
 792 1048 l 1,10,-1
 494 918 l 1,11,-1
 720 542 l 1,12,-1
 615 449 l 1,13,-1
 424 834 l 1,14,-1
 235 447 l 1,0,-1
EndSplineSet
EndChar

StartChar: parenleft
Encoding: 40 40 556
Width: 768
VWidth: 2449
GlyphClass: 1
Flags: HW
LayerCount: 2
Fore
SplineSet
664 -246 m 1,0,1
 522 -151 522 -151 413.5 9 c 128,-1,2
 305 169 305 169 245.5 370.5 c 128,-1,3
 186 572 186 572 186 789 c 128,-1,4
 186 1006 186 1006 245.5 1202.5 c 128,-1,5
 305 1399 305 1399 410 1554 c 128,-1,6
 515 1709 515 1709 654 1802 c 1,7,-1
 706 1676 l 1,8,9
 596 1590 596 1590 509 1450 c 128,-1,10
 422 1310 422 1310 373 1137.5 c 128,-1,11
 324 965 324 965 324 782 c 0,12,13
 324 598 324 598 373 425 c 128,-1,14
 422 252 422 252 510 110.5 c 128,-1,15
 598 -31 598 -31 713 -118 c 1,16,-1
 664 -246 l 1,0,1
EndSplineSet
EndChar

StartChar: parenright
Encoding: 41 41 557
Width: 768
VWidth: 2449
GlyphClass: 1
Flags: HW
LayerCount: 2
Fore
SplineSet
232 -246 m 1
 374 -151 374 -151 482 9 c 0
 590 169 590 169 651 370 c 0
 710.016393443 567.704918033 710.016393443 567.704918033 710.016393443 781.857027681 c 0,0,0
 710.016393443 785.426229508 710.016393443 785.426229508 710 789 c 0
 710 1006 710 1006 651 1202 c 0
 591 1399 591 1399 486 1554 c 0
 381 1709 381 1709 242 1802 c 1
 191 1676 l 1
 301 1590 301 1590 387 1449 c 0
 474 1308 474 1308 522 1137 c 0
 571 965 571 965 571 782 c 0
 571 598 571 598 522 425 c 0
 473 252 473 252 386 111 c 0
 298 -31 298 -31 184 -118 c 1
 232 -246 l 1
EndSplineSet
EndChar

StartChar: braceleft
Encoding: 123 123 558
Width: 768
VWidth: 2486
GlyphClass: 1
Flags: HW
LayerCount: 2
Fore
SplineSet
645 -187 m 2,0,1
 523 -187 523 -187 437.5 -151.5 c 128,-1,2
 352 -116 352 -116 310 -23.5 c 128,-1,3
 272.468085106 59.1595744681 272.468085106 59.1595744681 272.468085106 205.303983703 c 0,0,0
 272.468085106 222.70212766 272.468085106 222.70212766 273 241 c 2,4,-1
 278 485 l 2,5,6
 278 646 278 646 239 702 c 128,-1,7
 200 758 200 758 124 758 c 2,8,-1
 91 758 l 1,9,-1
 91 895 l 1,10,-1
 124 895 l 2,11,12
 203 895 203 895 243.5 956 c 128,-1,13
 284 1017 284 1017 284 1156 c 1,14,-1
 278 1331 l 1,15,16
 278 1543 278 1543 362.5 1650 c 128,-1,17
 447 1757 447 1757 601 1757 c 2,18,-1
 708 1757 l 1,19,-1
 708 1622 l 1,20,-1
 581 1622 l 2,21,22
 420 1622 420 1622 420 1359 c 1,23,-1
 424 1187 l 1,24,25
 424 919 424 919 271 826 c 1,26,27
 420 756 420 756 420 448 c 1,28,-1
 417 243 l 2,29,30
 417 77 417 77 465 11 c 128,-1,31
 513 -55 513 -55 620 -55 c 2,32,-1
 706 -55 l 1,33,-1
 706 -187 l 1,34,-1
 645 -187 l 2,0,1
EndSplineSet
EndChar

StartChar: braceright
Encoding: 125 125 559
Width: 768
VWidth: 2486
GlyphClass: 1
Flags: HW
LayerCount: 2
Fore
SplineSet
173 -187 m 2
 295 -187 295 -187 380 -152 c 0
 466 -116 466 -116 508 -23 c 0
 545.531914894 60.1063829787 545.531914894 60.1063829787 545.531914894 205.499773653 c 0,0,0
 545.531914894 222.808510638 545.531914894 222.808510638 545 241 c 2
 540 485 l 2
 540 646 540 646 578 702 c 0
 617 758 617 758 694 758 c 2
 727 758 l 1
 727 895 l 1
 694 895 l 2
 615 895 615 895 575 956 c 0
 534.976190476 1015.54761905 534.976190476 1015.54761905 534.976190476 1149.42517007 c 0,0,0
 534.976190476 1152.69047619 534.976190476 1152.69047619 535 1156 c 2
 540 1331 l 1
 540 1543 540 1543 455 1651 c 0
 370 1757 370 1757 217 1757 c 2
 110 1757 l 1
 110 1622 l 1
 237 1622 l 2
 398 1622 398 1622 398 1359 c 1
 393 1187 l 1
 393 919 393 919 547 826 c 1
 398 756 398 756 398 448 c 1
 401 243 l 2
 401 77 401 77 353 10 c 0
 305.71641791 -55.0149253731 305.71641791 -55.0149253731 201.180886612 -55.0149253731 c 0,0,0
 199.597014925 -55.0149253731 199.597014925 -55.0149253731 198 -55 c 2
 112 -55 l 1
 112 -187 l 1
 173 -187 l 2
EndSplineSet
EndChar

StartChar: bracketleft
Encoding: 91 91 560
Width: 768
VWidth: 2516
GlyphClass: 1
Flags: HW
LayerCount: 2
Fore
SplineSet
212 -142 m 1,0,-1
 212 1711 l 1,1,-1
 713 1711 l 1,2,-1
 713 1569 l 1,3,-1
 347 1569 l 1,4,-1
 347 -8 l 1,5,-1
 715 -8 l 1,6,-1
 715 -142 l 1,7,-1
 212 -142 l 1,0,-1
EndSplineSet
EndChar

StartChar: bracketright
Encoding: 93 93 561
Width: 768
VWidth: 2516
GlyphClass: 1
Flags: HW
LayerCount: 2
Fore
SplineSet
691 -142 m 1
 691 1711 l 1
 191 1711 l 1
 191 1569 l 1
 557 1569 l 1
 557 -8 l 1
 188 -8 l 1
 188 -142 l 1
 691 -142 l 1
EndSplineSet
EndChar

StartChar: hyphen
Encoding: 45 45 562
Width: 768
VWidth: 2441
GlyphClass: 1
Flags: HW
LayerCount: 2
Fore
SplineSet
191 699 m 1,0,-1
 191 850 l 1,1,-1
 669 850 l 1,2,-1
 669 699 l 1,3,-1
 191 699 l 1,0,-1
EndSplineSet
EndChar

StartChar: endash
Encoding: 8211 8211 564
Width: 768
VWidth: 2441
GlyphClass: 1
Flags: HW
LayerCount: 2
Fore
SplineSet
122 699 m 1,0,-1
 122 850 l 1,1,-1
 737 850 l 1,2,-1
 737 699 l 1,3,-1
 122 699 l 1,0,-1
EndSplineSet
EndChar

StartChar: emdash
Encoding: 8212 8212 565
Width: 768
VWidth: 2441
GlyphClass: 1
Flags: HW
LayerCount: 2
Fore
SplineSet
13 699 m 1,0,-1
 13 850 l 1,1,-1
 749 850 l 1,2,-1
 749 699 l 1,3,-1
 13 699 l 1,0,-1
EndSplineSet
EndChar

StartChar: underscore
Encoding: 95 95 569
Width: 768
VWidth: 2441
GlyphClass: 1
Flags: HW
LayerCount: 2
Fore
SplineSet
58 -193 m 1,0,-1
 58 -51 l 1,1,-1
 794 -51 l 1,2,-1
 794 -193 l 1,3,-1
 58 -193 l 1,0,-1
EndSplineSet
EndChar

StartChar: quotedblleft
Encoding: 8220 8220 572
Width: 768
VWidth: 2441
GlyphClass: 1
Flags: HW
LayerCount: 2
Fore
SplineSet
319 1558 m 1,0,-1
 384 1496 l 1,1,2
 333 1433 333 1433 299.5 1366 c 128,-1,3
 266 1299 266 1299 266 1245 c 0,4,5
 266 1210 266 1210 289 1186 c 128,-1,6
 312 1162 312 1162 335.5 1135.5 c 128,-1,7
 359 1109 359 1109 359 1067 c 0,8,9
 359 1009 359 1009 329.5 972 c 128,-1,10
 300 935 300 935 254 935 c 0,11,12
 205 935 205 935 168.5 983.5 c 128,-1,13
 132 1032 132 1032 132 1111 c 0,14,15
 132 1209 132 1209 176.5 1316 c 128,-1,16
 221 1423 221 1423 319 1558 c 1,0,-1
674 1558 m 1,17,-1
 737 1496 l 1,18,19
 683 1433 683 1433 651.5 1366 c 128,-1,20
 620 1299 620 1299 620 1245 c 0,21,22
 620 1210 620 1210 643 1186 c 128,-1,23
 666 1162 666 1162 689.5 1135.5 c 128,-1,24
 713 1109 713 1109 713 1067 c 0,25,26
 713 1009 713 1009 683.5 972 c 128,-1,27
 654 935 654 935 608 935 c 0,28,29
 559 935 559 935 522.5 983.5 c 128,-1,30
 486 1032 486 1032 486 1111 c 0,31,32
 486 1209 486 1209 531 1316 c 128,-1,33
 576 1423 576 1423 674 1558 c 1,17,-1
EndSplineSet
EndChar

StartChar: quoteleft
Encoding: 8216 8216 574
Width: 768
VWidth: 2441
GlyphClass: 1
Flags: HW
LayerCount: 2
Fore
SplineSet
491 1558 m 1,0,-1
 554 1496 l 1,1,2
 503 1433 503 1433 470 1366 c 128,-1,3
 437 1299 437 1299 437 1245 c 0,4,5
 437 1210 437 1210 460.5 1186 c 128,-1,6
 484 1162 484 1162 506.5 1135.5 c 128,-1,7
 529 1109 529 1109 529 1067 c 0,8,9
 529 1009 529 1009 500 972 c 128,-1,10
 471 935 471 935 424 935 c 0,11,12
 375 935 375 935 339 983.5 c 128,-1,13
 303 1032 303 1032 303 1111 c 0,14,15
 303 1209 303 1209 348 1316 c 128,-1,16
 393 1423 393 1423 491 1558 c 1,0,-1
EndSplineSet
EndChar

StartChar: quoteright
Encoding: 8217 8217 575
Width: 768
VWidth: 2441
GlyphClass: 1
Flags: HW
LayerCount: 2
Fore
SplineSet
342 935 m 1,0,-1
 275 997 l 1,1,2
 329 1060 329 1060 361 1128.5 c 128,-1,3
 393 1197 393 1197 393 1250 c 0,4,5
 393 1285 393 1285 370 1307.5 c 128,-1,6
 347 1330 347 1330 323.5 1357 c 128,-1,7
 300 1384 300 1384 300 1426 c 0,8,9
 300 1484 300 1484 330.5 1521 c 128,-1,10
 361 1558 361 1558 408 1558 c 0,11,12
 454 1558 454 1558 491.5 1510.5 c 128,-1,13
 529 1463 529 1463 529 1382 c 0,14,15
 529 1287 529 1287 483 1178.5 c 128,-1,16
 437 1070 437 1070 342 935 c 1,0,-1
EndSplineSet
EndChar

StartChar: guillemotleft
Encoding: 171 171 576
Width: 768
VWidth: 2441
GlyphClass: 1
Flags: HW
LayerCount: 2
Fore
SplineSet
685 149 m 1,0,-1
 420 561 l 1,1,-1
 420 617 l 1,2,-1
 676 976 l 1,3,-1
 759 876 l 1,4,-1
 552 589 l 1,5,-1
 769 247 l 1,6,-1
 685 149 l 1,0,-1
378 149 m 1,7,-1
 107 561 l 1,8,-1
 107 617 l 1,9,-1
 368 976 l 1,10,-1
 449 876 l 1,11,-1
 242 589 l 1,12,-1
 461 247 l 1,13,-1
 378 149 l 1,7,-1
EndSplineSet
EndChar

StartChar: guilsinglleft
Encoding: 8249 8249 578
Width: 768
VWidth: 2441
GlyphClass: 1
Flags: HW
LayerCount: 2
Fore
SplineSet
517 149 m 1,0,-1
 249 561 l 1,1,-1
 249 617 l 1,2,-1
 508 976 l 1,3,-1
 589 879 l 1,4,-1
 380 589 l 1,5,-1
 601 244 l 1,6,-1
 517 149 l 1,0,-1
EndSplineSet
EndChar

StartChar: guilsinglright
Encoding: 8250 8250 579
Width: 768
VWidth: 2441
GlyphClass: 1
Flags: HW
LayerCount: 2
Fore
SplineSet
317 149 m 1,0,-1
 235 244 l 1,1,-1
 457 589 l 1,2,-1
 244 879 l 1,3,-1
 327 976 l 1,4,-1
 587 617 l 1,5,-1
 587 561 l 1,6,-1
 317 149 l 1,0,-1
EndSplineSet
EndChar

StartChar: quotedbl
Encoding: 34 34 580
Width: 768
VWidth: 2441
GlyphClass: 1
Flags: HW
LayerCount: 2
Fore
SplineSet
215 1624 m 1
 366 1624 l 1
 366 1477 366 1477 364 1389 c 0
 362 1301 362 1301 358 1241 c 0
 354 1181 354 1181 348 1127 c 0
 342 1072 342 1072 337 994 c 1
 244 994 l 1
 239 1073 239 1073 234 1127 c 0
 228 1182 228 1182 223 1240 c 0
 219 1298 219 1298 217 1388 c 0
 215 1477 215 1477 215 1624 c 1
489 1624 m 1
 640 1624 l 1
 640 1477 640 1477 638 1389 c 0
 636 1301 636 1301 631 1241 c 0
 627 1181 627 1181 621 1127 c 0
 615 1072 615 1072 610 994 c 1
 517 994 l 1
 512 1073 512 1073 507 1127 c 0
 501 1182 501 1182 497 1240 c 0
 493 1298 493 1298 491 1388 c 0
 489 1477 489 1477 489 1624 c 1
EndSplineSet
Substitution2: "'ss03' Style Set 3 in Latin lookup 37 subtable" quotedbl.ss03
Substitution2: "'aalt' Access All Alternates in Latin lookup 0 subtable" quotedbl.ss03
EndChar

StartChar: quotesingle
Encoding: 39 39 581
Width: 768
VWidth: 2441
GlyphClass: 1
Flags: HW
LayerCount: 2
Fore
SplineSet
352 1624 m 1,0,-1
 503 1624 l 1,1,2
 503 1477 503 1477 500.5 1389.5 c 128,-1,3
 498 1302 498 1302 494.5 1241.5 c 128,-1,4
 491 1181 491 1181 484.5 1126.5 c 128,-1,5
 478 1072 478 1072 473 994 c 1,6,-1
 380 994 l 1,7,8
 375 1073 375 1073 369.5 1127 c 128,-1,9
 364 1181 364 1181 360 1240 c 128,-1,10
 356 1299 356 1299 354 1388 c 128,-1,11
 352 1477 352 1477 352 1624 c 1,0,-1
EndSplineSet
Substitution2: "'ss03' Style Set 3 in Latin lookup 37 subtable" quotesingle.ss03
Substitution2: "'aalt' Access All Alternates in Latin lookup 0 subtable" quotesingle.ss03
EndChar

StartChar: quotesingle.ss03
Encoding: 65574 -1 583
Width: 768
VWidth: 2441
GlyphClass: 1
Flags: HW
LayerCount: 2
Fore
SplineSet
447 999 m 1,0,-1
 352 1018 l 1,1,2
 389 1184 389 1184 392.5 1295.5 c 128,-1,3
 396 1407 396 1407 396 1491 c 0,4,5
 396 1623 396 1623 471 1624 c 0,6,7
 544 1624 544 1624 545 1496 c 0,8,9
 545 1438 545 1438 535 1373.5 c 128,-1,10
 525 1309 525 1309 503.5 1221.5 c 128,-1,11
 482 1134 482 1134 447 999 c 1,0,-1
EndSplineSet
EndChar

StartChar: hyphen_greater.dlig
Encoding: 65575 -1 584
Width: 768
VWidth: 2441
GlyphClass: 1
Flags: HW
LayerCount: 2
Fore
SplineSet
39 708 m 1,0,-1
 39 852 l 1,1,-1
 541 852 l 1,2,-1
 541 708 l 1,3,-1
 39 708 l 1,0,-1
356 91 m 1,4,-1
 356 266 l 1,5,-1
 704 778 l 1,6,-1
 357 1260 l 1,7,-1
 357 1433 l 1,8,-1
 775 840 l 1,9,-1
 775 722 l 1,10,-1
 356 91 l 1,4,-1
EndSplineSet
Ligature2: "'dlig' Discretionary Ligatures in Latin lookup 32 subtable" hyphen greater
EndChar

StartChar: exclam_equal_equal.dlig
Encoding: 65576 -1 585
Width: 768
VWidth: 2409
GlyphClass: 1
Flags: HW
LayerCount: 2
Fore
SplineSet
24 64 m 1,0,-1
 24 208 l 1,1,-1
 330 208 l 1,2,-1
 362 515 l 1,3,-1
 113 515 l 1,4,-1
 113 658 l 1,5,-1
 376 658 l 1,6,-1
 407 967 l 1,7,-1
 24 967 l 1,8,-1
 24 1111 l 1,9,-1
 422 1111 l 1,10,-1
 453 1419 l 1,11,-1
 495 1371 l 1,12,-1
 468 1111 l 1,13,-1
 760 1111 l 1,14,-1
 760 967 l 1,15,-1
 453 967 l 1,16,-1
 421 658 l 1,17,-1
 671 658 l 1,18,-1
 671 515 l 1,19,-1
 406 515 l 1,20,-1
 375 208 l 1,21,-1
 760 208 l 1,22,-1
 760 64 l 1,23,-1
 361 64 l 1,24,-1
 329 -246 l 1,25,-1
 289 -203 l 1,26,-1
 315 64 l 1,27,-1
 24 64 l 1,0,-1
EndSplineSet
Ligature2: "'dlig' Discretionary Ligatures in Latin lookup 32 subtable" exclam equal equal
EndChar

StartChar: uni20B5
Encoding: 8373 8373 594
Width: 768
VWidth: 2441
GlyphClass: 2
Flags: HW
AnchorPoint: "Anchor-2" 480 0 basechar 0
AnchorPoint: "Anchor-0" 464 1521 basechar 0
LayerCount: 2
Fore
SplineSet
212 764 m 0,0,1
 212 512 212 512 265.5 354 c 128,-1,2
 319 196 319 196 405 144 c 1,3,-1
 405 1377 l 1,4,5
 314 1333 314 1333 263 1181.5 c 128,-1,6
 212 1030 212 1030 212 764 c 0,0,1
405 -173 m 1,7,-1
 405 -14 l 1,8,9
 310 10 310 10 234.5 95.5 c 128,-1,10
 159 181 159 181 114.5 342 c 128,-1,11
 70 503 70 503 70 752 c 0,12,13
 70 1023 70 1023 118 1184 c 128,-1,14
 166 1345 166 1345 242.5 1423.5 c 128,-1,15
 319 1502 319 1502 405 1523 c 1,16,-1
 405 1647 l 1,17,-1
 529 1647 l 1,18,-1
 529 1531 l 1,19,20
 732 1504 732 1504 803 1274 c 1,21,-1
 699 1197 l 1,22,-1
 678 1179 l 1,23,-1
 669 1193 l 1,24,25
 671 1212 671 1212 670 1233.5 c 128,-1,26
 669 1255 669 1255 652 1291 c 1,27,28
 622 1335 622 1335 593 1357 c 128,-1,29
 564 1379 564 1379 529 1389 c 1,30,-1
 529 124 l 1,31,32
 629 148 629 148 691 284 c 1,33,-1
 789 186 l 1,34,35
 740 91 740 91 678.5 39.5 c 128,-1,36
 617 -12 617 -12 529 -21 c 1,37,-1
 529 -173 l 1,38,-1
 405 -173 l 1,7,-1
EndSplineSet
EndChar

StartChar: cent
Encoding: 162 162 595
Width: 768
VWidth: 2441
GlyphClass: 2
Flags: HW
AnchorPoint: "Anchor-2" 489 105 basechar 0
AnchorPoint: "Anchor-0" 489 1221 basechar 0
LayerCount: 2
Fore
SplineSet
235 666 m 0,0,1
 235 507 235 507 269 407.5 c 128,-1,2
 303 308 303 308 364 261 c 1,3,-1
 447 1104 l 1,4,5
 366 1090 366 1090 300.5 987.5 c 128,-1,6
 235 885 235 885 235 666 c 0,0,1
437 -179 m 1,7,-1
 322 -179 l 1,8,-1
 349 105 l 1,9,10
 230 154 230 154 161.5 298 c 128,-1,11
 93 442 93 442 93 662 c 0,12,13
 93 855 93 855 143 982 c 128,-1,14
 193 1109 193 1109 276 1172 c 128,-1,15
 359 1235 359 1235 459 1242 c 1,16,-1
 486 1521 l 1,17,-1
 596 1521 l 1,18,-1
 569 1233 l 1,19,20
 711 1201 711 1201 778 1062 c 1,21,-1
 701 955 l 1,22,-1
 689 935 l 1,23,-1
 674 945 l 1,24,25
 672 964 672 964 667 986.5 c 128,-1,26
 662 1009 662 1009 638 1039 c 0,27,28
 601 1078 601 1078 557 1094 c 1,29,-1
 476 222 l 1,30,31
 483 220 483 220 491 219 c 0,32,33
 552 219 552 219 603 250 c 128,-1,34
 654 281 654 281 699 345 c 1,35,-1
 767 219 l 1,36,37
 711 146 711 146 638.5 112.5 c 128,-1,38
 566 79 566 79 486 79 c 0,39,40
 474 79 474 79 461 79 c 1,41,-1
 437 -179 l 1,7,-1
EndSplineSet
EndChar

StartChar: colonmonetary
Encoding: 8353 8353 596
Width: 768
VWidth: 2441
GlyphClass: 2
Flags: HW
AnchorPoint: "Anchor-2" 480 0 basechar 0
AnchorPoint: "Anchor-0" 464 1521 basechar 0
LayerCount: 2
Fore
SplineSet
319 235 m 1,0,1
 340 200 340 200 364 175 c 1,2,-1
 576 1370 l 1,3,4
 555 1384 555 1384 527 1389 c 1,5,-1
 319 235 l 1,0,1
212 764 m 0,6,7
 212 640 212 640 226 538.5 c 128,-1,8
 240 437 240 437 266 359 c 1,9,-1
 449 1391 l 1,10,11
 339 1372 339 1372 275.5 1217 c 128,-1,12
 212 1062 212 1062 212 764 c 0,6,7
170 -173 m 1,13,-1
 222 110 l 1,14,15
 154 201 154 201 112 357 c 128,-1,16
 70 513 70 513 70 752 c 0,17,18
 70 984 70 984 106 1134 c 128,-1,19
 142 1284 142 1284 201.5 1371 c 128,-1,20
 261 1458 261 1458 332 1494.5 c 128,-1,21
 403 1531 403 1531 473 1533 c 1,22,-1
 496 1647 l 1,23,-1
 571 1647 l 1,24,-1
 552 1528 l 1,25,26
 579 1521 579 1521 603 1514 c 1,27,-1
 627 1647 l 1,28,-1
 706 1647 l 1,29,-1
 674 1472 l 1,30,31
 762 1406 762 1406 803 1274 c 1,32,-1
 699 1197 l 1,33,-1
 678 1179 l 1,34,-1
 669 1193 l 1,35,36
 671 1212 671 1212 670 1233.5 c 128,-1,37
 669 1255 669 1255 652 1291 c 0,38,39
 647 1298 647 1298 645 1304 c 1,40,-1
 435 130 l 1,41,42
 462 120 462 120 489 119 c 0,43,44
 619 119 619 119 691 284 c 1,45,-1
 789 186 l 1,46,47
 735 79 735 79 664.5 27.5 c 128,-1,48
 594 -24 594 -24 489 -24 c 0,49,50
 447 -24 447 -24 410 -14 c 1,51,-1
 380 -173 l 1,52,-1
 303 -173 l 1,53,-1
 335 12 l 1,54,55
 311 24 311 24 286 44 c 1,56,-1
 249 -173 l 1,57,-1
 170 -173 l 1,13,-1
EndSplineSet
EndChar

StartChar: currency
Encoding: 164 164 597
Width: 768
VWidth: 2441
GlyphClass: 1
Flags: HW
LayerCount: 2
Fore
SplineSet
427 601 m 128,-1,1
 510 601 510 601 550.5 673 c 128,-1,2
 591 745 591 745 591 843 c 0,3,4
 591 943 591 943 550.5 1014.5 c 128,-1,5
 510 1086 510 1086 427 1086 c 0,6,7
 346 1086 346 1086 306 1014.5 c 128,-1,8
 266 943 266 943 266 843 c 0,9,10
 266 745 266 745 305 673 c 128,-1,0
 344 601 344 601 427 601 c 128,-1,1
179 401 m 1,11,-1
 105 478 l 1,12,-1
 203 632 l 1,13,14
 157 727 157 727 156 843 c 0,15,16
 156 957 156 957 205 1053 c 1,17,-1
 105 1206 l 1,18,-1
 179 1286 l 1,19,-1
 268 1150 l 1,20,21
 338 1220 338 1220 429 1221 c 0,22,23
 468 1221 468 1221 510 1203.5 c 128,-1,24
 552 1186 552 1186 587 1153 c 1,25,-1
 676 1286 l 1,26,-1
 750 1216 l 1,27,-1
 652 1067 l 1,28,29
 703 967 703 967 703 843 c 0,30,31
 703 721 703 721 657 625 c 1,32,-1
 750 478 l 1,33,-1
 676 401 l 1,34,-1
 589 535 l 1,35,36
 554 498 554 498 512.5 481 c 128,-1,37
 471 464 471 464 429 464 c 0,38,39
 338 464 338 464 266 538 c 1,40,-1
 179 401 l 1,11,-1
EndSplineSet
EndChar

StartChar: dollar
Encoding: 36 36 598
Width: 768
VWidth: 2441
GlyphClass: 1
Flags: HW
LayerCount: 2
Fore
SplineSet
515 179 m 1,0,1
 585 200 585 200 624.5 273.5 c 128,-1,2
 664 347 664 347 664 432 c 0,3,4
 664 602 664 602 515 662 c 1,5,-1
 515 179 l 1,0,1
391 886 m 1,6,-1
 391 1307 l 1,7,8
 330 1295 330 1295 294.5 1246 c 128,-1,9
 259 1197 259 1197 259 1109 c 0,10,11
 259 1041 259 1041 291 983 c 128,-1,12
 323 925 323 925 391 886 c 1,6,-1
391 -114 m 1,13,-1
 391 35 l 1,14,15
 298 45 298 45 220 92 c 128,-1,16
 142 139 142 139 91 217 c 1,17,-1
 181 361 l 1,18,19
 186 354 186 354 187 336.5 c 128,-1,20
 188 319 188 319 191 310 c 0,21,22
 223 259 223 259 272.5 222.5 c 128,-1,23
 322 186 322 186 391 173 c 1,24,-1
 391 718 l 1,25,26
 256 781 256 781 189 862 c 128,-1,27
 122 943 122 943 122 1088 c 0,28,29
 122 1254 122 1254 197.5 1336.5 c 128,-1,30
 273 1419 273 1419 391 1442 c 1,31,-1
 391 1589 l 1,32,-1
 527 1589 l 1,33,34
 527 1587 527 1587 527 1582 c 128,-1,35
 527 1577 527 1577 522 1566.5 c 128,-1,36
 517 1556 517 1556 515 1538 c 2,37,-1
 515 1445 l 1,38,39
 596 1433 596 1433 654.5 1395.5 c 128,-1,40
 713 1358 713 1358 755 1279 c 1,41,-1
 678 1146 l 1,42,43
 668 1151 668 1151 667 1167.5 c 128,-1,44
 666 1184 666 1184 659 1197 c 0,45,46
 615 1280 615 1280 515 1304 c 1,47,-1
 515 825 l 1,48,49
 615 779 615 779 677.5 732 c 128,-1,50
 740 685 740 685 770.5 617.5 c 128,-1,51
 801 550 801 550 801 442 c 0,52,53
 801 279 801 279 725.5 171 c 128,-1,54
 650 63 650 63 515 39 c 1,55,-1
 515 -114 l 1,56,-1
 391 -114 l 1,13,-1
EndSplineSet
EndChar

StartChar: dong
Encoding: 8363 8363 599
Width: 768
VWidth: 2441
GlyphClass: 2
Flags: HW
AnchorPoint: "Anchor-4" 542 1333 basechar 0
AnchorPoint: "Anchor-2" 393 261 basechar 0
AnchorPoint: "Anchor-1" 694 1155 basechar 0
AnchorPoint: "Anchor-0" 393 1155 basechar 0
LayerCount: 2
Fore
SplineSet
137 132 m 1,0,-1
 706 132 l 1,1,-1
 706 0 l 1,2,-1
 137 0 l 1,3,-1
 137 132 l 1,0,-1
380 359 m 0,4,5
 455 359 455 359 496.5 444 c 128,-1,6
 538 529 538 529 538 713 c 0,7,8
 538 892 538 892 496 976 c 128,-1,9
 454 1060 454 1060 378 1060 c 0,10,11
 297 1060 297 1060 257 988 c 128,-1,12
 217 916 217 916 217 737 c 0,13,14
 217 518 217 518 262 438.5 c 128,-1,15
 307 359 307 359 380 359 c 0,4,5
361 242 m 0,16,17
 295 242 295 242 238 283 c 128,-1,18
 181 324 181 324 145.5 428 c 128,-1,19
 110 532 110 532 110 715 c 0,20,21
 110 896 110 896 147 996.5 c 128,-1,22
 184 1097 184 1097 242 1135.5 c 128,-1,23
 300 1174 300 1174 368 1174 c 0,24,25
 500 1174 500 1174 542 1032 c 1,26,-1
 542 1260 l 1,27,-1
 293 1260 l 1,28,-1
 293 1389 l 1,29,-1
 542 1389 l 1,30,-1
 542 1560 l 1,31,-1
 669 1560 l 1,32,-1
 669 1545 l 1,33,34
 649.826086957 1529.47826087 649.826086957 1529.47826087 649.826086957 1483.94517958 c 0,35,36
 649.826086957 1479.60869565 649.826086957 1479.60869565 650 1475 c 2,37,-1
 650 1389 l 1,38,-1
 755 1389 l 1,39,-1
 755 1260 l 1,40,-1
 650 1260 l 1,41,-1
 652 401 l 2,42,43
 652 366 652 366 653 331 c 128,-1,44
 654 296 654 296 664 261 c 1,45,-1
 554 261 l 1,46,47
 544 291 544 291 541 321.5 c 128,-1,48
 538 352 538 352 538 389 c 1,49,50
 511 326 511 326 465 284 c 128,-1,51
 419 242 419 242 361 242 c 0,16,17
EndSplineSet
EndChar

StartChar: Euro
Encoding: 8364 8364 600
Width: 768
VWidth: 2441
GlyphClass: 1
Flags: HW
LayerCount: 2
Fore
SplineSet
543 -27 m 0,0,1
 396 -27 396 -27 284.5 105 c 128,-1,2
 173 237 173 237 142 535 c 1,3,-1
 55 535 l 1,4,-1
 77 671 l 1,5,-1
 133 671 l 1,6,7
 133 708 133 708 134 769 c 128,-1,8
 135 830 135 830 137 871 c 1,9,-1
 55 871 l 1,10,-1
 77 1009 l 1,11,-1
 151 1009 l 1,12,13
 180 1209 180 1209 245 1323.5 c 128,-1,14
 310 1438 310 1438 391.5 1485.5 c 128,-1,15
 473 1533 473 1533 553 1533 c 0,16,17
 719 1533 719 1533 791 1431 c 1,18,-1
 750 1277 l 1,19,20
 723 1287 723 1287 706.5 1314.5 c 128,-1,21
 690 1342 690 1342 656 1368 c 128,-1,22
 622 1394 622 1394 548 1394 c 0,23,24
 454 1394 454 1394 384.5 1300 c 128,-1,25
 315 1206 315 1206 286 1009 c 1,26,-1
 683 1009 l 1,27,-1
 647 871 l 1,28,-1
 271 871 l 1,29,30
 266 832 266 832 266 781 c 128,-1,31
 266 730 266 730 266 671 c 1,32,-1
 596 671 l 1,33,-1
 558 535 l 1,34,-1
 279 535 l 1,35,36
 302 332 302 332 373.5 225.5 c 128,-1,37
 445 119 445 119 551 119 c 128,-1,38
 657 119 657 119 725 207 c 1,39,-1
 786 86 l 1,40,41
 736 25 736 25 673 -1 c 128,-1,42
 610 -27 610 -27 543 -27 c 0,0,1
EndSplineSet
EndChar

StartChar: florin
Encoding: 402 402 601
Width: 768
VWidth: 2370
GlyphClass: 1
Flags: HW
LayerCount: 2
Fore
SplineSet
156 -246 m 0,0,1
 71 -246 71 -246 29 -182 c 1,2,-1
 87 -35 l 1,3,4
 94 -39 94 -39 99 -54 c 128,-1,5
 104 -69 104 -69 119 -83 c 128,-1,6
 134 -97 134 -97 165 -97 c 0,7,8
 252 -97 252 -97 268 203 c 2,9,-1
 300 872 l 1,10,-1
 125 872 l 1,11,-1
 125 996 l 1,12,-1
 308 996 l 1,13,-1
 317 1202 l 2,14,15
 326 1370 326 1370 360 1465.5 c 128,-1,16
 394 1561 394 1561 450 1602 c 128,-1,17
 506 1643 506 1643 574 1643 c 0,18,19
 676 1643 676 1643 749 1543 c 1,20,-1
 695 1389 l 1,21,22
 684 1389 684 1389 680 1411 c 0,23,24
 673 1464 673 1464 644 1491.5 c 128,-1,25
 615 1519 615 1519 579 1519 c 0,26,27
 521 1519 521 1519 491 1444 c 128,-1,28
 461 1369 461 1369 453 1179 c 2,29,-1
 444 996 l 1,30,-1
 621 996 l 1,31,-1
 621 872 l 1,32,-1
 434 872 l 1,33,-1
 397 197 l 2,34,35
 388 21 388 21 353.5 -75 c 128,-1,36
 319 -171 319 -171 266.5 -208.5 c 128,-1,37
 214 -246 214 -246 156 -246 c 0,0,1
EndSplineSet
EndChar

StartChar: uni20B2
Encoding: 8370 8370 603
Width: 768
VWidth: 2441
GlyphClass: 1
Flags: HW
LayerCount: 2
Fore
SplineSet
205 778 m 0,0,1
 205 524 205 524 256.5 365.5 c 128,-1,2
 308 207 308 207 386 154 c 1,3,-1
 386 1372 l 1,4,5
 311 1340 311 1340 258 1204.5 c 128,-1,6
 205 1069 205 1069 205 778 c 0,0,1
386 -173 m 1,7,-1
 386 -12 l 1,8,9
 235 27 235 27 148 219.5 c 128,-1,10
 61 412 61 412 61 743 c 0,11,12
 61 962 61 962 89 1108.5 c 128,-1,13
 117 1255 117 1255 163.5 1344 c 128,-1,14
 210 1433 210 1433 268.5 1476 c 128,-1,15
 327 1519 327 1519 386 1531 c 1,16,-1
 386 1647 l 1,17,-1
 505 1647 l 1,18,-1
 505 1535 l 1,19,20
 624 1523 624 1523 688 1458.5 c 128,-1,21
 752 1394 752 1394 786 1302 c 1,22,-1
 715 1172 l 1,23,24
 705 1179 705 1179 694 1208 c 128,-1,25
 683 1237 683 1237 663 1274 c 128,-1,26
 643 1311 643 1311 606 1341.5 c 128,-1,27
 569 1372 569 1372 505 1382 c 1,28,-1
 505 130 l 1,29,30
 588 142 588 142 664 219 c 1,31,-1
 664 589 l 1,32,-1
 571 589 l 1,33,-1
 571 730 l 1,34,-1
 794 730 l 1,35,-1
 794 135 l 1,36,37
 657 -7 657 -7 505 -21 c 1,38,-1
 505 -173 l 1,39,-1
 386 -173 l 1,7,-1
EndSplineSet
EndChar

StartChar: uni20AD
Encoding: 8365 8365 604
Width: 768
VWidth: 2441
GlyphClass: 1
Flags: HW
LayerCount: 2
Fore
SplineSet
14 799 m 1,0,-1
 14 923 l 1,1,-1
 91 923 l 1,2,-1
 91 1521 l 1,3,-1
 242 1521 l 1,4,-1
 242 1504 l 1,5,6
 229 1490 229 1490 226 1473 c 128,-1,7
 223 1456 223 1456 223 1414 c 2,8,-1
 223 825 l 1,9,-1
 589 1533 l 1,10,11
 604 1528 604 1528 633 1524.5 c 128,-1,12
 662 1521 662 1521 686 1521 c 2,13,-1
 725 1521 l 1,14,-1
 420 923 l 1,15,-1
 681 923 l 1,16,-1
 681 799 l 1,17,-1
 409 799 l 1,18,-1
 750 0 l 1,19,-1
 598 -10 l 1,20,-1
 294 740 l 1,21,-1
 223 610 l 1,22,-1
 223 0 l 1,23,-1
 91 0 l 1,24,-1
 91 799 l 1,25,-1
 14 799 l 1,0,-1
EndSplineSet
EndChar

StartChar: uni20BA
Encoding: 8378 8378 606
Width: 768
VWidth: 2441
GlyphClass: 1
Flags: HW
LayerCount: 2
Fore
SplineSet
179 0 m 1,0,-1
 179 678 l 1,1,-1
 44 610 l 1,2,-1
 44 747 l 1,3,-1
 179 815 l 1,4,-1
 179 964 l 1,5,-1
 44 896 l 1,6,-1
 44 1032 l 1,7,-1
 179 1101 l 1,8,-1
 179 1521 l 1,9,-1
 340 1521 l 1,10,11
 340 1497 340 1497 332 1486 c 128,-1,12
 324 1475 324 1475 324 1438 c 2,13,-1
 324 1174 l 1,14,-1
 625 1326 l 1,15,-1
 625 1189 l 1,16,-1
 324 1037 l 1,17,-1
 324 888 l 1,18,-1
 625 1039 l 1,19,-1
 625 904 l 1,20,-1
 324 752 l 1,21,-1
 324 149 l 1,22,23
 419 149 419 149 490 183 c 128,-1,24
 561 217 561 217 600.5 307.5 c 128,-1,25
 640 398 640 398 640 561 c 1,26,-1
 769 561 l 1,27,28
 769 349 769 349 716.5 227 c 128,-1,29
 664 105 664 105 560.5 52.5 c 128,-1,30
 457 0 457 0 305 0 c 2,31,-1
 179 0 l 1,0,-1
EndSplineSet
EndChar

StartChar: uni20BC
Encoding: 8380 8380 607
Width: 768
VWidth: 2441
GlyphClass: 1
Flags: HW
LayerCount: 2
Fore
SplineSet
364 242 m 1,0,-1
 364 1274 l 1,1,2
 278 1244 278 1244 245 1138 c 128,-1,3
 212 1032 212 1032 212 876 c 2,4,-1
 212 79 l 2,5,6
 212 47 212 47 218 30.5 c 128,-1,7
 224 14 224 14 224 0 c 1,8,-1
 75 0 l 1,9,-1
 75 874 l 2,10,11
 75 1145 75 1145 149.5 1272.5 c 128,-1,12
 224 1400 224 1400 364 1421 c 1,13,-1
 364 1624 l 1,14,-1
 494 1624 l 1,15,-1
 494 1421 l 1,16,17
 626 1400 626 1400 704.5 1275 c 128,-1,18
 783 1150 783 1150 783 867 c 2,19,-1
 783 0 l 1,20,-1
 654 0 l 1,21,-1
 654 869 l 2,22,23
 654 1035 654 1035 618.5 1142.5 c 128,-1,24
 583 1250 583 1250 494 1277 c 1,25,-1
 494 242 l 1,26,-1
 364 242 l 1,0,-1
EndSplineSet
EndChar

StartChar: uni20A6
Encoding: 8358 8358 608
Width: 768
VWidth: 2441
GlyphClass: 2
Flags: HW
AnchorPoint: "Anchor-2" 383 0 basechar 0
AnchorPoint: "Anchor-0" 383 1521 basechar 0
LayerCount: 2
Fore
SplineSet
553 437 m 1,0,-1
 553 685 l 1,1,-1
 475 685 l 1,2,-1
 553 437 l 1,0,-1
211 1153 m 1,3,-1
 211 811 l 1,4,-1
 317 811 l 1,5,-1
 211 1153 l 1,3,-1
20 685 m 1,6,-1
 20 811 l 1,7,-1
 102 811 l 1,8,-1
 102 1521 l 1,9,-1
 213 1521 l 1,10,-1
 437 811 l 1,11,-1
 553 811 l 1,12,-1
 553 1521 l 1,13,-1
 679 1521 l 1,14,-1
 679 1504 l 1,15,16
 666 1490 666 1490 663.5 1473 c 128,-1,17
 661 1456 661 1456 661 1414 c 2,18,-1
 661 811 l 1,19,-1
 756 811 l 1,20,-1
 756 685 l 1,21,-1
 661 685 l 1,22,-1
 661 0 l 1,23,-1
 568 0 l 1,24,-1
 355 685 l 1,25,-1
 211 685 l 1,26,-1
 211 0 l 1,27,-1
 102 0 l 1,28,-1
 102 685 l 1,29,-1
 20 685 l 1,6,-1
EndSplineSet
EndChar

StartChar: peseta
Encoding: 8359 8359 609
Width: 768
VWidth: 2441
GlyphClass: 1
Flags: HW
LayerCount: 2
Fore
SplineSet
406 -30 m 0,0,1
 325 -30 325 -30 296.5 41 c 128,-1,2
 274.246575342 96.4383561644 274.246575342 96.4383561644 274.246575342 218.941827735 c 0,0,0
 274.246575342 253.328767123 274.246575342 253.328767123 276 293 c 2,3,-1
 283 520 l 1,4,-1
 199 520 l 1,5,-1
 211 632 l 1,6,-1
 285 632 l 1,7,-1
 285 745 l 1,8,-1
 382 769 l 1,9,-1
 406 774 l 1,10,-1
 410 759 l 1,11,12
 398 740 398 740 390 721.5 c 128,-1,13
 382 703 382 703 382 662 c 2,14,-1
 382 632 l 1,15,-1
 480 632 l 1,16,-1
 467 520 l 1,17,-1
 380 520 l 1,18,-1
 373 310 l 2,19,20
 371.275862069 264.482758621 371.275862069 264.482758621 371.275862069 229.488703924 c 0,0,0
 371.275862069 163 371.275862069 163 377.5 134.5 c 128,-1,21
 387 91 387 91 415 91 c 0,22,23
 442 91 442 91 471 117 c 1,24,-1
 505 210 l 1,25,-1
 512 230 l 1,26,-1
 525 224 l 1,27,28
 534 210 534 210 533 185.5 c 128,-1,29
 532 161 532 161 551 132 c 0,30,31
 563 108 563 108 583 95.5 c 128,-1,32
 603 83 603 83 634 83 c 0,33,34
 670 83 670 83 689.5 106.5 c 128,-1,35
 709 130 709 130 709 161 c 0,36,37
 709 196 709 196 696.5 224 c 128,-1,38
 684 252 684 252 632 275 c 0,39,40
 564 310 564 310 526.5 354 c 128,-1,41
 489 398 489 398 489 473 c 0,42,43
 489 556 489 556 531 601.5 c 128,-1,44
 573 647 573 647 636 647 c 0,45,46
 690 647 690 647 730 621.5 c 128,-1,47
 770 596 770 596 802 547 c 1,48,-1
 750 449 l 1,49,-1
 741 427 l 1,50,-1
 729 435 l 1,51,52
 729 452 729 452 726.5 469 c 128,-1,53
 724 486 724 486 707 508 c 1,54,55
 678 535 678 535 641 535 c 0,56,57
 584 535 584 535 584 476 c 0,58,59
 584 446 584 446 600.5 427 c 128,-1,60
 617 408 617 408 664 380 c 0,61,62
 740 338 740 338 772 293.5 c 128,-1,63
 804 249 804 249 804 179 c 0,64,65
 804 84 804 84 758 24.5 c 128,-1,66
 712 -35 712 -35 636 -35 c 0,67,68
 565 -35 565 -35 510 17 c 1,69,70
 463 -30 463 -30 406 -30 c 0,0,1
197 892 m 2,71,72
 278 892 278 892 309 962 c 128,-1,73
 340 1032 340 1032 340 1153 c 0,74,75
 340 1246 340 1246 308 1317.5 c 128,-1,76
 276 1389 276 1389 199 1389 c 2,77,-1
 181 1389 l 1,78,-1
 181 892 l 1,79,-1
 197 892 l 2,71,72
68 1521 m 1,80,-1
 204 1521 l 2,81,82
 285 1521 285 1521 339.5 1471 c 128,-1,83
 394 1421 394 1421 421.5 1338 c 128,-1,84
 449 1255 449 1255 449 1158 c 0,85,86
 449 995 449 995 388.5 882 c 128,-1,87
 328 769 328 769 211 769 c 2,88,-1
 181 769 l 1,89,-1
 181 0 l 1,90,-1
 68 0 l 1,91,-1
 68 1521 l 1,80,-1
EndSplineSet
EndChar

StartChar: uni20B1
Encoding: 8369 8369 610
Width: 768
VWidth: 2441
GlyphClass: 2
Flags: HW
AnchorPoint: "Anchor-2" 124 0 basechar 0
AnchorPoint: "Anchor-0" 362 1521 basechar 0
LayerCount: 2
Fore
SplineSet
198 813 m 1,0,-1
 358 813 l 2,1,2
 422 813 422 813 465 847 c 128,-1,3
 508 881 508 881 529 939 c 1,4,-1
 198 939 l 1,5,-1
 198 813 l 1,0,-1
553 1091 m 0,6,7
 553 1115 553 1115 551 1137 c 1,8,-1
 198 1137 l 1,9,-1
 198 1039 l 1,10,-1
 551 1039 l 1,11,12
 553 1064 553 1064 553 1091 c 0,6,7
198 1374 m 1,13,-1
 198 1237 l 1,14,-1
 533 1237 l 1,15,16
 490 1374 490 1374 360 1374 c 2,17,-1
 198 1374 l 1,13,-1
68 0 m 1,18,-1
 68 939 l 1,19,-1
 3 939 l 1,20,-1
 3 1039 l 1,21,-1
 68 1039 l 1,22,-1
 68 1137 l 1,23,-1
 3 1137 l 1,24,-1
 3 1237 l 1,25,-1
 68 1237 l 1,26,-1
 68 1521 l 1,27,-1
 362 1521 l 2,28,29
 494 1521 494 1521 569 1446.5 c 128,-1,30
 644 1372 644 1372 667 1237 c 1,31,-1
 739 1237 l 1,32,-1
 739 1137 l 1,33,-1
 678 1137 l 1,34,35
 680 1118 680 1118 680 1097 c 0,36,37
 680 1067 680 1067 678 1039 c 1,38,-1
 739 1039 l 1,39,-1
 739 939 l 1,40,-1
 665 939 l 1,41,42
 636 809 636 809 562 739 c 128,-1,43
 488 669 488 669 372 669 c 2,44,-1
 198 669 l 1,45,-1
 198 0 l 1,46,-1
 68 0 l 1,18,-1
EndSplineSet
EndChar

StartChar: uni20BD
Encoding: 8381 8381 611
Width: 768
VWidth: 2441
GlyphClass: 2
Flags: HW
AnchorPoint: "Anchor-2" 167 0 basechar 0
AnchorPoint: "Anchor-0" 424 1521 basechar 0
LayerCount: 2
Fore
SplineSet
247 813 m 1,0,-1
 420 813 l 2,1,2
 527 813 527 813 578 890 c 128,-1,3
 629 967 629 967 629 1091 c 0,4,5
 629 1226 629 1226 578 1300 c 128,-1,6
 527 1374 527 1374 422 1374 c 2,7,-1
 247 1374 l 1,8,-1
 247 813 l 1,0,-1
107 0 m 1,9,-1
 107 384 l 1,10,-1
 31 384 l 1,11,-1
 33 525 l 1,12,-1
 107 525 l 1,13,-1
 107 671 l 1,14,-1
 31 671 l 1,15,-1
 33 813 l 1,16,-1
 107 813 l 1,17,-1
 107 1521 l 1,18,-1
 424 1521 l 2,19,20
 601 1521 601 1521 684 1407 c 128,-1,21
 767 1293 767 1293 767 1097 c 0,22,23
 767 897 767 897 680.5 783 c 128,-1,24
 594 669 594 669 433 669 c 2,25,-1
 247 669 l 1,26,-1
 247 525 l 1,27,-1
 489 525 l 1,28,-1
 487 384 l 1,29,-1
 247 384 l 1,30,-1
 247 0 l 1,31,-1
 107 0 l 1,9,-1
EndSplineSet
EndChar

StartChar: uni20B9
Encoding: 8377 8377 612
Width: 768
VWidth: 2441
GlyphClass: 1
Flags: HW
LayerCount: 2
Fore
SplineSet
88 818 m 1,0,-1
 322 818 l 2,1,2
 415 818 415 818 462.5 869 c 128,-1,3
 510 920 510 920 522 1009 c 1,4,-1
 88 1009 l 1,5,-1
 88 1148 l 1,6,-1
 525 1148 l 1,7,8
 515 1241 515 1241 467.5 1303 c 128,-1,9
 420 1365 420 1365 322 1365 c 2,10,-1
 88 1365 l 1,11,-1
 88 1516 l 1,12,-1
 789 1516 l 1,13,-1
 789 1377 l 1,14,-1
 559 1377 l 1,15,16
 647 1294 647 1294 666 1148 c 1,17,-1
 789 1148 l 1,18,-1
 789 1009 l 1,19,-1
 669 1009 l 1,20,21
 657 899 657 899 598.5 809.5 c 128,-1,22
 540 720 540 720 452 691 c 1,23,-1
 699 0 l 1,24,-1
 550 0 l 1,25,-1
 315 676 l 1,26,-1
 88 676 l 1,27,-1
 88 818 l 1,0,-1
EndSplineSet
EndChar

StartChar: sterling
Encoding: 163 163 613
Width: 768
VWidth: 2441
GlyphClass: 1
Flags: HW
LayerCount: 2
Fore
SplineSet
122 -19 m 1,0,-1
 66 119 l 1,1,2
 136 168 136 168 173 221.5 c 128,-1,3
 210 275 210 275 225 351 c 128,-1,4
 240 427 240 427 240 542 c 0,5,6
 240 630 240 630 212 786 c 1,7,-1
 107 786 l 1,8,-1
 107 923 l 1,9,-1
 191 923 l 1,10,11
 179 1004 179 1004 179 1079 c 0,12,13
 179 1305 179 1305 270 1413 c 128,-1,14
 361 1521 361 1521 494 1521 c 0,15,16
 626 1521 626 1521 722 1391 c 1,17,-1
 634 1270 l 1,18,19
 604 1319 604 1319 572 1351.5 c 128,-1,20
 540 1384 540 1384 471 1384 c 0,21,22
 403 1384 403 1384 360 1302.5 c 128,-1,23
 317 1221 317 1221 317 1081 c 0,24,25
 317 1049 317 1049 322 1010.5 c 128,-1,26
 327 972 327 972 333 923 c 1,27,-1
 542 923 l 1,28,-1
 542 786 l 1,29,-1
 356 786 l 1,30,31
 368 718 368 718 373 657 c 128,-1,32
 378 596 378 596 378 547 c 0,33,34
 378 454 378 454 367 366 c 128,-1,35
 356 278 356 278 324 207 c 1,36,37
 341.313432836 209.985074627 341.313432836 209.985074627 358.003118735 209.985074627 c 0,38,39
 397.223880597 209.985074627 397.223880597 209.985074627 433 193.5 c 0,40,41
 484 170 484 170 531 146 c 128,-1,42
 578 122 578 122 627 122 c 0,43,44
 659 122 659 122 695.5 135.5 c 128,-1,45
 732 149 732 149 759 181 c 1,46,-1
 801 42 l 1,47,48
 757 0 757 0 713 -18.5 c 128,-1,49
 669 -37 669 -37 625 -37 c 0,50,51
 583 -37 583 -37 527 -9 c 128,-1,52
 471 19 471 19 412.5 46 c 128,-1,53
 354 73 354 73 308 73 c 0,54,55
 271 73 271 73 227 50 c 128,-1,56
 183 27 183 27 122 -19 c 1,0,-1
EndSplineSet
EndChar

StartChar: uni20A9
Encoding: 8361 8361 614
Width: 768
VWidth: 2441
GlyphClass: 2
Flags: HW
AnchorPoint: "Anchor-2" 385 0 basechar 0
AnchorPoint: "Anchor-0" 394 1521 basechar 0
LayerCount: 2
Fore
SplineSet
544 564 m 1,0,-1
 555 710 l 1,1,-1
 522 710 l 1,2,-1
 544 564 l 1,0,-1
241 566 m 1,3,-1
 264 710 l 1,4,-1
 228 710 l 1,5,-1
 241 566 l 1,3,-1
387 950 m 1,6,-1
 365 808 l 1,7,-1
 407 808 l 1,8,-1
 387 950 l 1,6,-1
193 0 m 1,9,-1
 129 710 l 1,10,-1
 20 710 l 1,11,-1
 20 808 l 1,12,-1
 120 808 l 1,13,-1
 56 1521 l 1,14,-1
 160 1521 l 1,15,-1
 222 808 l 1,16,-1
 279 808 l 1,17,-1
 372 1409 l 1,18,-1
 414 1409 l 1,19,-1
 507 808 l 1,20,-1
 562 808 l 1,21,-1
 615 1521 l 1,22,-1
 713 1521 l 1,23,-1
 648 808 l 1,24,-1
 756 808 l 1,25,-1
 756 710 l 1,26,-1
 639 710 l 1,27,-1
 576 0 l 1,28,-1
 524 0 l 1,29,-1
 420 710 l 1,30,-1
 352 710 l 1,31,-1
 246 0 l 1,32,-1
 193 0 l 1,9,-1
EndSplineSet
EndChar

StartChar: yen
Encoding: 165 165 615
Width: 768
VWidth: 2441
GlyphClass: 1
Flags: HW
LayerCount: 2
Fore
SplineSet
513 0 m 1,0,-1
 371 0 l 1,1,-1
 371 240 l 1,2,-1
 144 240 l 1,3,-1
 144 376 l 1,4,-1
 371 376 l 1,5,-1
 371 529 l 1,6,-1
 144 529 l 1,7,-1
 144 669 l 1,8,-1
 371 669 l 1,9,-1
 371 720 l 1,10,-1
 61 1523 l 1,11,-1
 210 1523 l 1,12,-1
 442 904 l 1,13,-1
 654 1521 l 1,14,-1
 796 1521 l 1,15,-1
 513 720 l 1,16,-1
 513 669 l 1,17,-1
 727 669 l 1,18,-1
 727 529 l 1,19,-1
 513 529 l 1,20,-1
 513 376 l 1,21,-1
 727 376 l 1,22,-1
 727 240 l 1,23,-1
 513 240 l 1,24,-1
 513 0 l 1,0,-1
EndSplineSet
EndChar

StartChar: asteriskmath
Encoding: 8727 8727 616
Width: 768
VWidth: 2441
GlyphClass: 1
Flags: HW
LayerCount: 2
Fore
SplineSet
235 333 m 1,0,-1
 130 427 l 1,1,-1
 356 803 l 1,2,-1
 66 932 l 1,3,-1
 117 1074 l 1,4,-1
 380 908 l 1,5,-1
 356 1340 l 1,6,-1
 505 1340 l 1,7,-1
 473 908 l 1,8,-1
 745 1069 l 1,9,-1
 792 932 l 1,10,-1
 494 803 l 1,11,-1
 720 427 l 1,12,-1
 615 335 l 1,13,-1
 424 720 l 1,14,-1
 235 333 l 1,0,-1
EndSplineSet
EndChar

StartChar: uni2215
Encoding: 8725 8725 618
Width: 768
VWidth: 2408
GlyphClass: 1
Flags: HW
LayerCount: 2
Fore
SplineSet
178 -246 m 1,0,-1
 69 -215 l 1,1,-1
 610 1897 l 1,2,-1
 721 1863 l 1,3,-1
 178 -246 l 1,0,-1
EndSplineSet
EndChar

StartChar: element
Encoding: 8712 8712 619
Width: 768
VWidth: 2441
GlyphClass: 1
Flags: HW
LayerCount: 2
Fore
SplineSet
501 10 m 2,0,1
 296 10 296 10 179.5 149 c 128,-1,2
 63 288 63 288 63 550 c 0,3,4
 63 811 63 811 180.5 958.5 c 128,-1,5
 298 1106 298 1106 496 1106 c 2,6,-1
 769 1106 l 1,7,-1
 769 1009 l 1,8,-1
 522 1009 l 2,9,10
 356 1009 356 1009 264.5 904 c 128,-1,11
 173 799 173 799 163 601 c 1,12,-1
 769 601 l 1,13,-1
 769 503 l 1,14,-1
 163 503 l 1,15,16
 180 107 180 107 522 107 c 2,17,-1
 769 107 l 1,18,-1
 769 10 l 1,19,-1
 501 10 l 2,0,1
EndSplineSet
EndChar

StartChar: plus
Encoding: 43 43 621
Width: 768
VWidth: 2441
GlyphClass: 1
Flags: HW
LayerCount: 2
Fore
SplineSet
371 254 m 1,0,-1
 371 715 l 1,1,-1
 70 715 l 1,2,-1
 70 855 l 1,3,-1
 371 855 l 1,4,-1
 371 1277 l 1,5,-1
 498 1277 l 1,6,-1
 498 855 l 1,7,-1
 786 855 l 1,8,-1
 786 715 l 1,9,-1
 498 715 l 1,10,-1
 498 254 l 1,11,-1
 371 254 l 1,0,-1
EndSplineSet
EndChar

StartChar: minus
Encoding: 8722 8722 622
Width: 768
VWidth: 2441
GlyphClass: 1
Flags: HW
LayerCount: 2
Fore
SplineSet
70 715 m 1,0,-1
 70 855 l 1,1,-1
 786 855 l 1,2,-1
 786 715 l 1,3,-1
 70 715 l 1,0,-1
EndSplineSet
Substitution2: "'sups' Superscript in Latin lookup 20 subtable" uni207B
Substitution2: "'aalt' Access All Alternates in Latin lookup 0 subtable" uni207B
EndChar

StartChar: multiply
Encoding: 215 215 623
Width: 768
VWidth: 2441
GlyphClass: 1
Flags: HW
LayerCount: 2
Fore
SplineSet
647 340 m 1,0,-1
 435 669 l 1,1,-1
 224 349 l 1,2,-1
 139 457 l 1,3,-1
 356 792 l 1,4,-1
 139 1130 l 1,5,-1
 230 1242 l 1,6,-1
 437 916 l 1,7,-1
 650 1242 l 1,8,-1
 743 1135 l 1,9,-1
 517 794 l 1,10,-1
 737 452 l 1,11,-1
 647 340 l 1,0,-1
EndSplineSet
EndChar

StartChar: divide
Encoding: 247 247 624
Width: 768
VWidth: 2441
GlyphClass: 1
Flags: HW
LayerCount: 2
Fore
SplineSet
437 266 m 128,-1,1
 402 266 402 266 377 294 c 128,-1,2
 352 322 352 322 352 359 c 0,3,4
 352 401 352 401 377.5 429 c 128,-1,5
 403 457 403 457 437 457 c 0,6,7
 472 457 472 457 496 427.5 c 128,-1,8
 520 398 520 398 520 359 c 0,9,10
 520 322 520 322 496 294 c 128,-1,0
 472 266 472 266 437 266 c 128,-1,1
122 685 m 1,11,-1
 122 850 l 1,12,-1
 737 850 l 1,13,-1
 737 685 l 1,14,-1
 122 685 l 1,11,-1
435 1067 m 0,15,16
 400 1067 400 1067 376 1095 c 128,-1,17
 352 1123 352 1123 352 1160 c 0,18,19
 352 1199 352 1199 377.5 1228.5 c 128,-1,20
 403 1258 403 1258 435 1258 c 0,21,22
 472 1258 472 1258 496 1228.5 c 128,-1,23
 520 1199 520 1199 520 1160 c 0,24,25
 520 1123 520 1123 496 1095 c 128,-1,26
 472 1067 472 1067 435 1067 c 0,15,16
EndSplineSet
EndChar

StartChar: equal
Encoding: 61 61 625
Width: 768
VWidth: 2441
GlyphClass: 1
Flags: HW
LayerCount: 2
Fore
SplineSet
79 447 m 1,0,-1
 79 591 l 1,1,-1
 781 591 l 1,2,-1
 781 447 l 1,3,-1
 79 447 l 1,0,-1
79 952 m 1,4,-1
 79 1097 l 1,5,-1
 781 1097 l 1,6,-1
 781 952 l 1,7,-1
 79 952 l 1,4,-1
EndSplineSet
EndChar

StartChar: notequal
Encoding: 8800 8800 626
Width: 768
VWidth: 2441
GlyphClass: 1
Flags: HW
LayerCount: 2
Fore
SplineSet
79 447 m 1,0,-1
 79 591 l 1,1,-1
 293 591 l 1,2,-1
 435 952 l 1,3,-1
 79 952 l 1,4,-1
 79 1097 l 1,5,-1
 494 1097 l 1,6,-1
 632 1458 l 1,7,-1
 734 1396 l 1,8,-1
 617 1097 l 1,9,-1
 781 1097 l 1,10,-1
 781 952 l 1,11,-1
 561 952 l 1,12,-1
 420 591 l 1,13,-1
 781 591 l 1,14,-1
 781 447 l 1,15,-1
 364 447 l 1,16,-1
 222 88 l 1,17,-1
 119 147 l 1,18,-1
 237 447 l 1,19,-1
 79 447 l 1,0,-1
EndSplineSet
EndChar

StartChar: greater
Encoding: 62 62 627
Width: 768
VWidth: 2441
GlyphClass: 1
Flags: HW
LayerCount: 2
Fore
SplineSet
68 114 m 1,0,-1
 68 300 l 1,1,-1
 657 778 l 1,2,-1
 70 1211 l 1,3,-1
 70 1384 l 1,4,-1
 796 834 l 1,5,-1
 796 727 l 1,6,-1
 68 114 l 1,0,-1
EndSplineSet
EndChar

StartChar: less
Encoding: 60 60 628
Width: 768
VWidth: 2441
GlyphClass: 1
Flags: HW
LayerCount: 2
Fore
SplineSet
786 114 m 1,0,-1
 58 727 l 1,1,-1
 58 834 l 1,2,-1
 783 1384 l 1,3,-1
 783 1211 l 1,4,-1
 198 778 l 1,5,-1
 786 300 l 1,6,-1
 786 114 l 1,0,-1
EndSplineSet
EndChar

StartChar: lessequal
Encoding: 8804 8804 630
Width: 768
VWidth: 2441
GlyphClass: 1
Flags: HW
LayerCount: 2
Fore
SplineSet
75 46 m 1,0,-1
 75 191 l 1,1,-1
 778 191 l 1,2,-1
 778 46 l 1,3,-1
 75 46 l 1,0,-1
778 261 m 1,4,-1
 58 747 l 1,5,-1
 58 864 l 1,6,-1
 778 1286 l 1,7,-1
 778 1113 l 1,8,-1
 193 806 l 1,9,-1
 778 429 l 1,10,-1
 778 261 l 1,4,-1
EndSplineSet
EndChar

StartChar: plusminus
Encoding: 177 177 631
Width: 768
VWidth: 2441
GlyphClass: 1
Flags: HW
LayerCount: 2
Fore
SplineSet
79 42 m 1,0,-1
 79 196 l 1,1,-1
 781 196 l 1,2,-1
 781 42 l 1,3,-1
 79 42 l 1,0,-1
364 378 m 1,4,-1
 364 837 l 1,5,-1
 79 837 l 1,6,-1
 79 986 l 1,7,-1
 364 986 l 1,8,-1
 364 1404 l 1,9,-1
 501 1404 l 1,10,-1
 501 986 l 1,11,-1
 778 986 l 1,12,-1
 778 837 l 1,13,-1
 501 837 l 1,14,-1
 501 378 l 1,15,-1
 364 378 l 1,4,-1
EndSplineSet
EndChar

StartChar: asciitilde
Encoding: 126 126 633
Width: 768
VWidth: 2441
GlyphClass: 1
Flags: HW
LayerCount: 2
Fore
SplineSet
596 650 m 0,0,1
 535 650 535 650 492 682.5 c 128,-1,2
 449 715 449 715 413.5 746.5 c 128,-1,3
 378 778 378 778 342 778 c 0,4,5
 305 778 305 778 277 755 c 128,-1,6
 249 732 249 732 219 666 c 1,7,-1
 119 720 l 1,8,9
 146 803 146 803 200 859.5 c 128,-1,10
 254 916 254 916 333 916 c 0,11,12
 396 916 396 916 436 882 c 128,-1,13
 476 848 476 848 510.5 812 c 128,-1,14
 545 776 545 776 587 776 c 0,15,16
 622 776 622 776 643 804 c 128,-1,17
 664 832 664 832 696 901 c 1,18,-1
 792 832 l 1,19,20
 748 729 748 729 703.5 689.5 c 128,-1,21
 659 650 659 650 596 650 c 0,0,1
EndSplineSet
Substitution2: "'ss01' Style Set 1 in Latin lookup 35 subtable" asciitilde.ss01
Substitution2: "'salt' Stylistic Alternatives in Latin lookup 34 subtable" asciitilde.ss01
Substitution2: "'aalt' Access All Alternates in Latin lookup 0 subtable" asciitilde.ss01
EndChar

StartChar: logicalnot
Encoding: 172 172 634
Width: 768
VWidth: 2441
GlyphClass: 1
Flags: HW
LayerCount: 2
Fore
SplineSet
569 384 m 1,0,-1
 569 694 l 1,1,-1
 156 694 l 1,2,-1
 156 848 l 1,3,-1
 708 848 l 1,4,-1
 708 384 l 1,5,-1
 569 384 l 1,0,-1
EndSplineSet
EndChar

StartChar: asciicircum
Encoding: 94 94 635
Width: 768
VWidth: 2441
GlyphClass: 1
Flags: HW
LayerCount: 2
Fore
SplineSet
252 837 m 1,0,-1
 151 883 l 1,1,-1
 415 1521 l 1,2,-1
 466 1521 l 1,3,-1
 696 886 l 1,4,-1
 594 837 l 1,5,-1
 432 1250 l 1,6,-1
 252 837 l 1,0,-1
EndSplineSet
Substitution2: "'ss01' Style Set 1 in Latin lookup 35 subtable" asciicircum.ss01
Substitution2: "'salt' Stylistic Alternatives in Latin lookup 34 subtable" asciicircum.ss01
Substitution2: "'aalt' Access All Alternates in Latin lookup 0 subtable" asciicircum.ss01
EndChar

StartChar: infinity
Encoding: 8734 8734 636
Width: 768
VWidth: 2441
GlyphClass: 1
Flags: HW
LayerCount: 2
Fore
SplineSet
641 737 m 0,0,1
 641 816 641 816 618 862 c 128,-1,2
 595 908 595 908 553 908 c 0,3,4
 486 908 486 908 436 737 c 1,5,6
 488 567 488 567 551 566 c 0,7,8
 597 566 597 566 619 615 c 128,-1,9
 641 664 641 664 641 737 c 0,0,1
322 740 m 1,10,11
 293 835 293 835 266 873 c 128,-1,12
 239 911 239 911 207 911 c 0,13,14
 163 911 163 911 139 863 c 128,-1,15
 115 815 115 815 115 740 c 128,-1,16
 115 665 115 665 139 617 c 128,-1,17
 163 569 163 569 207 569 c 0,18,19
 246 569 246 569 272 614 c 128,-1,20
 298 659 298 659 322 740 c 1,10,11
746 737 m 0,21,22
 746 605 746 605 693.5 514.5 c 128,-1,23
 641 424 641 424 560 424 c 0,24,25
 506 424 506 424 460 470.5 c 128,-1,26
 414 517 414 517 376 617 c 1,27,28
 297 424 297 424 195 424 c 0,29,30
 116 424 116 424 63 513.5 c 128,-1,31
 10 603 10 603 10 737 c 0,32,33
 10 874 10 874 64 963.5 c 128,-1,34
 118 1053 118 1053 195 1053 c 0,35,36
 249 1053 249 1053 295.5 1010 c 128,-1,37
 342 967 342 967 379 859 c 1,38,39
 451 1052 451 1052 562 1053 c 0,40,41
 641 1053 641 1053 693.5 967 c 128,-1,42
 746 881 746 881 746 737 c 0,21,22
EndSplineSet
EndChar

StartChar: emptyset
Encoding: 8709 8709 637
Width: 768
VWidth: 2441
GlyphClass: 1
Flags: HW
LayerCount: 2
Fore
SplineSet
383 386 m 0,0,1
 454 386 454 386 507.5 442 c 128,-1,2
 561 498 561 498 591.5 591.5 c 128,-1,3
 622 685 622 685 622 796 c 0,4,5
 622 920 622 920 582 1023 c 1,6,-1
 229 484 l 1,7,8
 258 438 258 438 297.5 412 c 128,-1,9
 337 386 337 386 383 386 c 0,0,1
149 796 m 0,10,11
 149 672 149 672 185 569 c 1,12,-1
 540 1106 l 1,13,14
 509 1152 509 1152 469 1177 c 128,-1,15
 429 1202 429 1202 383 1202 c 0,16,17
 312 1202 312 1202 259.5 1146.5 c 128,-1,18
 207 1091 207 1091 178 998.5 c 128,-1,19
 149 906 149 906 149 796 c 0,10,11
77 254 m 1,20,-1
 17 317 l 1,21,-1
 115 464 l 1,22,23
 47 608 47 608 46 796 c 0,24,25
 46 945 46 945 89 1065.5 c 128,-1,26
 132 1186 132 1186 208 1258 c 128,-1,27
 284 1330 284 1330 383 1330 c 0,28,29
 449 1330 449 1330 505 1297.5 c 128,-1,30
 561 1265 561 1265 606 1209 c 1,31,-1
 694 1342 l 1,32,-1
 753 1279 l 1,33,-1
 654 1130 l 1,34,35
 725 986 725 986 725 796 c 0,36,37
 725 649 725 649 681 527 c 128,-1,38
 637 405 637 405 561 332 c 128,-1,39
 485 259 485 259 383 259 c 0,40,41
 317 259 317 259 261 291.5 c 128,-1,42
 205 324 205 324 163 384 c 1,43,-1
 77 254 l 1,20,-1
EndSplineSet
EndChar

StartChar: integral
Encoding: 8747 8747 638
Width: 768
VWidth: 2358
GlyphClass: 1
Flags: HW
LayerCount: 2
Fore
SplineSet
212 -246 m 0,0,1
 156 -246 156 -246 107 -218 c 1,2,-1
 107 -90 l 1,3,4
 151 -118 151 -118 200 -118 c 0,5,6
 254 -118 254 -118 284.5 -57 c 128,-1,7
 315 4 315 4 315 143 c 2,8,-1
 315 1465 l 2,9,10
 315 1667 315 1667 376 1761 c 128,-1,11
 437 1855 437 1855 546 1855 c 0,12,13
 576 1855 576 1855 599 1848 c 128,-1,14
 622 1841 622 1841 641 1830 c 1,15,-1
 641 1704 l 1,16,17
 599 1728 599 1728 555 1728 c 0,18,19
 494 1728 494 1728 466.5 1670 c 128,-1,20
 439 1612 439 1612 439 1448 c 2,21,-1
 439 128 l 2,22,23
 439 -63 439 -63 373.5 -154.5 c 128,-1,24
 308 -246 308 -246 212 -246 c 0,0,1
EndSplineSet
EndChar

StartChar: uni2126
Encoding: 8486 8486 639
Width: 768
VWidth: 2441
GlyphClass: 1
Flags: HW
LayerCount: 2
Fore
SplineSet
403 1489 m 0,0,1
 283 1489 283 1489 224 1323.5 c 128,-1,2
 165 1158 165 1158 165 840 c 0,3,4
 165 603 165 603 213 425 c 128,-1,5
 261 247 261 247 348 168 c 1,6,-1
 348 0 l 1,7,-1
 65 0 l 1,8,-1
 65 154 l 1,9,-1
 218 154 l 1,10,11
 135 247 135 247 83.5 428.5 c 128,-1,12
 32 610 32 610 32 862 c 0,13,14
 32 1277 32 1277 131.5 1462 c 128,-1,15
 231 1647 231 1647 403 1647 c 0,16,17
 570 1647 570 1647 669 1464 c 128,-1,18
 768 1281 768 1281 768 859 c 0,19,20
 768 615 768 615 717.5 429.5 c 128,-1,21
 667 244 667 244 579 154 c 1,22,-1
 737 154 l 1,23,-1
 737 0 l 1,24,-1
 450 0 l 1,25,-1
 450 168 l 1,26,27
 557 254 557 254 596.5 430 c 128,-1,28
 636 606 636 606 636 837 c 0,29,30
 636.004255319 839.774468085 636.004255319 839.774468085 636.004255319 842.537129923 c 0,0,0
 636.004255319 1489 636.004255319 1489 403 1489 c 0,0,1
EndSplineSet
EndChar

StartChar: uni2206
Encoding: 8710 8710 640
Width: 768
VWidth: 2441
GlyphClass: 1
Flags: HW
LayerCount: 2
Fore
SplineSet
644 142 m 1,0,-1
 424 1407 l 1,1,-1
 198 142 l 1,2,-1
 644 142 l 1,0,-1
504 1624 m 1,3,-1
 789 107 l 1,4,-1
 789 2 l 1,5,-1
 53 2 l 1,6,-1
 53 110 l 1,7,-1
 343 1624 l 1,8,-1
 504 1624 l 1,3,-1
EndSplineSet
EndChar

StartChar: product
Encoding: 8719 8719 641
Width: 768
VWidth: 2339
GlyphClass: 1
Flags: HW
LayerCount: 2
Fore
SplineSet
83 -246 m 1,0,-1
 83 1521 l 1,1,-1
 680 1521 l 1,2,3
 680 1506 680 1506 676 1495 c 128,-1,4
 672 1484 672 1484 672 1473 c 2,5,-1
 672 -246 l 1,6,-1
 546 -246 l 1,7,-1
 546 1397 l 1,8,-1
 213 1397 l 1,9,-1
 213 -246 l 1,10,-1
 83 -246 l 1,0,-1
EndSplineSet
EndChar

StartChar: summation
Encoding: 8721 8721 642
Width: 768
VWidth: 2372
GlyphClass: 1
Flags: HW
LayerCount: 2
Fore
SplineSet
62 -246 m 1,0,-1
 62 -132 l 1,1,-1
 367 693 l 1,2,-1
 62 1503 l 1,3,-1
 62 1631 l 1,4,-1
 723 1631 l 1,5,-1
 723 1503 l 1,6,-1
 211 1503 l 1,7,-1
 506 698 l 1,8,-1
 199 -118 l 1,9,-1
 723 -118 l 1,10,-1
 723 -246 l 1,11,-1
 62 -246 l 1,0,-1
EndSplineSet
EndChar

StartChar: radical
Encoding: 8730 8730 643
Width: 768
VWidth: 2441
GlyphClass: 1
Flags: HW
LayerCount: 2
Fore
SplineSet
286 -17 m 1,0,-1
 124 699 l 1,1,-1
 1 699 l 1,2,-1
 1 827 l 1,3,-1
 208 827 l 1,4,-1
 336 237 l 1,5,-1
 622 1647 l 1,6,-1
 737 1647 l 1,7,-1
 390 -17 l 1,8,-1
 286 -17 l 1,0,-1
EndSplineSet
EndChar

StartChar: uni00B5
Encoding: 181 181 644
Width: 768
VWidth: 2299
GlyphClass: 1
Flags: HW
LayerCount: 2
Fore
SplineSet
28 -246 m 1,0,1
 28 -209 28 -209 31 -130.5 c 128,-1,2
 34 -52 34 -52 38.5 46.5 c 128,-1,3
 43 145 43 145 48 245 c 128,-1,4
 53 345 53 345 55.5 428.5 c 128,-1,5
 58 512 58 512 58 560 c 2,6,-1
 58 1116 l 1,7,-1
 180 1116 l 1,8,-1
 180 524 l 2,9,10
 180 343 180 343 215.5 277.5 c 128,-1,11
 251 212 251 212 307 212 c 0,12,13
 384 212 384 212 417.5 300.5 c 128,-1,14
 451 389 451 389 451 537 c 2,15,-1
 451 1116 l 1,16,-1
 571 1116 l 1,17,-1
 571 372 l 2,18,19
 571 297 571 297 580.5 259 c 128,-1,20
 590 221 590 221 621 221 c 0,21,22
 642 221 642 221 664 247 c 128,-1,23
 686 273 686 273 696 302 c 2,24,-1
 704 328 l 1,25,-1
 746 216 l 1,26,27
 690.462809917 96.9917355372 690.462809917 96.9917355372 614.271292944 96.9917355372 c 0,0,0
 613.636363636 96.9917355372 613.636363636 96.9917355372 613 97 c 0,28,29
 563 97 563 97 527.5 137 c 128,-1,30
 492 177 492 177 488 247 c 1,31,32
 461 170 461 170 409 133.5 c 128,-1,33
 357 97 357 97 301 97 c 0,34,35
 185 97 185 97 143 223 c 1,36,37
 143 98 143 98 143 -11.5 c 128,-1,38
 143 -121 143 -121 143 -246 c 1,39,-1
 28 -246 l 1,0,1
EndSplineSet
EndChar

StartChar: partialdiff
Encoding: 8706 8706 645
Width: 768
VWidth: 2441
GlyphClass: 1
Flags: HW
LayerCount: 2
Fore
SplineSet
384 107 m 0,0,1
 456 107 456 107 505.5 162 c 128,-1,2
 555 217 555 217 585.5 306.5 c 128,-1,3
 616 396 616 396 633 502 c 128,-1,4
 650 608 650 608 655 713 c 1,5,6
 572 967 572 967 432 967 c 0,7,8
 360 967 360 967 312 914.5 c 128,-1,9
 264 862 264 862 237.5 778 c 128,-1,10
 211 694 211 694 202.5 596 c 128,-1,11
 197.838709677 542.258064516 197.838709677 542.258064516 197.838709677 490.921956296 c 0,0,0
 197.838709677 448.64516129 197.838709677 448.64516129 201 408 c 0,12,13
 227 107 227 107 384 107 c 0,0,1
381 -27 m 0,14,15
 233 -27 233 -27 155.5 96 c 128,-1,16
 78 219 78 219 63 412 c 0,17,18
 59.693877551 455.714285714 59.693877551 455.714285714 59.693877551 499.765930862 c 0,0,0
 59.693877551 575.632653061 59.693877551 575.632653061 69.5 652.5 c 128,-1,19
 85 774 85 774 126 875 c 128,-1,20
 167 976 167 976 236 1037.5 c 128,-1,21
 305 1099 305 1099 403 1099 c 0,22,23
 488 1099 488 1099 550.5 1051.5 c 128,-1,24
 613 1004 613 1004 655 918 c 1,25,26
 657 953 657 953 654.5 973.5 c 128,-1,27
 652 994 652 994 650 1025 c 0,28,29
 638 1157 638 1157 611.5 1260 c 128,-1,30
 585 1363 585 1363 534 1421 c 128,-1,31
 483 1479 483 1479 395 1479 c 0,32,33
 349 1479 349 1479 294.5 1462 c 128,-1,34
 240 1445 240 1445 201 1411 c 1,35,-1
 189 1556 l 1,36,37
 240 1588 240 1588 293.5 1601 c 128,-1,38
 347 1614 347 1614 395 1614 c 0,39,40
 582 1614 582 1614 670.5 1468.5 c 128,-1,41
 759 1323 759 1323 786 1016 c 0,42,43
 795.322580645 910.161290323 795.322580645 910.161290323 795.322580645 806.578043704 c 0,0,0
 795.322580645 721.274193548 795.322580645 721.274193548 789 637.5 c 128,-1,44
 775 452 775 452 729.5 301.5 c 128,-1,45
 684 151 684 151 598 62 c 128,-1,46
 512 -27 512 -27 381 -27 c 0,14,15
EndSplineSet
EndChar

StartChar: percent
Encoding: 37 37 646
Width: 768
VWidth: 2441
GlyphClass: 1
Flags: HW
LayerCount: 2
Fore
SplineSet
596 93 m 0,0,1
 633 93 633 93 655 142 c 128,-1,2
 677 191 677 191 677 288 c 0,3,4
 677 374 677 374 656 431.5 c 128,-1,5
 635 489 635 489 594 489 c 0,6,7
 559 489 559 489 536.5 442.5 c 128,-1,8
 514 396 514 396 514 293 c 0,9,10
 514 188 514 188 539 140.5 c 128,-1,11
 564 93 564 93 596 93 c 0,0,1
596 -24 m 0,12,13
 518 -24 518 -24 465.5 61.5 c 128,-1,14
 413 147 413 147 413 291 c 128,-1,15
 413 435 413 435 466 521.5 c 128,-1,16
 519 608 519 608 596 608 c 0,17,18
 674 608 674 608 725.5 521.5 c 128,-1,19
 777 435 777 435 777 291 c 128,-1,20
 777 147 777 147 724.5 61.5 c 128,-1,21
 672 -24 672 -24 596 -24 c 0,12,13
225 1035 m 128,-1,23
 257 1035 257 1035 278.5 1080 c 128,-1,24
 300 1125 300 1125 300 1230 c 128,-1,25
 300 1335 300 1335 277 1380.5 c 128,-1,26
 254 1426 254 1426 223 1426 c 0,27,28
 191 1426 191 1426 169 1380.5 c 128,-1,29
 147 1335 147 1335 147 1230 c 0,30,31
 147 1127 147 1127 170 1081 c 128,-1,22
 193 1035 193 1035 225 1035 c 128,-1,23
68 0 m 1,32,-1
 624 1521 l 1,33,-1
 732 1521 l 1,34,-1
 173 0 l 1,35,-1
 68 0 l 1,32,-1
225 911 m 0,36,37
 147 911 147 911 94 996 c 128,-1,38
 41 1081 41 1081 41 1230 c 0,39,40
 41 1374 41 1374 94 1460.5 c 128,-1,41
 147 1547 147 1547 225 1547 c 128,-1,42
 303 1547 303 1547 356 1459.5 c 128,-1,43
 409 1372 409 1372 409 1228 c 0,44,45
 409 1079 409 1079 357.5 995 c 128,-1,46
 306 911 306 911 225 911 c 0,36,37
EndSplineSet
EndChar

StartChar: perthousand
Encoding: 8240 8240 647
Width: 768
VWidth: 2441
GlyphClass: 1
Flags: HW
LayerCount: 2
Fore
SplineSet
602 95 m 0
 630 95 630 95 649 137 c 0
 668 179 668 179 668 271 c 0
 668 364 668 364 646 406 c 0
 624.511627907 447.023255814 624.511627907 447.023255814 599.207138994 447.023255814 c 0,0,0
 598.604651163 447.023255814 598.604651163 447.023255814 598 447 c 0
 597.395348837 447.023255814 597.395348837 447.023255814 596.793942672 447.023255814 c 0,0,0
 571.534883721 447.023255814 571.534883721 447.023255814 552 406 c 0
 532 364 532 364 531 271 c 0
 530.956521739 266.956521739 530.956521739 266.956521739 530.956521739 263.009451796 c 0,0,0
 530.956521739 176.173913043 530.956521739 176.173913043 552 136 c 0
 573.488372093 94.976744186 573.488372093 94.976744186 600.700919416 94.976744186 c 0,0,0
 601.348837209 94.976744186 601.348837209 94.976744186 602 95 c 0
208 95 m 0
 236 95 236 95 256 137 c 0
 276 179 276 179 277 271 c 0
 277 364 277 364 255 406 c 0
 234.488372093 447.023255814 234.488372093 447.023255814 207.298539751 447.023255814 c 0,0,0
 206.651162791 447.023255814 206.651162791 447.023255814 206 447 c 0
 205.348837209 447.023255814 205.348837209 447.023255814 204.702001082 447.023255814 c 0,0,0
 177.534883721 447.023255814 177.534883721 447.023255814 158 406 c 0
 138 364 138 364 137 271 c 0
 136.956521739 266.956521739 136.956521739 266.956521739 136.956521739 263.009451796 c 0,0,0
 136.956521739 176.173913043 136.956521739 176.173913043 158 136 c 0
 179.488372093 94.976744186 179.488372093 94.976744186 206.700919416 94.976744186 c 0,0,0
 207.348837209 94.976744186 207.348837209 94.976744186 208 95 c 0
602 -27 m 0
 601.160493827 -27.012345679 601.160493827 -27.012345679 600.323731139 -27.012345679 c 0,0,0
 533.382716049 -27.012345679 533.382716049 -27.012345679 484 52 c 0
 434 132 434 132 434 271 c 0
 433.923076923 275.730769231 433.923076923 275.730769231 433.923076923 280.406804734 c 0,0,0
 433.923076923 397.307692308 433.923076923 397.307692308 482 480 c 0
 532 566 532 566 602 566 c 0
 668 566 668 566 718 486 c 0
 766.076923077 409.076923077 766.076923077 409.076923077 766.076923077 278.529585799 c 0,0,0
 766.076923077 273.307692308 766.076923077 273.307692308 766 268 c 0
 766 129 766 129 719 51 c 0
 672 -27 672 -27 602 -27 c 0
208 -27 m 0
 207.160493827 -27.012345679 207.160493827 -27.012345679 206.323731139 -27.012345679 c 0,0,0
 139.382716049 -27.012345679 139.382716049 -27.012345679 90 52 c 0
 40.9803921569 130.431372549 40.9803921569 130.431372549 40.9803921569 265.571703191 c 0,0,0
 40.9803921569 268.274509804 40.9803921569 268.274509804 41 271 c 0
 40.9803921569 273.68627451 40.9803921569 273.68627451 40.9803921569 276.350249904 c 0,0,0
 40.9803921569 409.549019608 40.9803921569 409.549019608 90 487 c 0
 140 566 140 566 208 566 c 0
 276 566 276 566 326 480 c 0
 375.019607843 395.68627451 375.019607843 395.68627451 375.019607843 272.92579777 c 0,0,0
 375.019607843 127.614379085 375.019607843 127.614379085 326 50 c 0
 278 -26 278 -26 208 -27 c 0
32 552 m 1
 32 689 l 1
 768 1323 l 1
 768 1186 l 1
 32 552 l 1
208 1072 m 0
 236 1072 236 1072 256 1114 c 0
 276 1156 276 1156 277 1248 c 0
 277 1341 277 1341 255 1382 c 0
 234 1423 234 1423 206 1423 c 0
 205.348837209 1423.02325581 205.348837209 1423.02325581 204.702001082 1423.02325581 c 0,0,0
 177.534883721 1423.02325581 177.534883721 1423.02325581 158 1382 c 0
 138 1340 138 1340 137 1248 c 0
 136.956521739 1244 136.956521739 1244 136.956521739 1240.09451796 c 0,0,0
 136.956521739 1154.17391304 136.956521739 1154.17391304 158 1114 c 0
 180 1072 180 1072 208 1072 c 0
208 950 m 0
 140 950 140 950 90 1030 c 0
 40.9803921569 1108.43137255 40.9803921569 1108.43137255 40.9803921569 1242.61053441 c 0,0,0
 40.9803921569 1245.29411765 40.9803921569 1245.29411765 41 1248 c 0
 40.9803921569 1250.68627451 40.9803921569 1250.68627451 40.9803921569 1253.3502499 c 0,0,0
 40.9803921569 1386.54901961 40.9803921569 1386.54901961 90 1464 c 0
 140 1543 140 1543 208 1543 c 0
 276 1542 276 1542 326 1462 c 0
 375.019607843 1383.56862745 375.019607843 1383.56862745 375.019607843 1250.35063437 c 0,0,0
 375.019607843 1247.68627451 375.019607843 1247.68627451 375 1245 c 0
 374 1102 374 1102 326 1026 c 0
 278 950 278 950 208 950 c 0
EndSplineSet
EndChar

StartChar: circleplus
Encoding: 8853 8853 648
Width: 768
VWidth: 2441
GlyphClass: 1
Flags: HW
LayerCount: 2
Fore
SplineSet
383 415 m 1,0,-1
 383 713 l 1,1,-1
 196 713 l 1,2,-1
 196 806 l 1,3,-1
 383 806 l 1,4,-1
 383 1079 l 1,5,-1
 469 1079 l 1,6,-1
 469 806 l 1,7,-1
 651 806 l 1,8,-1
 651 713 l 1,9,-1
 469 713 l 1,10,-1
 469 415 l 1,11,-1
 383 415 l 1,0,-1
423 352 m 0,12,13
 501 352 501 352 563.5 405.5 c 128,-1,14
 626 459 626 459 664 549.5 c 128,-1,15
 702 640 702 640 702 752 c 128,-1,16
 702 864 702 864 664 954.5 c 128,-1,17
 626 1045 626 1045 563.5 1097.5 c 128,-1,18
 501 1150 501 1150 423 1150 c 0,19,20
 343 1150 343 1150 280 1097.5 c 128,-1,21
 217 1045 217 1045 180 954.5 c 128,-1,22
 143 864 143 864 143 752 c 128,-1,23
 143 640 143 640 180 549.5 c 128,-1,24
 217 459 217 459 280 405.5 c 128,-1,25
 343 352 343 352 423 352 c 0,12,13
423 256 m 0,26,27
 317 256 317 256 234.5 322.5 c 128,-1,28
 152 389 152 389 104 501 c 128,-1,29
 56 613 56 613 56 752 c 0,30,31
 56 894 56 894 104 1005 c 128,-1,32
 152 1116 152 1116 234.5 1182 c 128,-1,33
 317 1248 317 1248 423 1248 c 0,34,35
 527 1248 527 1248 611 1182 c 128,-1,36
 695 1116 695 1116 743.5 1005 c 128,-1,37
 792 894 792 894 792 752 c 0,38,39
 792 613 792 613 743.5 501 c 128,-1,40
 695 389 695 389 611 322.5 c 128,-1,41
 527 256 527 256 423 256 c 0,26,27
EndSplineSet
EndChar

StartChar: arrowup
Encoding: 8593 8593 651
Width: 768
VWidth: 2441
GlyphClass: 1
Flags: HW
LayerCount: 2
Fore
SplineSet
364 17 m 1,0,-1
 364 1065 l 1,1,-1
 188 769 l 1,2,-1
 100 843 l 1,3,-1
 420 1419 l 1,4,-1
 459 1419 l 1,5,-1
 755 837 l 1,6,-1
 662 769 l 1,7,-1
 496 1062 l 1,8,-1
 496 17 l 1,9,-1
 364 17 l 1,0,-1
EndSplineSet
EndChar

StartChar: uni2197
Encoding: 8599 8599 652
Width: 768
VWidth: 2441
GlyphClass: 1
Flags: HW
LayerCount: 2
Fore
SplineSet
20 356 m 1,0,-1
 540 1197 l 1,1,-1
 246 1142 l 1,2,-1
 238 1277 l 1,3,-1
 732 1367 l 1,4,-1
 756 1328 l 1,5,-1
 683 650 l 1,6,-1
 572 669 l 1,7,-1
 613 1074 l 1,8,-1
 102 275 l 1,9,-1
 20 356 l 1,0,-1
EndSplineSet
EndChar

StartChar: arrowright
Encoding: 8594 8594 653
Width: 768
VWidth: 2441
GlyphClass: 1
Flags: HW
LayerCount: 2
Fore
SplineSet
26 796 m 1,0,-1
 547 796 l 1,1,-1
 299 1101 l 1,2,-1
 382 1189 l 1,3,-1
 762 732 l 1,4,-1
 762 678 l 1,5,-1
 380 256 l 1,6,-1
 306 356 l 1,7,-1
 547 643 l 1,8,-1
 26 643 l 1,9,-1
 26 796 l 1,0,-1
EndSplineSet
EndChar

StartChar: arrowboth
Encoding: 8596 8596 659
Width: 768
VWidth: 2441
GlyphClass: 1
Flags: HW
LayerCount: 2
Fore
SplineSet
510 1191 m 1,0,-1
 749 740 l 1,1,-1
 749 685 l 1,2,-1
 506 259 l 1,3,-1
 427 366 l 1,4,-1
 570 645 l 1,5,-1
 188 645 l 1,6,-1
 337 366 l 1,7,-1
 257 259 l 1,8,-1
 13 685 l 1,9,-1
 13 740 l 1,10,-1
 253 1191 l 1,11,-1
 337 1101 l 1,12,-1
 186 799 l 1,13,-1
 572 799 l 1,14,-1
 427 1101 l 1,15,-1
 510 1191 l 1,0,-1
EndSplineSet
EndChar

StartChar: arrowupdn
Encoding: 8597 8597 660
Width: 768
VWidth: 2441
GlyphClass: 1
Flags: HW
LayerCount: 2
Fore
SplineSet
759 508 m 1,0,-1
 440 107 l 1,1,-1
 401 107 l 1,2,-1
 83 515 l 1,3,-1
 188 603 l 1,4,-1
 352 396 l 1,5,-1
 352 1055 l 1,6,-1
 188 832 l 1,7,-1
 93 939 l 1,8,-1
 401 1338 l 1,9,-1
 440 1338 l 1,10,-1
 759 943 l 1,11,-1
 674 832 l 1,12,-1
 496 1055 l 1,13,-1
 496 393 l 1,14,-1
 674 603 l 1,15,-1
 759 508 l 1,0,-1
EndSplineSet
EndChar

StartChar: uni21E7
Encoding: 8679 8679 661
Width: 768
VWidth: 2441
GlyphClass: 1
Flags: HW
LayerCount: 2
Fore
SplineSet
334 98 m 1,0,-1
 517 98 l 1,1,-1
 517 991 l 1,2,-1
 688 991 l 1,3,-1
 425 1400 l 1,4,-1
 180 991 l 1,5,-1
 334 991 l 1,6,-1
 334 98 l 1,0,-1
237 0 m 1,7,-1
 237 892 l 1,8,-1
 58 892 l 1,9,-1
 58 999 l 1,10,-1
 404 1553 l 1,11,-1
 450 1553 l 1,12,-1
 794 999 l 1,13,-1
 794 892 l 1,14,-1
 614 892 l 1,15,-1
 614 0 l 1,16,-1
 237 0 l 1,7,-1
EndSplineSet
EndChar

StartChar: uni21E8
Encoding: 8680 8680 662
Width: 768
VWidth: 2441
GlyphClass: 1
Flags: HW
LayerCount: 2
Fore
SplineSet
101 867 m 1,0,-1
 101 517 l 1,1,-1
 423 517 l 1,2,-1
 423 376 l 1,3,-1
 655 694 l 1,4,-1
 423 1020 l 1,5,-1
 423 867 l 1,6,-1
 101 867 l 1,0,-1
13 964 m 1,7,-1
 333 964 l 1,8,-1
 333 1223 l 1,9,-1
 401 1223 l 1,10,-1
 749 725 l 1,11,-1
 749 659 l 1,12,-1
 401 163 l 1,13,-1
 333 163 l 1,14,-1
 333 420 l 1,15,-1
 13 420 l 1,16,-1
 13 964 l 1,7,-1
EndSplineSet
EndChar

StartChar: uni2B06
Encoding: 11014 11014 665
Width: 768
VWidth: 2441
GlyphClass: 1
Flags: HW
LayerCount: 2
Fore
SplineSet
794 999 m 1,0,-1
 794 892 l 1,1,-1
 614 892 l 1,2,-1
 614 0 l 1,3,-1
 237 0 l 1,4,-1
 237 892 l 1,5,-1
 58 892 l 1,6,-1
 58 999 l 1,7,-1
 404 1553 l 1,8,-1
 450 1553 l 1,9,-1
 794 999 l 1,0,-1
EndSplineSet
EndChar

StartChar: uni2B05
Encoding: 11013 11013 668
Width: 768
VWidth: 2441
GlyphClass: 1
Flags: HW
LayerCount: 2
Fore
SplineSet
749 420 m 1,0,-1
 429 420 l 1,1,-1
 429 163 l 1,2,-1
 362 163 l 1,3,-1
 13 659 l 1,4,-1
 13 725 l 1,5,-1
 362 1223 l 1,6,-1
 429 1223 l 1,7,-1
 429 964 l 1,8,-1
 749 964 l 1,9,-1
 749 420 l 1,0,-1
EndSplineSet
EndChar

StartChar: dneighthblock
Encoding: 9601 9601 669
Width: 768
VWidth: 2440
GlyphClass: 1
Flags: HW
LayerCount: 2
Fore
SplineSet
624 -246 m 1,0,-1
 624 -550 l 1,1,-1
 16 -550 l 1,2,-1
 16 -246 l 1,3,-1
 624 -246 l 1,0,-1
EndSplineSet
EndChar

StartChar: dnquarterblock
Encoding: 9602 9602 670
Width: 768
VWidth: 250
GlyphClass: 1
Flags: HW
LayerCount: 2
Fore
SplineSet
-16 -246 m 1,0,-1
 -16 -122 l 1,1,-1
 108 -122 l 1,2,-1
 108 -246 l 1,3,-1
 -16 -246 l 1,0,-1
EndSplineSet
EndChar

StartChar: dnthreeeighthsblock
Encoding: 9603 9603 671
Width: 768
VWidth: 1223
GlyphClass: 1
Flags: HW
LayerCount: 2
Fore
SplineSet
-18 -246 m 1,0,-1
 -18 305 l 1,1,-1
 350 305 l 1,2,-1
 350 -246 l 1,3,-1
 -18 -246 l 1,0,-1
EndSplineSet
EndChar

StartChar: dnhalfblock
Encoding: 9604 9604 672
Width: 768
VWidth: 1709
GlyphClass: 1
Flags: HW
LayerCount: 2
Fore
SplineSet
-17 -246 m 1,0,-1
 -17 732 l 1,1,-1
 472 732 l 1,2,-1
 472 -246 l 1,3,-1
 -17 -246 l 1,0,-1
EndSplineSet
EndChar

StartChar: dnfiveeighthsblock
Encoding: 9605 9605 673
Width: 768
VWidth: 2002
GlyphClass: 1
Flags: HW
LayerCount: 2
Fore
SplineSet
-18 -246 m 1,0,-1
 -18 1160 l 1,1,-1
 545 1160 l 1,2,-1
 545 -246 l 1,3,-1
 -18 -246 l 1,0,-1
EndSplineSet
EndChar

StartChar: dnthreequartersblock
Encoding: 9606 9606 674
Width: 768
VWidth: 2196
GlyphClass: 1
Flags: HW
LayerCount: 2
Fore
SplineSet
-18 -246 m 1,0,-1
 -18 1587 l 1,1,-1
 593 1587 l 1,2,-1
 593 -246 l 1,3,-1
 -18 -246 l 1,0,-1
EndSplineSet
EndChar

StartChar: dnseveneighthsblock
Encoding: 9607 9607 675
Width: 768
VWidth: 2335
GlyphClass: 1
Flags: HW
LayerCount: 2
Fore
SplineSet
-18 -246 m 1,0,-1
 -18 2015 l 1,1,-1
 628 2015 l 1,2,-1
 628 -246 l 1,3,-1
 -18 -246 l 1,0,-1
EndSplineSet
EndChar

StartChar: fullblock
Encoding: 9608 9608 676
Width: 768
VWidth: 2441
GlyphClass: 1
Flags: HW
LayerCount: 2
Fore
SplineSet
-18 -246 m 1,0,-1
 -18 2441 l 1,1,-1
 654 2441 l 1,2,-1
 654 -246 l 1,3,-1
 -18 -246 l 1,0,-1
EndSplineSet
EndChar

StartChar: uphalfblock
Encoding: 9600 9600 677
Width: 768
VWidth: 2441
GlyphClass: 1
Flags: HW
LayerCount: 2
Fore
SplineSet
-18 732 m 1,0,-1
 -18 2441 l 1,1,-1
 718 2441 l 1,2,-1
 718 732 l 1,3,-1
 -18 732 l 1,0,-1
EndSplineSet
EndChar

StartChar: upeighthblock
Encoding: 9620 9620 678
Width: 768
VWidth: 2441
GlyphClass: 1
Flags: HW
LayerCount: 2
Fore
SplineSet
-18 2015 m 1,0,-1
 -18 2441 l 1,1,-1
 718 2441 l 1,2,-1
 718 2015 l 1,3,-1
 -18 2015 l 1,0,-1
EndSplineSet
EndChar

StartChar: lefteighthblock
Encoding: 9615 9615 679
Width: 768
VWidth: 2441
GlyphClass: 1
Flags: HW
LayerCount: 2
Fore
SplineSet
16 -246 m 1,0,-1
 16 2441 l 1,1,-1
 100 2441 l 1,2,-1
 100 -246 l 1,3,-1
 16 -246 l 1,0,-1
EndSplineSet
EndChar

StartChar: leftquarterblock
Encoding: 9614 9614 680
Width: 768
VWidth: 2441
GlyphClass: 1
Flags: HW
LayerCount: 2
Fore
SplineSet
16 -246 m 1,0,-1
 16 2441 l 1,1,-1
 185 2441 l 1,2,-1
 185 -246 l 1,3,-1
 16 -246 l 1,0,-1
EndSplineSet
EndChar

StartChar: leftthreeeighthsblock
Encoding: 9613 9613 681
Width: 768
VWidth: 2441
GlyphClass: 1
Flags: HW
LayerCount: 2
Fore
SplineSet
16 -246 m 1,0,-1
 16 2441 l 1,1,-1
 269 2441 l 1,2,-1
 269 -246 l 1,3,-1
 16 -246 l 1,0,-1
EndSplineSet
EndChar

StartChar: lefthalfblock
Encoding: 9612 9612 682
Width: 768
VWidth: 2441
GlyphClass: 1
Flags: HW
LayerCount: 2
Fore
SplineSet
16 -246 m 1,0,-1
 16 2441 l 1,1,-1
 352 2441 l 1,2,-1
 352 -246 l 1,3,-1
 16 -246 l 1,0,-1
EndSplineSet
EndChar

StartChar: leftfiveeighthsblock
Encoding: 9611 9611 683
Width: 768
VWidth: 2441
GlyphClass: 1
Flags: HW
LayerCount: 2
Fore
SplineSet
16 -246 m 1,0,-1
 16 2441 l 1,1,-1
 437 2441 l 1,2,-1
 437 -246 l 1,3,-1
 16 -246 l 1,0,-1
EndSplineSet
EndChar

StartChar: leftthreequartersblock
Encoding: 9610 9610 684
Width: 768
VWidth: 2441
GlyphClass: 1
Flags: HW
LayerCount: 2
Fore
SplineSet
16 -246 m 1,0,-1
 16 2441 l 1,1,-1
 521 2441 l 1,2,-1
 521 -246 l 1,3,-1
 16 -246 l 1,0,-1
EndSplineSet
EndChar

StartChar: leftseveneighthsblock
Encoding: 9609 9609 685
Width: 768
VWidth: 2441
GlyphClass: 1
Flags: HW
LayerCount: 2
Fore
SplineSet
16 -246 m 1,0,-1
 16 2441 l 1,1,-1
 606 2441 l 1,2,-1
 606 -246 l 1,3,-1
 16 -246 l 1,0,-1
EndSplineSet
EndChar

StartChar: righthalfblock
Encoding: 9616 9616 686
Width: 768
VWidth: 2441
GlyphClass: 1
Flags: HW
LayerCount: 2
Fore
SplineSet
317 -246 m 1,0,-1
 317 2441 l 1,1,-1
 654 2441 l 1,2,-1
 654 -246 l 1,3,-1
 317 -246 l 1,0,-1
EndSplineSet
EndChar

StartChar: righteighthblock
Encoding: 9621 9621 687
Width: 768
VWidth: 2441
GlyphClass: 1
Flags: HW
LayerCount: 2
Fore
SplineSet
572 -246 m 1,0,-1
 572 2441 l 1,1,-1
 654 2441 l 1,2,-1
 654 -246 l 1,3,-1
 572 -246 l 1,0,-1
EndSplineSet
EndChar

StartChar: dnleftquadrant
Encoding: 9622 9622 688
Width: 768
VWidth: 1709
GlyphClass: 1
Flags: HW
LayerCount: 2
Fore
SplineSet
16 -246 m 1,0,-1
 16 732 l 1,1,-1
 260 732 l 1,2,-1
 260 -246 l 1,3,-1
 16 -246 l 1,0,-1
EndSplineSet
EndChar

StartChar: dnrightquadrant
Encoding: 9623 9623 689
Width: 768
VWidth: 1709
GlyphClass: 1
Flags: HW
LayerCount: 2
Fore
SplineSet
227 -246 m 1,0,-1
 227 732 l 1,1,-1
 472 732 l 1,2,-1
 472 -246 l 1,3,-1
 227 -246 l 1,0,-1
EndSplineSet
EndChar

StartChar: upleftquadrant
Encoding: 9624 9624 690
Width: 768
VWidth: 2441
GlyphClass: 1
Flags: HW
LayerCount: 2
Fore
SplineSet
16 732 m 1,0,-1
 16 2441 l 1,1,-1
 443 2441 l 1,2,-1
 443 732 l 1,3,-1
 16 732 l 1,0,-1
EndSplineSet
EndChar

StartChar: upleftdnleftdnrightquadrant
Encoding: 9625 9625 691
Width: 768
VWidth: 2441
GlyphClass: 1
Flags: HW
LayerCount: 2
Fore
SplineSet
-18 -246 m 1,0,-1
 -18 2441 l 1,1,-1
 317 2441 l 1,2,-1
 317 1097 l 1,3,-1
 654 1097 l 1,4,-1
 654 -246 l 1,5,-1
 -18 -246 l 1,0,-1
EndSplineSet
EndChar

StartChar: upleftdnrightquadrant
Encoding: 9626 9626 692
Width: 768
VWidth: 2441
GlyphClass: 1
Flags: HW
LayerCount: 2
Fore
SplineSet
317 1097 m 1,0,-1
 654 1097 l 1,1,-1
 654 -246 l 1,2,-1
 317 -246 l 1,3,-1
 317 1097 l 1,0,-1
317 1097 m 1,4,-1
 -18 1097 l 1,5,-1
 -18 2441 l 1,6,-1
 317 2441 l 1,7,-1
 317 1097 l 1,4,-1
EndSplineSet
EndChar

StartChar: upleftuprightdnleftquadrant
Encoding: 9627 9627 693
Width: 768
VWidth: 2441
GlyphClass: 1
Flags: HW
LayerCount: 2
Fore
SplineSet
-18 -246 m 1,0,-1
 -18 2441 l 1,1,-1
 654 2441 l 1,2,-1
 654 1097 l 1,3,-1
 317 1097 l 1,4,-1
 317 -246 l 1,5,-1
 -18 -246 l 1,0,-1
EndSplineSet
EndChar

StartChar: upleftuprightdnrightquadrant
Encoding: 9628 9628 694
Width: 768
VWidth: 2441
GlyphClass: 1
Flags: HW
LayerCount: 2
Fore
SplineSet
317 -246 m 1,0,-1
 317 1097 l 1,1,-1
 -18 1097 l 1,2,-1
 -18 2441 l 1,3,-1
 654 2441 l 1,4,-1
 654 -246 l 1,5,-1
 317 -246 l 1,0,-1
EndSplineSet
EndChar

StartChar: uprightquadrant
Encoding: 9629 9629 695
Width: 768
VWidth: 2441
GlyphClass: 1
Flags: HW
LayerCount: 2
Fore
SplineSet
409 732 m 1,0,-1
 409 2441 l 1,1,-1
 837 2441 l 1,2,-1
 837 732 l 1,3,-1
 409 732 l 1,0,-1
EndSplineSet
EndChar

StartChar: uprightdnleftquadrant
Encoding: 9630 9630 696
Width: 768
VWidth: 2441
GlyphClass: 1
Flags: HW
LayerCount: 2
Fore
SplineSet
-18 -246 m 1,0,-1
 -18 1097 l 1,1,-1
 317 1097 l 1,2,-1
 317 -246 l 1,3,-1
 -18 -246 l 1,0,-1
317 1097 m 1,4,-1
 317 2441 l 1,5,-1
 654 2441 l 1,6,-1
 654 1097 l 1,7,-1
 317 1097 l 1,4,-1
EndSplineSet
EndChar

StartChar: uprightdnleftdnrightquadrant
Encoding: 9631 9631 697
Width: 768
VWidth: 2441
GlyphClass: 1
Flags: HW
LayerCount: 2
Fore
SplineSet
-18 -246 m 1,0,-1
 -18 1097 l 1,1,-1
 317 1097 l 1,2,-1
 317 2441 l 1,3,-1
 654 2441 l 1,4,-1
 654 -246 l 1,5,-1
 -18 -246 l 1,0,-1
EndSplineSet
EndChar

StartChar: lightshade
Encoding: 9617 9617 698
Width: 768
VWidth: 2427
GlyphClass: 1
Flags: HW
LayerCount: 2
Fore
SplineSet
24 -246 m 1
 24 -149 l 1
 91 -149 l 1
 91 -246 l 1
 24 -246 l 1
249 -246 m 1
 249 -149 l 1
 317 -149 l 1
 317 -246 l 1
 249 -246 l 1
477 -246 m 1
 477 -149 l 1
 544 -149 l 1
 544 -246 l 1
 477 -246 l 1
136 -51 m 1
 136 46 l 1
 204 46 l 1
 204 -51 l 1
 136 -51 l 1
364 -51 m 1
 364 46 l 1
 432 46 l 1
 432 -51 l 1
 364 -51 l 1
590 -51 m 1
 590 46 l 1
 657 46 l 1
 657 -51 l 1
 590 -51 l 1
24 143 m 1
 24 240 l 1
 91 240 l 1
 91 143 l 1
 24 143 l 1
249 143 m 1
 249 240 l 1
 317 240 l 1
 317 143 l 1
 249 143 l 1
477 143 m 1
 477 240 l 1
 544 240 l 1
 544 143 l 1
 477 143 l 1
590 337 m 1
 590 435 l 1
 657 435 l 1
 657 337 l 1
 590 337 l 1
364 337 m 1
 364 435 l 1
 432 435 l 1
 432 337 l 1
 364 337 l 1
136 337 m 1
 136 435 l 1
 204 435 l 1
 204 337 l 1
 136 337 l 1
24 532 m 1
 24 630 l 1
 91 630 l 1
 91 532 l 1
 24 532 l 1
249 532 m 1
 249 630 l 1
 317 630 l 1
 317 532 l 1
 249 532 l 1
477 532 m 1
 477 630 l 1
 544 630 l 1
 544 532 l 1
 477 532 l 1
136 727 m 1
 136 824 l 1
 204 824 l 1
 204 727 l 1
 136 727 l 1
364 727 m 1
 364 824 l 1
 432 824 l 1
 432 727 l 1
 364 727 l 1
590 727 m 1
 590 824 l 1
 657 824 l 1
 657 727 l 1
 590 727 l 1
24 921 m 1
 24 1018 l 1
 91 1018 l 1
 91 921 l 1
 24 921 l 1
249 921 m 1
 249 1018 l 1
 317 1018 l 1
 317 921 l 1
 249 921 l 1
477 921 m 1
 477 1018 l 1
 544 1018 l 1
 544 921 l 1
 477 921 l 1
136 1116 m 1
 136 1213 l 1
 204 1213 l 1
 204 1116 l 1
 136 1116 l 1
364 1116 m 1
 364 1213 l 1
 432 1213 l 1
 432 1116 l 1
 364 1116 l 1
590 1116 m 1
 590 1213 l 1
 657 1213 l 1
 657 1116 l 1
 590 1116 l 1
24 1310 m 1
 24 1408 l 1
 91 1408 l 1
 91 1310 l 1
 24 1310 l 1
249 1310 m 1
 249 1408 l 1
 317 1408 l 1
 317 1310 l 1
 249 1310 l 1
477 1310 m 1
 477 1408 l 1
 544 1408 l 1
 544 1310 l 1
 477 1310 l 1
136 1505 m 1
 136 1603 l 1
 204 1603 l 1
 204 1505 l 1
 136 1505 l 1
364 1505 m 1
 364 1603 l 1
 432 1603 l 1
 432 1505 l 1
 364 1505 l 1
590 1505 m 1
 590 1603 l 1
 657 1603 l 1
 657 1505 l 1
 590 1505 l 1
477 1699 m 1
 477 1796 l 1
 544 1796 l 1
 544 1699 l 1
 477 1699 l 1
249 1699 m 1
 249 1796 l 1
 317 1796 l 1
 317 1699 l 1
 249 1699 l 1
24 1699 m 1
 24 1796 l 1
 91 1796 l 1
 91 1699 l 1
 24 1699 l 1
136 1894 m 1
 136 1991 l 1
 204 1991 l 1
 204 1894 l 1
 136 1894 l 1
364 1894 m 1
 364 1991 l 1
 432 1991 l 1
 432 1894 l 1
 364 1894 l 1
590 1894 m 1
 590 1991 l 1
 657 1991 l 1
 657 1894 l 1
 590 1894 l 1
24 2089 m 1
 24 2186 l 1
 91 2186 l 1
 91 2089 l 1
 24 2089 l 1
249 2089 m 1
 249 2186 l 1
 317 2186 l 1
 317 2089 l 1
 249 2089 l 1
477 2089 m 1
 477 2186 l 1
 544 2186 l 1
 544 2089 l 1
 477 2089 l 1
136 2283 m 1
 136 2381 l 1
 204 2381 l 1
 204 2283 l 1
 136 2283 l 1
364 2283 m 1
 364 2381 l 1
 432 2381 l 1
 432 2283 l 1
 364 2283 l 1
590 2283 m 1
 590 2381 l 1
 657 2381 l 1
 657 2283 l 1
 590 2283 l 1
EndSplineSet
EndChar

